<svg id="Intrastructure" xmlns="http://www.w3.org/2000/svg" viewBox="0 0 941.14 354.96"><defs><style>.cls-1{fill:#faf5e1;}.cls-2{fill:#34495e;}.cls-3{fill:#d4ecff;}.cls-4{fill:#fff;}.cls-5{fill:none;stroke:#34495e;stroke-miterlimit:10;stroke-width:2px;}.cls-6{fill:#e74c3c;}</style></defs><title>ltd_arch</title><rect class="cls-1" x="738.25" y="192.45" width="38.89" height="130.63"/><rect class="cls-1" x="560.09" width="218.5" height="162.51"/><rect class="cls-1" x="101.94" y="192.45" width="369.31" height="162.51"/><rect class="cls-1" x="101.94" width="369.31" height="162.51"/><rect class="cls-1" x="515.97" y="192.45" width="205.35" height="162.51"/><path class="cls-2" d="M137.27,337.88H134a17.48,17.48,0,0,1-.31-1.87c-1.14,1.38-2.73,2.26-6.16,2.26-5.93,0-9.23-4.08-9.23-9.44s3.51-9.65,10.06-9.65c5.88,0,8.4,3.2,8.89,5.85h-4.47c-0.36-.94-1.43-2.5-4.42-2.5-3.77,0-5.38,2.68-5.38,6.08,0,3.59,1.69,6.27,5.43,6.27,3.09,0,4.5-1.61,4.5-3.8v-0.29h-4.45v-3.43h8.76v10.5Z" transform="translate(-4.75)"/><path class="cls-2" d="M140.93,321.92v-3.41h4.24v3.41h-4.24Zm0,2.52h4.24v13.44h-4.24V324.44Z" transform="translate(-4.75)"/><path class="cls-2" d="M147.69,324.44h2.42v-4h4.26v4h3.12v3.09h-3.12v5.67c0,1.14.23,1.66,1.53,1.66a5.64,5.64,0,0,0,1.14-.08v2.91a10.31,10.31,0,0,1-2.68.29c-3.3,0-4.26-1.43-4.26-4.06v-6.4h-2.42v-3.09Z" transform="translate(-4.75)"/><path class="cls-2" d="M160.2,319.58h4.45v6.86h8.42v-6.86h4.45v18.3h-4.45V330h-8.42v7.88H160.2v-18.3Z" transform="translate(-4.75)"/><path class="cls-2" d="M194.73,334c0,1.27,0,2.6,0,3.9h-4.16c-0.05-.36-0.05-1-0.08-1.56-0.68,1-1.69,1.92-4.52,1.92s-5-1.64-5-5.59v-8.22h4.24V332c0,1.79.65,3,2.42,3,2.05,0,2.83-1.22,2.83-4.29v-6.21h4.24V334Z" transform="translate(-4.75)"/><path class="cls-2" d="M198.31,318.51h4.24v7.38a5.32,5.32,0,0,1,4.45-1.82,6.52,6.52,0,0,1,6.55,6.81c0,4.63-3,7.36-6.81,7.36-2.57,0-3.72-.94-4.34-1.87,0,0.34,0,1.2-.05,1.51h-4.06c0-2,0-3,0-4.47v-14.9Zm7.54,8.87c-2.37,0-3.41,1.51-3.41,3.77s1.14,3.74,3.35,3.74,3.38-1.69,3.38-3.8C209.18,329.2,208.2,327.38,205.86,327.38Z" transform="translate(-4.75)"/><path class="cls-2" d="M228.66,330.84v7h-4.39v-18.3h10c4.24,0,6.66,2.08,6.66,5.23a4.27,4.27,0,0,1-3.2,4.32c0.75,0.31,2.7,1,2.7,4.32v0.91a16,16,0,0,0,.23,3.54h-4.55a11.54,11.54,0,0,1-.34-3.82v-0.62c0-1.85-.68-2.6-3.35-2.6h-3.72Zm0-3.35h4.58c2.16,0,3.09-.78,3.09-2.31s-1-2.26-3.07-2.26h-4.6v4.58Z" transform="translate(-4.75)"/><path class="cls-2" d="M247.33,332.19a3,3,0,0,0,3.3,2.91,2.86,2.86,0,0,0,2.83-1.33h4.26c-0.83,2.39-2.83,4.47-7.15,4.47-5.51,0-7.49-3.64-7.49-7.07,0-3.77,2.55-7.1,7.46-7.1,5.23,0,7.33,3.61,7.33,7.1,0,0.34,0,.6,0,1H247.33Zm6.24-2.6c-0.08-1-.62-2.52-3-2.52-2.21,0-3,1.2-3.15,2.52h6.19Z" transform="translate(-4.75)"/><path class="cls-2" d="M260.61,343.55V327.74c0-1.09,0-2.21,0-3.3h4.16a14.11,14.11,0,0,1,.1,1.74c0.75-1.12,2.11-2.11,4.68-2.11a6.48,6.48,0,0,1,6.32,6.81c0,4.68-3.35,7.36-6.86,7.36a5,5,0,0,1-4.13-1.66v7h-4.24Zm7.54-16.17c-2.47,0-3.41,1.59-3.41,3.8s1.17,3.72,3.35,3.72,3.38-1.51,3.38-3.77C271.48,329.15,270.36,327.38,268.15,327.38Z" transform="translate(-4.75)"/><path class="cls-2" d="M293.29,331.15c0,4.13-2.86,7.1-7.85,7.1s-7.57-3.35-7.57-7.1,2.65-7.07,7.72-7.07C290.85,324.08,293.29,327.82,293.29,331.15Zm-11.1,0c0,2.11,1.17,3.9,3.38,3.9s3.35-1.77,3.35-3.82-1-3.93-3.38-3.93S282.19,329.1,282.19,331.15Z" transform="translate(-4.75)"/><path class="cls-2" d="M299.38,333.75c0.34,1,1.22,1.59,3,1.59s2.31-.55,2.31-1.2-0.57-1.12-3.28-1.48c-5.12-.73-5.82-2.6-5.82-4.24,0-2.05,1.53-4.34,6.21-4.34s6.4,2.24,6.58,4.16h-4.16c-0.21-.62-0.68-1.35-2.57-1.35-1.61,0-1.9.62-1.9,1.09s0.44,0.91,2.94,1.27c5.46,0.83,6.16,2.65,6.16,4.52,0,2.44-1.85,4.47-6.76,4.47-3.67,0-6.55-1.56-7-4.5h4.21Z" transform="translate(-4.75)"/><path class="cls-2" d="M311.57,321.92v-3.41h4.24v3.41h-4.24Zm0,2.52h4.24v13.44h-4.24V324.44Z" transform="translate(-4.75)"/><path class="cls-2" d="M318.33,324.44h2.42v-4H325v4h3.12v3.09H325v5.67c0,1.14.23,1.66,1.53,1.66a5.64,5.64,0,0,0,1.14-.08v2.91A10.31,10.31,0,0,1,325,338c-3.3,0-4.26-1.43-4.26-4.06v-6.4h-2.42v-3.09Z" transform="translate(-4.75)"/><path class="cls-2" d="M345.08,331.15c0,4.13-2.86,7.1-7.85,7.1s-7.57-3.35-7.57-7.1,2.65-7.07,7.72-7.07C342.64,324.08,345.08,327.82,345.08,331.15Zm-11.1,0c0,2.11,1.17,3.9,3.38,3.9s3.35-1.77,3.35-3.82-1-3.93-3.38-3.93S334,329.1,334,331.15Z" transform="translate(-4.75)"/><path class="cls-2" d="M347.92,328.11c0-1.22,0-2.44,0-3.67H352c0.08,0.49.13,2,.13,2.7a5.07,5.07,0,0,1,5.17-3V328c-3-.05-5.17,1.17-5.17,5v4.91h-4.24v-9.78Z" transform="translate(-4.75)"/><path class="cls-2" d="M359.59,321.92v-3.41h4.24v3.41h-4.24Zm0,2.52h4.24v13.44h-4.24V324.44Z" transform="translate(-4.75)"/><path class="cls-2" d="M370.88,332.19a3,3,0,0,0,3.3,2.91,2.86,2.86,0,0,0,2.83-1.33h4.26c-0.83,2.39-2.83,4.47-7.15,4.47-5.51,0-7.49-3.64-7.49-7.07,0-3.77,2.55-7.1,7.46-7.1,5.23,0,7.33,3.61,7.33,7.1,0,0.34,0,.6,0,1H370.88Zm6.24-2.6c-0.08-1-.62-2.52-3-2.52-2.21,0-3,1.2-3.15,2.52h6.19Z" transform="translate(-4.75)"/><path class="cls-2" d="M387.51,333.75c0.34,1,1.22,1.59,3,1.59s2.31-.55,2.31-1.2-0.57-1.12-3.28-1.48c-5.12-.73-5.82-2.6-5.82-4.24,0-2.05,1.53-4.34,6.21-4.34s6.4,2.24,6.58,4.16H392.4c-0.21-.62-0.68-1.35-2.57-1.35-1.61,0-1.9.62-1.9,1.09s0.44,0.91,2.94,1.27c5.46,0.83,6.16,2.65,6.16,4.52,0,2.44-1.85,4.47-6.76,4.47-3.67,0-6.55-1.56-7-4.5h4.21Z" transform="translate(-4.75)"/><path class="cls-2" d="M536.21,333.61l-1.38,4.13H531l6.08-17.91H542l6.37,17.91h-4.08l-1.48-4.13h-6.55Zm5.72-3.17c-1.27-3.8-2.08-6.21-2.52-7.83h0c-0.44,1.77-1.33,4.58-2.34,7.83h4.89Z" transform="translate(-4.75)"/><path class="cls-2" d="M552.12,337.74l-4.58-17.91h4.13c1.69,8.22,2.44,11.88,2.65,13.86h0c0.68-3.3,2.42-9.54,3.46-13.86h3.48c0.94,3.43,2.73,10.38,3.33,13.68h0c0.6-4,2.34-10.89,3-13.68h3.74l-4.84,17.91h-4c-0.94-4-2.52-9.78-3.15-12.84h0c-0.65,3.2-2.26,9.23-3.22,12.84h-4Z" transform="translate(-4.75)"/><path class="cls-2" d="M576.58,332.49c0.42,1.79,1.69,2.6,3.77,2.6s3-.83,3-2.13c0-1.48-.86-2.11-3.93-2.81-4.89-1.14-6.08-2.94-6.08-5.36,0-3.12,2.34-5.23,6.58-5.23,4.76,0,6.66,2.55,6.92,5.17h-3.9c-0.21-1.12-.81-2.31-3.12-2.31-1.59,0-2.52.65-2.52,1.92s0.75,1.77,3.67,2.42c5.2,1.25,6.34,3.17,6.34,5.72,0,3.25-2.47,5.51-7.2,5.51-4.55,0-7-2.24-7.38-5.51h3.9Z" transform="translate(-4.75)"/><path class="cls-2" d="M599.39,332.49c0.42,1.79,1.69,2.6,3.77,2.6s3-.83,3-2.13c0-1.48-.86-2.11-3.93-2.81-4.89-1.14-6.08-2.94-6.08-5.36,0-3.12,2.34-5.23,6.58-5.23,4.76,0,6.66,2.55,6.92,5.17h-3.9c-0.21-1.12-.81-2.31-3.12-2.31-1.59,0-2.52.65-2.52,1.92s0.75,1.77,3.67,2.42c5.2,1.25,6.34,3.17,6.34,5.72,0,3.25-2.47,5.51-7.2,5.51-4.55,0-7-2.24-7.38-5.51h3.9Z" transform="translate(-4.75)"/><path class="cls-2" d="M612.23,325c0.23-2.11,1.72-4.71,6-4.71,4,0,5.72,2.24,5.72,4.65a3.63,3.63,0,0,1-2.13,3.48v0.08a4,4,0,0,1,2.78,4.11c0,2.47-1.48,5.41-6.4,5.41-4.6,0-6.16-2.76-6.32-5h3.61a2.58,2.58,0,0,0,2.81,2.16,2.38,2.38,0,0,0,2.57-2.6c0-1.59-.83-2.55-2.81-2.55h-1.56v-2.86h1.38c1.69,0,2.39-.57,2.39-2a1.9,1.9,0,0,0-2.18-2,2.07,2.07,0,0,0-2.34,1.82h-3.54Z" transform="translate(-4.75)"/><path class="cls-2" d="M634.07,319.82h7.83c4.34,0,6,2.24,6,4.58a4,4,0,0,1-2.29,3.87,4.3,4.3,0,0,1,2.81,4.11c0,3.07-2.42,5.36-6.21,5.36h-8.11V319.82Zm7.38,7.07c1.85,0,2.6-.83,2.6-2.11s-1-2-2.47-2h-3.72v4.08h3.59Zm-3.59,7.85h3.51c2.11,0,3-.88,3-2.5,0-1.46-.94-2.37-3.07-2.37h-3.48v4.86Z" transform="translate(-4.75)"/><path class="cls-2" d="M662.8,333.84c0,1.28,0,2.71,0,3.9h-3.64c-0.05-.36-0.08-1.09-0.1-1.56a3.85,3.85,0,0,1-3.72,1.87c-2.73,0-4.47-1.66-4.47-5v-8.79h3.72v8c0,1.48.47,2.7,2.08,2.7s2.39-.91,2.39-3.56v-7.18h3.72v9.57Z" transform="translate(-4.75)"/><path class="cls-2" d="M677.91,333.4c-0.44,2.24-2,4.65-6,4.65-4.19,0-6.34-2.89-6.34-6.94s2.42-7.15,6.53-7.15c4.52,0,5.8,3.28,5.85,4.78h-3.61A2.1,2.1,0,0,0,672,326.9c-1.72,0-2.68,1.48-2.68,4.08,0,2.89,1,4.19,2.65,4.19a2.29,2.29,0,0,0,2.31-1.77h3.64Z" transform="translate(-4.75)"/><path class="cls-2" d="M684,330c1-1.35,2.76-3.43,4.63-5.7h4.26l-4.68,5.1,5.12,8.37h-4.21l-3.41-6L684,333.42v4.32h-3.74v-19H684V330Z" transform="translate(-4.75)"/><path class="cls-2" d="M697.38,331.81c0,1.69.86,3.33,2.7,3.33a2.15,2.15,0,0,0,2.37-1.43h3.72c-0.47,1.64-2,4.34-6.16,4.34-4.45,0-6.37-3.3-6.37-6.84,0-4.24,2.16-7.25,6.5-7.25,4.6,0,6.19,3.35,6.19,6.71a7.91,7.91,0,0,1-.05,1.14h-8.89Zm5.2-2.29c0-1.56-.65-2.89-2.47-2.89s-2.5,1.22-2.65,2.89h5.12Z" transform="translate(-4.75)"/><path class="cls-2" d="M707.54,324.27h2.08v-3.64h3.72v3.64H716v2.81h-2.65v6.66a1.17,1.17,0,0,0,1.43,1.4c0.21,0,.57,0,0.83,0v2.55a8.06,8.06,0,0,1-2.5.26c-2.63,0-3.48-1.4-3.48-3.77v-7.07h-2.08v-2.81Z" transform="translate(-4.75)"/><path class="cls-2" d="M576.63,29.2V9.83h4.24V29.2h-4.24Z" transform="translate(-4.75)"/><path class="cls-2" d="M583.39,15.76h2.42v-4h4.26v4h3.12v3.09h-3.12v5.67c0,1.14.23,1.66,1.53,1.66a5.63,5.63,0,0,0,1.14-.08V29a10.31,10.31,0,0,1-2.68.29c-3.3,0-4.26-1.43-4.26-4.06v-6.4h-2.42V15.76Z" transform="translate(-4.75)"/><path class="cls-2" d="M610,9.83v15.6c0,1.25,0,2.52,0,3.77h-4.19c-0.05-.39-0.08-1-0.1-1.56-0.75,1-1.69,1.92-4.47,1.92-3.74,0-6.53-2.78-6.53-7a7,7,0,0,1,6.92-7.2c2.63,0,3.69.88,4.08,1.4v-7H610ZM602.5,26.24c2.18,0,3.33-1.43,3.33-3.74s-0.91-3.8-3.33-3.8-3.41,1.82-3.41,3.8C599.09,24.63,600.32,26.24,602.5,26.24Z" transform="translate(-4.75)"/><path class="cls-2" d="M621.79,20.81v3.54h-8.68V20.81h8.68Z" transform="translate(-4.75)"/><path class="cls-2" d="M629.15,21.56c1.33-1.4,4.06-4,5.75-5.8h5l-5.67,5.15,6.24,8.29h-5.12l-4.11-5.93-2.11,1.82V29.2h-4.24V9.83h4.24V21.56Z" transform="translate(-4.75)"/><path class="cls-2" d="M645,23.51a3,3,0,0,0,3.3,2.91,2.86,2.86,0,0,0,2.83-1.33h4.26c-0.83,2.39-2.83,4.47-7.15,4.47-5.51,0-7.49-3.64-7.49-7.07,0-3.77,2.55-7.1,7.46-7.1,5.23,0,7.33,3.61,7.33,7.1,0,0.34,0,.6,0,1H645Zm6.24-2.6c-0.08-1-.62-2.52-3-2.52-2.21,0-3,1.2-3.15,2.52h6.19Z" transform="translate(-4.75)"/><path class="cls-2" d="M661.91,23.51a3,3,0,0,0,3.3,2.91A2.86,2.86,0,0,0,668,25.1h4.26c-0.83,2.39-2.83,4.47-7.15,4.47-5.51,0-7.49-3.64-7.49-7.07,0-3.77,2.55-7.1,7.46-7.1,5.23,0,7.33,3.61,7.33,7.1,0,0.34,0,.6,0,1H661.91Zm6.24-2.6c-0.08-1-.62-2.52-3-2.52-2.21,0-3,1.2-3.15,2.52h6.19Z" transform="translate(-4.75)"/><path class="cls-2" d="M675.19,34.87V19.06c0-1.09,0-2.21,0-3.3h4.16a14.22,14.22,0,0,1,.1,1.74c0.75-1.12,2.11-2.11,4.68-2.11a6.48,6.48,0,0,1,6.32,6.81c0,4.68-3.35,7.36-6.86,7.36a5,5,0,0,1-4.13-1.66v7h-4.24Zm7.54-16.17c-2.47,0-3.41,1.59-3.41,3.8s1.17,3.72,3.35,3.72,3.38-1.51,3.38-3.77C686.06,20.47,684.94,18.7,682.73,18.7Z" transform="translate(-4.75)"/><path class="cls-2" d="M696.7,23.51a3,3,0,0,0,3.3,2.91,2.86,2.86,0,0,0,2.83-1.33h4.26c-0.83,2.39-2.83,4.47-7.15,4.47-5.51,0-7.49-3.64-7.49-7.07,0-3.77,2.55-7.1,7.46-7.1,5.23,0,7.33,3.61,7.33,7.1,0,0.34,0,.6,0,1H696.7Zm6.24-2.6c-0.08-1-.62-2.52-3-2.52-2.21,0-3,1.2-3.15,2.52h6.19Z" transform="translate(-4.75)"/><path class="cls-2" d="M710,19.43c0-1.22,0-2.44,0-3.67h4.13c0.08,0.49.13,2,.13,2.7a5.07,5.07,0,0,1,5.17-3V19.3c-3-.05-5.17,1.17-5.17,5V29.2H710V19.43Z" transform="translate(-4.75)"/><path class="cls-2" d="M127.15,22.68c0,5.1-2.29,6.92-6.68,6.92a17.72,17.72,0,0,1-2.65-.18V25.9a14.9,14.9,0,0,0,1.92.13c1.9,0,2.94-.75,2.94-3.12v-12h4.47V22.68Z" transform="translate(-4.75)"/><path class="cls-2" d="M134.3,23.51a3,3,0,0,0,3.3,2.91,2.86,2.86,0,0,0,2.83-1.33h4.26c-0.83,2.39-2.83,4.47-7.15,4.47-5.51,0-7.49-3.64-7.49-7.07,0-3.77,2.55-7.1,7.46-7.1,5.23,0,7.33,3.61,7.33,7.1,0,0.34,0,.6,0,1H134.3Zm6.24-2.6c-0.08-1-.62-2.52-3-2.52-2.21,0-3,1.2-3.15,2.52h6.19Z" transform="translate(-4.75)"/><path class="cls-2" d="M147.56,19.17c0-1.14,0-2.44,0-3.41h4.13c0.05,0.39.1,1.2,0.13,1.74a4.92,4.92,0,0,1,4.47-2.11c3.3,0,5.25,2.05,5.25,5.51V29.2h-4.29V21.59c0-1.53-.6-2.89-2.5-2.89s-2.91,1.38-2.91,3.8V29.2h-4.26v-10Z" transform="translate(-4.75)"/><path class="cls-2" d="M169.35,21.56c1.33-1.4,4.06-4,5.75-5.8h5l-5.67,5.15,6.24,8.29h-5.12l-4.11-5.93-2.11,1.82V29.2h-4.24V9.83h4.24V21.56Z" transform="translate(-4.75)"/><path class="cls-2" d="M182.27,13.24V9.83h4.24v3.41h-4.24Zm0,2.52h4.24V29.2h-4.24V15.76Z" transform="translate(-4.75)"/><path class="cls-2" d="M190.1,19.17c0-1.14,0-2.44,0-3.41h4.13c0.05,0.39.1,1.2,0.13,1.74a4.92,4.92,0,0,1,4.47-2.11c3.3,0,5.25,2.05,5.25,5.51V29.2h-4.29V21.59c0-1.53-.6-2.89-2.5-2.89s-2.91,1.38-2.91,3.8V29.2H190.1v-10Z" transform="translate(-4.75)"/><path class="cls-2" d="M210.61,25.07c0.34,1,1.22,1.59,3,1.59s2.31-.55,2.31-1.2-0.57-1.12-3.28-1.48c-5.12-.73-5.82-2.6-5.82-4.24,0-2.05,1.53-4.34,6.21-4.34s6.4,2.24,6.58,4.16H215.5c-0.21-.62-0.68-1.35-2.57-1.35-1.61,0-1.9.62-1.9,1.09s0.44,0.91,2.94,1.27c5.46,0.83,6.16,2.65,6.16,4.52,0,2.44-1.85,4.47-6.76,4.47-3.67,0-6.55-1.56-7-4.5h4.21Z" transform="translate(-4.75)"/><path class="cls-2" d="M230.66,10.9H240.8c4.37,0,6.27,2.13,6.27,4.71a4,4,0,0,1-2.73,3.9,4.43,4.43,0,0,1,3.41,4.24c0,3.46-2.63,5.46-7.12,5.46h-10V10.9Zm9.2,7.15c2,0,2.63-.78,2.63-1.9,0-1.38-1.07-1.92-2.6-1.92H235v3.82h4.84ZM235,25.9h5c1.72,0,3-.49,3-2.31,0-1.46-1-2.21-2.94-2.21H235V25.9Z" transform="translate(-4.75)"/><path class="cls-2" d="M264.12,25.3c0,1.27,0,2.6,0,3.9H260c-0.05-.36-0.05-1-0.08-1.56-0.68,1-1.69,1.92-4.52,1.92s-5-1.64-5-5.59V15.76h4.24v7.51c0,1.79.65,3,2.42,3,2.05,0,2.83-1.22,2.83-4.29V15.76h4.24V25.3Z" transform="translate(-4.75)"/><path class="cls-2" d="M267.73,13.24V9.83H272v3.41h-4.24Zm0,2.52H272V29.2h-4.24V15.76Z" transform="translate(-4.75)"/><path class="cls-2" d="M275.69,29.2V9.83h4.24V29.2h-4.24Z" transform="translate(-4.75)"/><path class="cls-2" d="M298,9.83v15.6c0,1.25,0,2.52,0,3.77h-4.19c-0.05-.39-0.08-1-0.1-1.56-0.75,1-1.69,1.92-4.47,1.92-3.74,0-6.53-2.78-6.53-7a7,7,0,0,1,6.92-7.2c2.63,0,3.69.88,4.08,1.4v-7H298Zm-7.49,16.41c2.18,0,3.33-1.43,3.33-3.74s-0.91-3.8-3.33-3.8-3.41,1.82-3.41,3.8C287.1,24.63,288.33,26.24,290.51,26.24Z" transform="translate(-4.75)"/><path class="cls-2" d="M300.86,30.53l8.27-19.63h3.74l-8.29,19.63h-3.72Z" transform="translate(-4.75)"/><path class="cls-2" d="M334,23.38c-0.83,3.22-3.38,6.21-9.13,6.21-6.55,0-9.7-4.52-9.7-9.52s3.46-9.57,9.93-9.57c5.62,0,8.4,3.12,8.94,6.16h-4.5c-0.39-1-1.38-2.73-4.5-2.73-3.43,0-5.2,2.63-5.2,6s1.61,6.27,5.23,6.27c2.6,0,3.74-1,4.47-2.78H334Z" transform="translate(-4.75)"/><path class="cls-2" d="M341.57,10.9V29.2h-4.45V10.9h4.45Z" transform="translate(-4.75)"/><path d="M159.34,272.11V270h1.83v2.11h-1.83Zm3.72,0V270h1.83v2.11h-1.83Zm3.71,0V270h1.83v2.11h-1.83Z" transform="translate(-4.75)"/><path d="M569.27,272.11V270h1.83v2.11h-1.83Zm3.72,0V270h1.83v2.11H573Zm3.71,0V270h1.83v2.11H576.7Z" transform="translate(-4.75)"/><path class="cls-2" d="M775.12,221.68v12.51h-3.17v-8.71h-4.39v8.16h-3.17v-8.16H757.2v-3.8h17.92Z" transform="translate(-4.75)"/><path class="cls-2" d="M760.69,247.14a29.91,29.91,0,0,0-3.48.18v-3.56a5.29,5.29,0,0,1,1.33-.18c-0.75-.49-1.64-1.4-1.64-3.8,0-3.25,2.13-4.6,4.21-4.6,3.07,0,4.5,2.44,4.5,6.4v1.92h0.81c1,0,1.9-.34,1.9-2.08,0-1.56-.65-1.92-1.64-2.08V235.8c2.39,0.18,4.32,1.66,4.32,5.77,0,3.59-1.43,5.56-4.65,5.56h-5.64Zm2.65-3.64V242c0-2.26-.7-3.09-2-3.09a1.74,1.74,0,0,0-1.79,2c0,2.37,1.66,2.65,3.43,2.65h0.36Z" transform="translate(-4.75)"/><path class="cls-2" d="M761.26,253a2.33,2.33,0,0,0-1.69,2.55c0,1.38.49,1.87,1.33,1.87s1.2-.57,1.66-2.5c1.09-4.39,2.44-5.1,4.34-5.1s4.08,1.38,4.08,5.43-2.24,5.49-4.06,5.59v-3.54c0.49-.13,1.43-0.47,1.43-2.21,0-1.22-.55-1.64-1.14-1.64s-1,.42-1.51,2.6c-1,4.5-2.57,5.15-4.55,5.15-2.24,0-4.26-1.72-4.26-5.8s2-5.77,4.37-6.08V253Z" transform="translate(-4.75)"/><path class="cls-2" d="M770.67,262.21v2.08h3.64V268h-3.64v2.65h-2.81V268h-6.66a1.17,1.17,0,0,0-1.4,1.43c0,0.21,0,.57,0,0.83h-2.55a8.06,8.06,0,0,1-.26-2.5c0-2.63,1.4-3.48,3.77-3.48h7.07v-2.08h2.81Z" transform="translate(-4.75)"/><path class="cls-2" d="M757.2,272.77h19v3.74h-19v-3.74Z" transform="translate(-4.75)"/><path class="cls-2" d="M770.67,282.44c-4.65,1.38-8.79,2.6-10,2.81v0c1.35,0.29,4.37,1.09,10,2.68v3.72l-13.86-4.52c-3.87-1.27-5-2.37-5-5.59a16.82,16.82,0,0,1,.1-1.74h3c0,0.26-.05.65-0.05,1,0,1.38.47,2.05,2,2.57l13.88-4.91v4Z" transform="translate(-4.75)"/><rect class="cls-3" x="109.5" y="40.47" width="139.52" height="28" rx="6.87" ry="6.87"/><rect class="cls-3" x="109.5" y="278.3" width="104.54" height="28" rx="5.95" ry="5.95"/><rect class="cls-3" x="109.5" y="230.63" width="104.54" height="28" rx="5.95" ry="5.95"/><rect class="cls-3" x="330.34" y="230.63" width="129.81" height="28" rx="6.63" ry="6.63"/><rect class="cls-3" x="857.36" y="241.15" width="83.77" height="28" rx="5.33" ry="5.33"/><rect class="cls-3" x="344.25" y="40.6" width="113.03" height="28" rx="6.19" ry="6.19"/><rect class="cls-2" y="27.67" width="83.38" height="53.58" rx="11.9" ry="11.9"/><path class="cls-2" d="M118.65,45h1.83v6.4a3.58,3.58,0,0,1,3.34-1.76c2.71,0,4.29,2.22,4.29,5.46,0,3.39-1.43,6.12-4.62,6.12a3.07,3.07,0,0,1-3-1.61,10.16,10.16,0,0,1-.07,1.41h-1.78c0-.62,0-1.78,0-3.17V45Zm4.73,6.23c-2.22,0-3,1.43-3,4.07s0.64,4.33,2.95,4.33c2,0,2.93-1.85,2.93-4.47C126.24,52.84,125.29,51.26,123.38,51.26Z" transform="translate(-4.75)"/><path class="cls-2" d="M139,57.9c0,1.39,0,2.62,0,3.15h-1.76a11.3,11.3,0,0,1-.09-1.78,3.32,3.32,0,0,1-3.28,2c-1.74,0-3.41-.84-3.41-3.85v-7.5h1.8V57c0,1.45.46,2.62,2.16,2.62s2.68-1.08,2.68-3.54V49.89H139v8Z" transform="translate(-4.75)"/><path class="cls-2" d="M142.21,47.39V45H144v2.35h-1.83Zm0,2.51H144V61.05h-1.83V49.89Z" transform="translate(-4.75)"/><path class="cls-2" d="M147.25,61.05V45h1.83v16h-1.83Z" transform="translate(-4.75)"/><path class="cls-2" d="M161,45V58.15c0,1.08,0,2.22,0,2.9h-1.78c0-.29-0.07-1-0.07-1.65-0.59,1.3-1.5,1.85-3.32,1.85-2.88,0-4.33-2.44-4.33-5.77s1.67-5.81,4.71-5.81c1.8,0,2.64.73,2.95,1.34V45H161Zm-4.64,14.65c2.4,0,2.9-1.83,2.9-4.44,0-3.08-.9-4-2.79-4s-3,1.5-3,4.16S154.55,59.69,156.31,59.69Z" transform="translate(-4.75)"/><path class="cls-2" d="M164.21,61.05V45H166v16h-1.83Z" transform="translate(-4.75)"/><path class="cls-2" d="M170.06,57.82a2.3,2.3,0,0,0,2.51,2c1.54,0,2.13-.81,2.13-1.76s-0.7-1.54-2.6-2c-2.73-.75-3.43-1.74-3.43-3.23s1-3.1,3.74-3.1,3.74,1.5,3.89,3.21h-1.8a2,2,0,0,0-2.18-1.78c-1.25,0-1.83.59-1.83,1.52s0.42,1.3,2.29,1.78c2.84,0.77,3.74,1.72,3.74,3.5,0,2.07-1.63,3.34-4,3.34s-4-1.1-4.25-3.43h1.8Z" transform="translate(-4.75)"/><path class="cls-2" d="M179.88,57.82a2.3,2.3,0,0,0,2.51,2c1.54,0,2.13-.81,2.13-1.76s-0.7-1.54-2.6-2c-2.73-.75-3.43-1.74-3.43-3.23s1-3.1,3.74-3.1,3.74,1.5,3.89,3.21h-1.8a2,2,0,0,0-2.18-1.78c-1.25,0-1.83.59-1.83,1.52s0.42,1.3,2.29,1.78c2.84,0.77,3.74,1.72,3.74,3.5,0,2.07-1.63,3.34-4,3.34s-4-1.1-4.25-3.43h1.8Z" transform="translate(-4.75)"/><path class="cls-2" d="M187.31,49.89h1.78V46.66h1.83v3.23h2.24v1.5h-2.24v7c0,0.95.24,1.34,1.19,1.34a4.91,4.91,0,0,0,.86-0.09V61a4.86,4.86,0,0,1-1.45.18c-1.63,0-2.42-.62-2.42-2.46V51.39h-1.78v-1.5Z" transform="translate(-4.75)"/><path class="cls-2" d="M196,57.82a2.3,2.3,0,0,0,2.51,2c1.54,0,2.13-.81,2.13-1.76s-0.7-1.54-2.6-2c-2.73-.75-3.43-1.74-3.43-3.23s1-3.1,3.74-3.1,3.74,1.5,3.89,3.21h-1.8a2,2,0,0,0-2.18-1.78c-1.25,0-1.83.59-1.83,1.52s0.42,1.3,2.29,1.78c2.84,0.77,3.74,1.72,3.74,3.5,0,2.07-1.63,3.34-4,3.34s-4-1.1-4.25-3.43H196Z" transform="translate(-4.75)"/><path class="cls-2" d="M205.53,49.89c1.28,4.91,2,7.81,2.31,9.29h0c0.26-1.34.88-3.5,2.46-9.29h1.78c1.5,5.5,2.16,8,2.33,9.2h0c0.24-1.23.88-3.52,2.44-9.2h1.85l-3.39,11.16h-1.91c-1-3.67-2-7.17-2.31-8.87h0c-0.29,1.65-1.3,5.08-2.4,8.87h-2l-3.19-11.16h2Z" transform="translate(-4.75)"/><path class="cls-2" d="M219.23,61.07V58H221v3h-1.8Z" transform="translate(-4.75)"/><path class="cls-2" d="M224.8,57.82a2.3,2.3,0,0,0,2.51,2c1.54,0,2.13-.81,2.13-1.76s-0.7-1.54-2.6-2c-2.73-.75-3.43-1.74-3.43-3.23s1-3.1,3.74-3.1,3.74,1.5,3.89,3.21h-1.8a2,2,0,0,0-2.18-1.78c-1.25,0-1.83.59-1.83,1.52s0.42,1.3,2.29,1.78c2.84,0.77,3.74,1.72,3.74,3.5,0,2.07-1.63,3.34-4,3.34s-4-1.1-4.25-3.43h1.8Z" transform="translate(-4.75)"/><path class="cls-2" d="M235.34,45V51.5a3.46,3.46,0,0,1,3.32-1.83c1.63,0,3.5.84,3.5,4v7.37h-1.8V54c0-1.69-.66-2.71-2.29-2.71-1.8,0-2.73,1.19-2.73,3.41v6.36h-1.83V45h1.83Z" transform="translate(-4.75)"/><path class="cls-2" d="M364.26,61.05V45h1.83v16h-1.83Z" transform="translate(-4.75)"/><path class="cls-2" d="M367.86,49.9h1.78V46.66h1.83V49.9h2.24v1.5h-2.24v7c0,0.95.24,1.34,1.19,1.34a4.91,4.91,0,0,0,.86-0.09V61a4.86,4.86,0,0,1-1.45.18c-1.63,0-2.42-.62-2.42-2.46V51.39h-1.78V49.9Z" transform="translate(-4.75)"/><path class="cls-2" d="M384.32,45V58.15c0,1.08,0,2.22,0,2.9h-1.78c0-.29-0.07-1-0.07-1.65-0.59,1.3-1.5,1.85-3.32,1.85-2.88,0-4.33-2.44-4.33-5.77s1.67-5.81,4.71-5.81c1.8,0,2.64.73,2.95,1.34V45h1.8Zm-4.64,14.65c2.4,0,2.9-1.83,2.9-4.44,0-3.08-.9-4-2.79-4s-3,1.5-3,4.16S377.92,59.69,379.68,59.69Z" transform="translate(-4.75)"/><path class="cls-2" d="M392.28,54.58v1.63h-5.35V54.58h5.35Z" transform="translate(-4.75)"/><path class="cls-2" d="M394.88,53.37c0-2,0-3,0-3.48h1.78c0,0.31.07,1.19,0.07,1.58a3.36,3.36,0,0,1,3.12-1.8,2.73,2.73,0,0,1,2.86,1.91,3.52,3.52,0,0,1,3.3-1.91c1.69,0,3.34.88,3.34,3.81v7.57h-1.8V53.79c0-1.36-.44-2.53-2-2.53-1.74,0-2.46,1.45-2.46,3.23v6.56h-1.8V53.7c0-1.39-.55-2.42-2-2.42s-2.53,1.19-2.53,3.41v6.36h-1.8V53.37Z" transform="translate(-4.75)"/><path class="cls-2" d="M420.16,58.56a21,21,0,0,0,.15,2.49h-1.65a10.16,10.16,0,0,1-.15-1.72,3.32,3.32,0,0,1-3.39,1.91,3.2,3.2,0,0,1-3.54-3.39c0-1.67,1.08-3.54,5.06-3.54h1.72V53.24c0-1.06-.31-2.16-2.2-2.16a2,2,0,0,0-2.35,2H412c0.15-1.87,1.23-3.39,4.2-3.39,2.33,0,3.94.95,3.94,3.48v5.41Zm-1.76-2.93h-1.76c-2.71,0-3.21,1.1-3.21,2.11a1.89,1.89,0,0,0,2.07,2c2.2,0,2.9-1.5,2.9-3.87V55.64Z" transform="translate(-4.75)"/><path class="cls-2" d="M424,57.82a2.3,2.3,0,0,0,2.51,2c1.54,0,2.13-.81,2.13-1.76s-0.7-1.54-2.6-2c-2.73-.75-3.43-1.74-3.43-3.23s1-3.1,3.74-3.1,3.74,1.5,3.89,3.21h-1.8a2,2,0,0,0-2.18-1.78c-1.25,0-1.83.59-1.83,1.52s0.42,1.3,2.29,1.78c2.84,0.77,3.74,1.72,3.74,3.5,0,2.07-1.63,3.34-4,3.34s-4-1.1-4.25-3.43H424Z" transform="translate(-4.75)"/><path class="cls-2" d="M442,55.29c0,3.23-1.41,6-5,6s-4.84-2.84-4.84-5.9,1.61-5.68,5-5.68C440.31,49.68,442,52.07,442,55.29Zm-7.94,0c0,2.55,1.06,4.4,3.06,4.4s3-1.8,3-4.42c0-2.44-1-4.11-3-4.11S434.06,52.89,434.06,55.33Z" transform="translate(-4.75)"/><path class="cls-2" d="M444.45,53.39c0-2.33,0-3,0-3.5h1.78a13.32,13.32,0,0,1,.07,1.74,3.42,3.42,0,0,1,3.3-2c2.07,0,3.54,1.17,3.54,4.18v7.19h-1.83V54.14c0-1.63-.55-2.86-2.22-2.86-2,0-2.77,1.47-2.77,3.81v6h-1.83V53.39Z" transform="translate(-4.75)"/><path class="cls-2" d="M345.24,235.86h5.1c2.82,0,4.91,1.45,4.91,4.2,0,3-2.09,4.44-5.17,4.44h-2.95V251h-1.89V235.86Zm1.89,7.08H350c2,0,3.3-.68,3.3-2.86,0-1.83-1.32-2.66-3.28-2.66h-2.9v5.52Z" transform="translate(-4.75)"/><path class="cls-2" d="M357.32,243.67c0-1.78,0-3.23,0-3.78h1.78c0,0.53,0,1.23,0,2.27a3.74,3.74,0,0,1,3.61-2.46v1.89c-2.51.09-3.56,1.56-3.56,4V251h-1.83v-7.37Z" transform="translate(-4.75)"/><path class="cls-2" d="M373.53,245.28c0,3.23-1.41,6-5,6s-4.84-2.84-4.84-5.9,1.61-5.68,5-5.68C371.84,239.67,373.53,242.07,373.53,245.28Zm-7.94,0c0,2.55,1.06,4.4,3.06,4.4s3-1.8,3-4.42c0-2.44-1-4.12-3-4.12S365.59,242.88,365.59,245.32Z" transform="translate(-4.75)"/><path class="cls-2" d="M384.64,235v13.11c0,1.08,0,2.22,0,2.9h-1.78c0-.29-0.07-1-0.07-1.65-0.59,1.3-1.5,1.85-3.32,1.85-2.88,0-4.33-2.44-4.33-5.76s1.67-5.81,4.71-5.81c1.8,0,2.64.73,2.95,1.34v-6h1.8ZM380,249.68c2.4,0,2.9-1.83,2.9-4.44,0-3.08-.9-4-2.79-4s-3,1.5-3,4.16S378.24,249.68,380,249.68Z" transform="translate(-4.75)"/><path class="cls-2" d="M396.24,247.9c0,1.39,0,2.62,0,3.15h-1.76a11.35,11.35,0,0,1-.09-1.78,3.32,3.32,0,0,1-3.28,2c-1.74,0-3.41-.84-3.41-3.85v-7.5h1.8V247c0,1.45.46,2.62,2.16,2.62s2.68-1.08,2.68-3.54v-6.23h1.85v8Z" transform="translate(-4.75)"/><path class="cls-2" d="M407.9,247.48a4.29,4.29,0,0,1-4.49,3.79c-3.12,0-4.71-2.09-4.71-5.81,0-3.23,1.63-5.79,4.82-5.79a4.08,4.08,0,0,1,4.36,3.89h-1.83a2.51,2.51,0,0,0-2.55-2.4c-2,0-2.93,1.78-2.93,4.25,0,2.86,1,4.36,2.9,4.36,1.54,0,2.2-1,2.6-2.29h1.83Z" transform="translate(-4.75)"/><path class="cls-2" d="M409.06,239.89h1.78v-3.23h1.83v3.23h2.24v1.5h-2.24v7c0,0.95.24,1.34,1.19,1.34a4.91,4.91,0,0,0,.86-0.09V251a4.85,4.85,0,0,1-1.45.18c-1.63,0-2.42-.62-2.42-2.46v-7.33h-1.78v-1.5Z" transform="translate(-4.75)"/><path class="cls-2" d="M422.48,235.86h5c3.85,0,6.78,2.44,6.78,7.22,0,5-2.57,8-7,8h-4.71V235.86Zm1.89,13.62h2.73c3.48,0,5.15-2.35,5.15-6.34,0-3.7-2-5.72-5.13-5.72h-2.75v12.06Z" transform="translate(-4.75)"/><path class="cls-2" d="M446,245.28c0,3.23-1.41,6-5,6s-4.84-2.84-4.84-5.9,1.61-5.68,5-5.68C444.33,239.67,446,242.07,446,245.28Zm-7.94,0c0,2.55,1.06,4.4,3.06,4.4s3-1.8,3-4.42c0-2.44-1-4.12-3-4.12S438.08,242.88,438.08,245.32Z" transform="translate(-4.75)"/><path class="cls-2" d="M456.91,247.48a4.29,4.29,0,0,1-4.49,3.79c-3.12,0-4.71-2.09-4.71-5.81,0-3.23,1.63-5.79,4.82-5.79a4.08,4.08,0,0,1,4.36,3.89h-1.83a2.51,2.51,0,0,0-2.55-2.4c-2,0-2.93,1.78-2.93,4.25,0,2.86,1,4.36,2.9,4.36,1.54,0,2.2-1,2.6-2.29h1.83Z" transform="translate(-4.75)"/><path class="cls-4" d="M11.06,37.48h1.85V42A2.15,2.15,0,0,1,15,40.86c1.85,0,2.7,1.6,2.7,4.56s-0.74,5-3,5a1.89,1.89,0,0,1-1.91-1.12c0,0.23,0,.65,0,1H11c0-.58,0-1.58,0-2.57V37.48Zm3.35,5c-1.17,0-1.55.94-1.55,3.22s0.32,3.15,1.46,3.15,1.53-1,1.53-3.4C15.85,43.47,15.49,42.46,14.41,42.46Z" transform="translate(-4.75)"/><path class="cls-4" d="M19.25,44.16c0-1.49,0-2.47,0-3.13H21a15.53,15.53,0,0,1,.05,1.57,2.39,2.39,0,0,1,2.43-1.71V43c-1.53,0-2.38.63-2.38,2.36v5H19.25V44.16Z" transform="translate(-4.75)"/><path class="cls-4" d="M30.3,48.39c0,0.5.05,1.51,0.07,1.89H28.68a6.32,6.32,0,0,1-.09-0.92,2.2,2.2,0,0,1-2.12,1.08A2.45,2.45,0,0,1,24,47.72c0-1.84,1.26-3,3.64-3a5.57,5.57,0,0,1,.83,0v-1.1a1.08,1.08,0,0,0-1.13-1.31,1.14,1.14,0,0,0-1.21,1.31H24.38c0-1.35.67-2.77,3-2.77,1.91,0,2.88.9,2.88,2.65v4.88ZM28.52,46.1a4.71,4.71,0,0,0-.77,0c-1.35,0-1.87.65-1.87,1.49a1.19,1.19,0,0,0,1.19,1.35c1.17,0,1.46-.86,1.46-2.43V46.1Z" transform="translate(-4.75)"/><path class="cls-4" d="M32.32,43.9c0-1.91,0-2.41,0-2.88h1.8a7.82,7.82,0,0,1,.05,1,2.17,2.17,0,0,1,2.11-1.21c1.44,0,2.38.88,2.38,2.81v6.61H36.77V44.08c0-1-.25-1.62-1.17-1.62s-1.4.58-1.4,2.16v5.65H32.32V43.9Z" transform="translate(-4.75)"/><path class="cls-4" d="M46.58,47.25a3,3,0,0,1-3.15,3.19c-2.58,0-3.24-2.12-3.24-4.86,0-2.5.83-4.72,3.35-4.72a2.89,2.89,0,0,1,3,3.08H44.69c0-.36-0.09-1.53-1.17-1.53s-1.44,1.19-1.44,3.19,0.38,3.28,1.4,3.28,1.22-1.12,1.28-1.62h1.82Z" transform="translate(-4.75)"/><path class="cls-4" d="M49.83,37.48V42A2.18,2.18,0,0,1,52,40.86c1.48,0,2.32.94,2.32,2.86v6.55H52.41V44.1c0-1-.22-1.64-1.21-1.64s-1.37.83-1.37,2.2v5.62H48V37.48h1.85Z" transform="translate(-4.75)"/><path class="cls-4" d="M60.15,37.4A13.2,13.2,0,0,0,57.84,45a13.9,13.9,0,0,0,2.3,7.76H58.42A13.77,13.77,0,0,1,56.17,45a13.5,13.5,0,0,1,2.25-7.56h1.73Z" transform="translate(-4.75)"/><path class="cls-4" d="M62.43,46.1c0,1.39.2,2.79,1.48,2.79a1.38,1.38,0,0,0,1.39-1.37h1.8a3.09,3.09,0,0,1-3.22,2.94c-2.9,0-3.31-2.52-3.31-4.84,0-2.93,1.08-4.75,3.37-4.75,2.61,0,3.24,2,3.24,4.39,0,0.27,0,.67,0,0.85h-4.7Zm2.88-1.37c0-1.13-.18-2.32-1.39-2.32-1.39,0-1.46,1.66-1.48,2.32h2.86Z" transform="translate(-4.75)"/><path class="cls-4" d="M70,47.52A1.34,1.34,0,0,0,71.36,49a1.06,1.06,0,0,0,1.19-1.15c0-.76-0.36-1.13-1.49-1.57-2.09-.77-2.63-1.51-2.63-2.85a2.54,2.54,0,0,1,2.88-2.57,2.61,2.61,0,0,1,2.9,2.79H72.4a1.17,1.17,0,0,0-1.15-1.35,0.93,0.93,0,0,0-1,1c0,0.63.32,0.94,1.49,1.37,1.91,0.72,2.66,1.44,2.66,3,0,1.78-1.12,2.81-3.13,2.81a2.78,2.78,0,0,1-3.1-2.92H70Z" transform="translate(-4.75)"/><path class="cls-4" d="M75.07,52.75a13.32,13.32,0,0,0,2.29-7.56,14.14,14.14,0,0,0-2.29-7.78h1.71A13.88,13.88,0,0,1,79,45.2a13.48,13.48,0,0,1-2.25,7.54H75.07Z" transform="translate(-4.75)"/><rect class="cls-3" x="564.04" y="40.6" width="146.01" height="28" rx="7.03" ry="7.03"/><path class="cls-4" d="M11,72V62.11c0-1.26,0-2.11,0-2.68h1.8a8.76,8.76,0,0,1,.05,1.1A2.1,2.1,0,0,1,15,59.26c1.73,0,2.7,1.51,2.7,4.65,0,3.51-1.19,5-3,5a1.87,1.87,0,0,1-1.82-1V72H11Zm3.28-11.18c-1.19,0-1.48,1.13-1.48,3.08,0,2.14.14,3.31,1.44,3.31,1,0,1.53-1.15,1.53-3.26S15.33,60.87,14.32,60.87Z" transform="translate(-4.75)"/><path class="cls-4" d="M19.27,62.56c0-1.49,0-2.47,0-3.13H21A15.53,15.53,0,0,1,21.09,61a2.39,2.39,0,0,1,2.43-1.71v2.07c-1.53,0-2.38.63-2.38,2.36v5H19.27V62.56Z" transform="translate(-4.75)"/><path class="cls-4" d="M31,64c0,3.33-1.19,4.9-3.4,4.9S24.27,67.35,24.27,64s1.35-4.74,3.46-4.74S31,60.87,31,64Zm-4.88,0c0,2.16.43,3.28,1.51,3.28s1.48-1.12,1.48-3.26-0.43-3.17-1.48-3.17S26.16,61.84,26.16,64Z" transform="translate(-4.75)"/><path class="cls-4" d="M38.87,55.88v10.3c0,1,0,2,0,2.5h-1.8c0-.23-0.05-0.76-0.05-1.08a2,2,0,0,1-2.11,1.24c-1.93,0-2.72-1.71-2.72-4.88,0-2.86,1-4.7,3.06-4.7a1.71,1.71,0,0,1,1.73.81v-4.2h1.87ZM35.54,67.24c1.22,0,1.51-1,1.51-3.31s-0.23-3.06-1.4-3.06c-1,0-1.55.77-1.55,3.13S34.57,67.24,35.54,67.24Z" transform="translate(-4.75)"/><path class="cls-4" d="M47.1,66c0,1.3,0,2.2,0,2.66H45.33a8.38,8.38,0,0,1-.09-1.08,2.06,2.06,0,0,1-2.11,1.24c-1.22,0-2.3-.58-2.3-2.77V59.43H42.7v6.21c0,1,.23,1.6,1.1,1.6s1.42-.5,1.42-2.16V59.43H47.1V66Z" transform="translate(-4.75)"/><path class="cls-4" d="M55,65.66a3,3,0,0,1-3.15,3.19c-2.57,0-3.24-2.12-3.24-4.86,0-2.5.83-4.72,3.35-4.72a2.89,2.89,0,0,1,3,3.08H53.13c0-.36-0.09-1.53-1.17-1.53S50.52,62,50.52,64s0.38,3.28,1.4,3.28,1.22-1.12,1.28-1.62H55Z" transform="translate(-4.75)"/><path class="cls-4" d="M55.75,59.43H57V57.07h1.85v2.36h1.49V61H58.85v5.4c0,0.58.11,0.9,0.79,0.9a2.63,2.63,0,0,0,.56,0v1.39a3.31,3.31,0,0,1-1.22.18c-1.35,0-2-.5-2-2.11V61H55.75V59.43Z" transform="translate(-4.75)"/><path class="cls-4" d="M65.42,55.81a13.2,13.2,0,0,0-2.3,7.58,13.9,13.9,0,0,0,2.3,7.76H63.69a13.77,13.77,0,0,1-2.25-7.78,13.5,13.5,0,0,1,2.25-7.56h1.73Z" transform="translate(-4.75)"/><path class="cls-4" d="M67.6,65.93a1.34,1.34,0,0,0,1.35,1.48,1.06,1.06,0,0,0,1.19-1.15c0-.76-0.36-1.13-1.49-1.57C66.55,63.91,66,63.17,66,61.84a2.54,2.54,0,0,1,2.88-2.57,2.61,2.61,0,0,1,2.9,2.79H70a1.17,1.17,0,0,0-1.15-1.35,0.93,0.93,0,0,0-1,1c0,0.63.32,0.94,1.49,1.37C71.23,63.8,72,64.52,72,66c0,1.78-1.12,2.81-3.13,2.81a2.77,2.77,0,0,1-3.1-2.92H67.6Z" transform="translate(-4.75)"/><path class="cls-4" d="M72.65,71.15a13.32,13.32,0,0,0,2.29-7.56,14.14,14.14,0,0,0-2.29-7.78h1.71a13.88,13.88,0,0,1,2.25,7.8,13.48,13.48,0,0,1-2.25,7.54H72.65Z" transform="translate(-4.75)"/><rect class="cls-3" x="564.04" y="122.61" width="146.01" height="28" rx="7.03" ry="7.03"/><path class="cls-2" d="M576.44,142.75v-16h1.83v16h-1.83Z" transform="translate(-4.75)"/><path class="cls-2" d="M580,131.59h1.78v-3.23h1.83v3.23h2.25v1.5h-2.25v7c0,0.95.24,1.34,1.19,1.34a4.91,4.91,0,0,0,.86-0.09v1.39a4.88,4.88,0,0,1-1.45.18c-1.63,0-2.42-.62-2.42-2.46v-7.33H580v-1.5Z" transform="translate(-4.75)"/><path class="cls-2" d="M596.51,126.73v13.11c0,1.08,0,2.22,0,2.9h-1.78c0-.29-0.07-1-0.07-1.65-0.59,1.3-1.5,1.85-3.32,1.85-2.88,0-4.33-2.44-4.33-5.77s1.67-5.81,4.71-5.81c1.8,0,2.64.73,2.95,1.34v-6h1.8Zm-4.64,14.65c2.4,0,2.9-1.83,2.9-4.44,0-3.08-.9-4-2.79-4s-3,1.5-3,4.16S590.1,141.39,591.86,141.39Z" transform="translate(-4.75)"/><path class="cls-2" d="M604.47,136.28v1.63h-5.35v-1.63h5.35Z" transform="translate(-4.75)"/><path class="cls-2" d="M608.89,136.81c1-1.14,3.26-3.63,4.6-5.21h2.13c-1.23,1.41-2.6,2.82-3.89,4.25,1.34,2.13,2.95,4.75,4.33,6.91h-2.13c-0.9-1.47-2.44-4-3.43-5.68-0.31.33-1.3,1.32-1.61,1.63v4h-1.83v-16h1.83v10.08Z" transform="translate(-4.75)"/><path class="cls-2" d="M618.46,137.51c0,2.25.95,3.92,2.9,3.92a2.56,2.56,0,0,0,2.57-1.83h1.78a4.26,4.26,0,0,1-4.44,3.37c-3.48,0-4.67-2.75-4.67-5.83,0-2.75,1.34-5.76,4.77-5.76s4.51,2.73,4.51,5.3v0.84h-7.44Zm5.63-1.32c0-1.91-.81-3.34-2.75-3.34-2.2,0-2.73,2-2.84,3.34h5.59Z" transform="translate(-4.75)"/><path class="cls-2" d="M629.53,137.51c0,2.25.95,3.92,2.9,3.92A2.56,2.56,0,0,0,635,139.6h1.78a4.26,4.26,0,0,1-4.44,3.37c-3.48,0-4.67-2.75-4.67-5.83,0-2.75,1.34-5.76,4.77-5.76s4.51,2.73,4.51,5.3v0.84h-7.44Zm5.63-1.32c0-1.91-.81-3.34-2.75-3.34-2.2,0-2.73,2-2.84,3.34h5.59Z" transform="translate(-4.75)"/><path class="cls-2" d="M639.38,147.17v-12.3c0-1.52,0-2.6,0-3.28h1.8c0,0.37,0,1.17,0,1.8a3.59,3.59,0,0,1,3.48-2c2.44,0,4.18,1.91,4.18,5.61s-2,5.94-4.62,5.94a3.17,3.17,0,0,1-3-1.52v5.77h-1.8ZM644.09,133c-2.29,0-3,1.56-3,4.25,0,2.46.46,4.16,2.86,4.16,1.87,0,3-1.54,3-4.31S645.87,133,644.09,133Z" transform="translate(-4.75)"/><path class="cls-2" d="M652.38,137.51c0,2.25.95,3.92,2.9,3.92a2.56,2.56,0,0,0,2.57-1.83h1.78A4.26,4.26,0,0,1,655.2,143c-3.48,0-4.67-2.75-4.67-5.83,0-2.75,1.34-5.76,4.77-5.76s4.51,2.73,4.51,5.3v0.84h-7.44Zm5.63-1.32c0-1.91-.81-3.34-2.75-3.34-2.2,0-2.73,2-2.84,3.34H658Z" transform="translate(-4.75)"/><path class="cls-2" d="M662.24,135.38c0-1.78,0-3.23,0-3.79H664c0,0.53,0,1.23,0,2.27a3.74,3.74,0,0,1,3.61-2.46v1.89c-2.51.09-3.56,1.56-3.56,4v5.48h-1.83v-7.37Z" transform="translate(-4.75)"/><path class="cls-2" d="M674.08,136.28v1.63h-5.35v-1.63h5.35Z" transform="translate(-4.75)"/><path class="cls-2" d="M685.78,126.73v13.11c0,1.08,0,2.22,0,2.9H684c0-.29-0.07-1-0.07-1.65-0.59,1.3-1.5,1.85-3.32,1.85-2.88,0-4.33-2.44-4.33-5.77s1.67-5.81,4.71-5.81c1.8,0,2.64.73,2.95,1.34v-6h1.8Zm-4.64,14.65c2.4,0,2.9-1.83,2.9-4.44,0-3.08-.9-4-2.79-4s-3,1.5-3,4.16S679.38,141.39,681.14,141.39Z" transform="translate(-4.75)"/><path class="cls-2" d="M689,126.73h1.83v6.4a3.59,3.59,0,0,1,3.34-1.76c2.71,0,4.29,2.22,4.29,5.46,0,3.39-1.43,6.12-4.62,6.12a3.07,3.07,0,0,1-3-1.61,10.31,10.31,0,0,1-.07,1.41H689c0-.62,0-1.78,0-3.17V126.73Zm4.73,6.23c-2.22,0-3,1.43-3,4.07s0.64,4.33,2.95,4.33c2,0,2.93-1.85,2.93-4.47C696.6,134.54,695.66,133,693.74,133Z" transform="translate(-4.75)"/><path class="cls-2" d="M576.44,61.05V45h1.83v16h-1.83Z" transform="translate(-4.75)"/><path class="cls-2" d="M580,49.9h1.78V46.66h1.83V49.9h2.24v1.5h-2.24v7c0,0.95.24,1.34,1.19,1.34a4.91,4.91,0,0,0,.86-0.09V61a4.86,4.86,0,0,1-1.45.18c-1.63,0-2.42-.62-2.42-2.46V51.39H580V49.9Z" transform="translate(-4.75)"/><path class="cls-2" d="M596.51,45V58.15c0,1.08,0,2.22,0,2.9h-1.78c0-.29-0.07-1-0.07-1.65-0.59,1.3-1.5,1.85-3.32,1.85-2.88,0-4.33-2.44-4.33-5.77s1.67-5.81,4.71-5.81c1.8,0,2.64.73,2.95,1.34V45h1.8Zm-4.64,14.65c2.4,0,2.9-1.83,2.9-4.44,0-3.08-.9-4-2.79-4s-3,1.5-3,4.16S590.1,59.69,591.86,59.69Z" transform="translate(-4.75)"/><path class="cls-2" d="M604.47,54.58v1.63h-5.35V54.58h5.35Z" transform="translate(-4.75)"/><path class="cls-2" d="M608.89,55.11c1-1.14,3.26-3.63,4.6-5.21h2.13c-1.23,1.41-2.6,2.82-3.89,4.25,1.34,2.13,2.95,4.75,4.33,6.91h-2.13c-0.9-1.47-2.44-4-3.43-5.68-0.31.33-1.3,1.32-1.61,1.63v4h-1.83V45h1.83V55.11Z" transform="translate(-4.75)"/><path class="cls-2" d="M618.46,55.81c0,2.24.95,3.92,2.9,3.92a2.56,2.56,0,0,0,2.57-1.83h1.78a4.26,4.26,0,0,1-4.44,3.37c-3.48,0-4.67-2.75-4.67-5.83,0-2.75,1.34-5.76,4.78-5.76s4.51,2.73,4.51,5.3v0.84h-7.44Zm5.63-1.32c0-1.91-.81-3.34-2.75-3.34-2.2,0-2.73,2-2.84,3.34h5.59Z" transform="translate(-4.75)"/><path class="cls-2" d="M629.53,55.81c0,2.24.95,3.92,2.9,3.92A2.56,2.56,0,0,0,635,57.9h1.78a4.26,4.26,0,0,1-4.44,3.37c-3.48,0-4.67-2.75-4.67-5.83,0-2.75,1.34-5.76,4.78-5.76S637,52.4,637,55v0.84h-7.44Zm5.63-1.32c0-1.91-.81-3.34-2.75-3.34-2.2,0-2.73,2-2.84,3.34h5.59Z" transform="translate(-4.75)"/><path class="cls-2" d="M639.38,65.47V53.17c0-1.52,0-2.6,0-3.28h1.8c0,0.37,0,1.17,0,1.8a3.59,3.59,0,0,1,3.48-2c2.44,0,4.18,1.91,4.18,5.61s-2,5.94-4.62,5.94a3.18,3.18,0,0,1-3-1.52v5.77h-1.8Zm4.71-14.21c-2.29,0-3,1.56-3,4.25,0,2.46.46,4.16,2.86,4.16,1.87,0,3-1.54,3-4.31S645.87,51.26,644.09,51.26Z" transform="translate(-4.75)"/><path class="cls-2" d="M652.38,55.81c0,2.24.95,3.92,2.9,3.92a2.56,2.56,0,0,0,2.57-1.83h1.78a4.26,4.26,0,0,1-4.44,3.37c-3.48,0-4.67-2.75-4.67-5.83,0-2.75,1.34-5.76,4.78-5.76s4.51,2.73,4.51,5.3v0.84h-7.44ZM658,54.49c0-1.91-.81-3.34-2.75-3.34-2.2,0-2.73,2-2.84,3.34H658Z" transform="translate(-4.75)"/><path class="cls-2" d="M662.24,53.68c0-1.78,0-3.23,0-3.78H664c0,0.53,0,1.23,0,2.27a3.74,3.74,0,0,1,3.61-2.46v1.89c-2.51.09-3.56,1.56-3.56,4v5.48h-1.83V53.68Z" transform="translate(-4.75)"/><path class="cls-2" d="M674.08,54.58v1.63h-5.35V54.58h5.35Z" transform="translate(-4.75)"/><path class="cls-2" d="M684.59,58.56a21,21,0,0,0,.15,2.49H683.1a10.16,10.16,0,0,1-.15-1.72,3.32,3.32,0,0,1-3.39,1.91A3.2,3.2,0,0,1,676,57.86c0-1.67,1.08-3.54,5.06-3.54h1.72V53.24c0-1.06-.31-2.16-2.2-2.16a2,2,0,0,0-2.35,2h-1.78c0.15-1.87,1.23-3.39,4.2-3.39,2.33,0,3.94.95,3.94,3.48v5.41Zm-1.76-2.93h-1.76c-2.71,0-3.21,1.1-3.21,2.11a1.89,1.89,0,0,0,2.07,2c2.2,0,2.9-1.5,2.9-3.87V55.64Z" transform="translate(-4.75)"/><path class="cls-2" d="M687.8,65.47V53.17c0-1.52,0-2.6,0-3.28h1.8c0,0.37,0,1.17,0,1.8a3.59,3.59,0,0,1,3.48-2c2.44,0,4.18,1.91,4.18,5.61s-2,5.94-4.62,5.94a3.18,3.18,0,0,1-3-1.52v5.77h-1.8Zm4.71-14.21c-2.29,0-3,1.56-3,4.25,0,2.46.46,4.16,2.86,4.16,1.87,0,3-1.54,3-4.31S694.29,51.26,692.51,51.26Z" transform="translate(-4.75)"/><path class="cls-2" d="M699.7,65.47V53.17c0-1.52,0-2.6,0-3.28h1.8c0,0.37,0,1.17,0,1.8a3.59,3.59,0,0,1,3.48-2c2.44,0,4.18,1.91,4.18,5.61s-2,5.94-4.62,5.94a3.17,3.17,0,0,1-3-1.52v5.77h-1.8Zm4.71-14.21c-2.29,0-3,1.56-3,4.25,0,2.46.46,4.16,2.86,4.16,1.87,0,3-1.54,3-4.31S706.2,51.26,704.41,51.26Z" transform="translate(-4.75)"/><path class="cls-2" d="M118.89,235.86H124c2.82,0,4.91,1.45,4.91,4.2,0,3-2.09,4.44-5.17,4.44h-2.95V251h-1.89V235.86Zm1.89,7.08h2.88c2,0,3.3-.68,3.3-2.86,0-1.83-1.32-2.66-3.28-2.66h-2.9v5.52Z" transform="translate(-4.75)"/><path class="cls-2" d="M138.63,248.56a20.93,20.93,0,0,0,.15,2.49h-1.65a10.15,10.15,0,0,1-.15-1.72,3.31,3.31,0,0,1-3.39,1.91,3.2,3.2,0,0,1-3.54-3.39c0-1.67,1.08-3.54,5.06-3.54h1.72v-1.08c0-1.06-.31-2.16-2.2-2.16a2,2,0,0,0-2.35,2h-1.78c0.15-1.87,1.23-3.39,4.2-3.39,2.33,0,3.94.95,3.94,3.48v5.41Zm-1.76-2.93h-1.76c-2.71,0-3.21,1.1-3.21,2.11a1.89,1.89,0,0,0,2.07,2c2.2,0,2.9-1.5,2.9-3.87v-0.24Z" transform="translate(-4.75)"/><path class="cls-2" d="M150.29,247.48a4.29,4.29,0,0,1-4.49,3.79c-3.12,0-4.71-2.09-4.71-5.81,0-3.23,1.63-5.79,4.82-5.79a4.08,4.08,0,0,1,4.36,3.89h-1.83a2.51,2.51,0,0,0-2.55-2.4c-2,0-2.93,1.78-2.93,4.25,0,2.86,1,4.36,2.9,4.36,1.54,0,2.2-1,2.6-2.29h1.83Z" transform="translate(-4.75)"/><path class="cls-2" d="M154.38,245.1c1-1.14,3.26-3.63,4.6-5.21h2.13c-1.23,1.41-2.6,2.82-3.89,4.25,1.34,2.13,2.95,4.75,4.33,6.91h-2.13c-0.9-1.47-2.44-4-3.43-5.68-0.31.33-1.3,1.32-1.61,1.63v4h-1.83V235h1.83V245.1Z" transform="translate(-4.75)"/><path class="cls-2" d="M171.05,248.56a20.93,20.93,0,0,0,.15,2.49h-1.65a10.15,10.15,0,0,1-.15-1.72,3.31,3.31,0,0,1-3.39,1.91,3.2,3.2,0,0,1-3.54-3.39c0-1.67,1.08-3.54,5.06-3.54h1.72v-1.08c0-1.06-.31-2.16-2.2-2.16a2,2,0,0,0-2.35,2h-1.78c0.15-1.87,1.23-3.39,4.2-3.39,2.33,0,3.94.95,3.94,3.48v5.41Zm-1.76-2.93h-1.76c-2.71,0-3.21,1.1-3.21,2.11a1.89,1.89,0,0,0,2.07,2c2.2,0,2.9-1.5,2.9-3.87v-0.24Z" transform="translate(-4.75)"/><path class="cls-2" d="M182.89,250.19c0,3.5-1.41,5.46-4.8,5.46s-4.25-1.76-4.4-3.34h1.8c0.26,1.25,1.25,1.85,2.68,1.85,2.38,0,2.93-1.56,2.93-4v-0.9c-0.57,1.23-1.54,1.83-3.28,1.83-2.62,0-4.31-2.2-4.31-5.66,0-3.61,2-5.74,4.58-5.74,1.76,0,2.66.73,3,1.58a10.31,10.31,0,0,1,.09-1.36h1.78c0,0.53,0,1.72,0,3.23v7.06Zm-4.62-.7c2.13,0,2.88-1.34,2.88-4.14s-0.62-4.09-2.77-4.09c-1.85,0-3,1.54-3,4.14S176.51,249.48,178.27,249.48Z" transform="translate(-4.75)"/><path class="cls-2" d="M187.18,245.81c0,2.24.95,3.92,2.9,3.92a2.56,2.56,0,0,0,2.57-1.83h1.78a4.26,4.26,0,0,1-4.44,3.37c-3.48,0-4.67-2.75-4.67-5.83,0-2.75,1.34-5.76,4.77-5.76s4.51,2.73,4.51,5.3v0.84h-7.44Zm5.63-1.32c0-1.91-.81-3.34-2.75-3.34-2.2,0-2.73,2-2.84,3.34h5.59Z" transform="translate(-4.75)"/><path class="cls-2" d="M201.54,251v-0.11c0-1.56.84-3.85,4.16-6.56,2.11-1.76,2.95-2.44,2.95-4.16a2.34,2.34,0,0,0-2.46-2.57c-1.8,0-2.55,1.14-2.77,2.9h-1.76c0.15-2.33,1.45-4.42,4.6-4.42,2.9,0,4.29,1.87,4.29,4s-1,3.23-3.61,5.32a9.59,9.59,0,0,0-3.19,4H211L210.74,251h-9.2Z" transform="translate(-4.75)"/><path class="cls-2" d="M118.89,283.53H124c2.82,0,4.91,1.45,4.91,4.2,0,3-2.09,4.44-5.17,4.44h-2.95v6.54h-1.89V283.53Zm1.89,7.08h2.88c2,0,3.3-.68,3.3-2.86,0-1.83-1.32-2.66-3.28-2.66h-2.9v5.52Z" transform="translate(-4.75)"/><path class="cls-2" d="M138.63,296.23a20.93,20.93,0,0,0,.15,2.49h-1.65A10.15,10.15,0,0,1,137,297a3.31,3.31,0,0,1-3.39,1.91,3.2,3.2,0,0,1-3.54-3.39c0-1.67,1.08-3.54,5.06-3.54h1.72v-1.08c0-1.06-.31-2.16-2.2-2.16a2,2,0,0,0-2.35,2h-1.78c0.15-1.87,1.23-3.39,4.2-3.39,2.33,0,3.94.95,3.94,3.48v5.41Zm-1.76-2.93h-1.76c-2.71,0-3.21,1.1-3.21,2.11a1.89,1.89,0,0,0,2.07,2c2.2,0,2.9-1.5,2.9-3.87V293.3Z" transform="translate(-4.75)"/><path class="cls-2" d="M150.29,295.15a4.29,4.29,0,0,1-4.49,3.79c-3.12,0-4.71-2.09-4.71-5.81,0-3.23,1.63-5.79,4.82-5.79a4.08,4.08,0,0,1,4.36,3.89h-1.83a2.51,2.51,0,0,0-2.55-2.4c-2,0-2.93,1.78-2.93,4.25,0,2.86,1,4.36,2.9,4.36,1.54,0,2.2-1,2.6-2.29h1.83Z" transform="translate(-4.75)"/><path class="cls-2" d="M154.38,292.78c1-1.14,3.26-3.63,4.6-5.21h2.13c-1.23,1.41-2.6,2.82-3.89,4.25,1.34,2.13,2.95,4.75,4.33,6.91h-2.13c-0.9-1.47-2.44-4-3.43-5.68-0.31.33-1.3,1.32-1.61,1.63v4h-1.83v-16h1.83v10.08Z" transform="translate(-4.75)"/><path class="cls-2" d="M171.05,296.23a20.93,20.93,0,0,0,.15,2.49h-1.65a10.15,10.15,0,0,1-.15-1.72,3.31,3.31,0,0,1-3.39,1.91,3.2,3.2,0,0,1-3.54-3.39c0-1.67,1.08-3.54,5.06-3.54h1.72v-1.08c0-1.06-.31-2.16-2.2-2.16a2,2,0,0,0-2.35,2h-1.78c0.15-1.87,1.23-3.39,4.2-3.39,2.33,0,3.94.95,3.94,3.48v5.41Zm-1.76-2.93h-1.76c-2.71,0-3.21,1.1-3.21,2.11a1.89,1.89,0,0,0,2.07,2c2.2,0,2.9-1.5,2.9-3.87V293.3Z" transform="translate(-4.75)"/><path class="cls-2" d="M182.89,297.86c0,3.5-1.41,5.46-4.8,5.46s-4.25-1.76-4.4-3.34h1.8c0.26,1.25,1.25,1.85,2.68,1.85,2.38,0,2.93-1.56,2.93-4v-0.9c-0.57,1.23-1.54,1.83-3.28,1.83-2.62,0-4.31-2.2-4.31-5.66,0-3.61,2-5.74,4.58-5.74,1.76,0,2.66.73,3,1.58a10.31,10.31,0,0,1,.09-1.36h1.78c0,0.53,0,1.72,0,3.23v7.06Zm-4.62-.7c2.13,0,2.88-1.34,2.88-4.14s-0.62-4.09-2.77-4.09c-1.85,0-3,1.54-3,4.14S176.51,297.15,178.27,297.15Z" transform="translate(-4.75)"/><path class="cls-2" d="M187.18,293.48c0,2.24.95,3.92,2.9,3.92a2.56,2.56,0,0,0,2.57-1.83h1.78a4.26,4.26,0,0,1-4.44,3.37c-3.48,0-4.67-2.75-4.67-5.83,0-2.75,1.34-5.76,4.77-5.76s4.51,2.73,4.51,5.3v0.84h-7.44Zm5.63-1.32c0-1.91-.81-3.34-2.75-3.34-2.2,0-2.73,2-2.84,3.34h5.59Z" transform="translate(-4.75)"/><path class="cls-2" d="M202.45,291.06c0-2.33,0-3,0-3.5h1.78a13.21,13.21,0,0,1,.07,1.74,3.42,3.42,0,0,1,3.3-2c2.07,0,3.54,1.17,3.54,4.18v7.19h-1.83v-6.91c0-1.63-.55-2.86-2.22-2.86-2,0-2.77,1.47-2.77,3.81v6h-1.83v-7.66Z" transform="translate(-4.75)"/><line class="cls-5" x1="249.25" y1="55.15" x2="335.25" y2="55.15"/><polygon class="cls-2" points="344.25 54.65 331.32 59.94 334.39 54.65 331.32 49.37 344.25 54.65"/><rect class="cls-2" x="271.16" y="43.06" width="51.44" height="23.09" rx="6.14" ry="6.14"/><path class="cls-4" d="M287.26,60.8V56.37a0.76,0.76,0,0,0-.07-0.36l-3.08-7.42h2.11c0.74,2,1.69,4.5,2.05,5.76,0.45-1.39,1.4-3.89,2.07-5.76h2L289.22,56a0.93,0.93,0,0,0-.05.38V60.8h-1.91Z" transform="translate(-4.75)"/><path class="cls-4" d="M293.9,57.45l-0.7,3.35h-1.89l2.86-12.21h2.45l2.92,12.21h-2l-0.72-3.35H293.9Zm2.59-1.66c-0.54-2.56-.94-4.34-1.12-5.44h-0.05c-0.14,1.12-.58,3.06-1.08,5.44h2.25Z" transform="translate(-4.75)"/><path class="cls-4" d="M308.14,56c0-2.14,0-4.48.07-5.83h-0.05c-0.43,2.23-1.24,6.68-2.11,10.61h-1.73c-0.65-3.57-1.51-8.32-1.91-10.64h-0.07c0.07,1.42.13,4,.13,6.12V60.8h-1.75V48.59h2.83c0.76,3.53,1.46,7.36,1.73,9.09h0c0.23-1.55,1.13-5.71,1.89-9.09H310V60.8h-1.82V56Z" transform="translate(-4.75)"/><path class="cls-4" d="M312.17,48.59h1.89V59.18h4.23l-0.2,1.62h-5.92V48.59Z" transform="translate(-4.75)"/><line class="cls-5" x1="83.25" y1="55.15" x2="100.25" y2="55.15"/><polygon class="cls-2" points="109.25 55.15 96.32 60.44 99.39 55.15 96.32 49.87 109.25 55.15"/><line class="cls-5" x1="777.25" y1="257.15" x2="849.25" y2="257.15"/><polygon class="cls-2" points="858.2 257.15 845.27 262.44 848.34 257.15 845.27 251.87 858.2 257.15"/><rect class="cls-2" x="787.16" y="244.08" width="51.44" height="23.09" rx="6.14" ry="6.14"/><path class="cls-4" d="M801.39,249.62h1.89v5h3.29v-5h1.89v12.21h-1.89v-5.62h-3.29v5.62h-1.89V249.62Z" transform="translate(-4.75)"/><path class="cls-4" d="M812.28,251.29h-2.65v-1.67h7.18v1.67h-2.65v10.53h-1.89V251.29Z" transform="translate(-4.75)"/><path class="cls-4" d="M820.2,251.29h-2.65v-1.67h7.18v1.67h-2.65v10.53H820.2V251.29Z" transform="translate(-4.75)"/><path class="cls-4" d="M826,249.62h3.49a3.57,3.57,0,0,1-.18,7.13h-1.42v5.08H826V249.62Zm1.89,5.6h1.21c1.3,0,1.91-.67,1.91-2.07a1.7,1.7,0,0,0-1.78-2h-1.33v4Z" transform="translate(-4.75)"/><polyline class="cls-5" points="710.25 49.15 899.25 49.15 899.25 232.15"/><polygon class="cls-2" points="899.25 241.15 893.97 228.22 899.25 231.29 904.53 228.22 899.25 241.15"/><rect class="cls-2" x="873.42" y="150.97" width="51.44" height="23.09" rx="6.14" ry="6.14"/><path class="cls-4" d="M889,156.5h1.89v5h3.29v-5H896v12.21h-1.89v-5.62h-3.29v5.62H889V156.5Z" transform="translate(-4.75)"/><path class="cls-4" d="M899.86,158.17h-2.65V156.5h7.18v1.67h-2.65v10.53h-1.89V158.17Z" transform="translate(-4.75)"/><path class="cls-4" d="M907.78,158.17h-2.65V156.5h7.18v1.67h-2.65v10.53h-1.89V158.17Z" transform="translate(-4.75)"/><path class="cls-4" d="M913.56,156.5h3.49a3.57,3.57,0,0,1-.18,7.13h-1.42v5.08h-1.89V156.5Zm1.89,5.6h1.21c1.3,0,1.91-.67,1.91-2.07a1.7,1.7,0,0,0-1.78-2h-1.33v4Z" transform="translate(-4.75)"/><line class="cls-5" x1="160.25" y1="201.15" x2="160.25" y2="78.15"/><polygon class="cls-2" points="160.25 69.15 165.54 82.09 160.25 79.02 154.97 82.09 160.25 69.15"/><line class="cls-5" x1="395.25" y1="230.15" x2="395.25" y2="79.15"/><polygon class="cls-2" points="395.25 70.15 400.54 83.09 395.25 80.02 389.97 83.09 395.25 70.15"/><line class="cls-5" x1="637.25" y1="69.15" x2="637.25" y2="114.15"/><polygon class="cls-2" points="637.37 122.61 632.49 110.67 637.37 113.5 642.25 110.67 637.37 122.61"/><line class="cls-5" x1="457.25" y1="50.15" x2="553.25" y2="50.15"/><polygon class="cls-2" points="562.25 50.15 549.32 55.44 552.39 50.15 549.32 44.87 562.25 50.15"/><rect class="cls-2" x="483.16" y="37.06" width="51.44" height="23.09" rx="6.14" ry="6.14"/><path class="cls-4" d="M498.39,42.59h1.89v5h3.29v-5h1.89V54.8h-1.89V49.18h-3.29V54.8h-1.89V42.59Z" transform="translate(-4.75)"/><path class="cls-4" d="M509.28,44.26h-2.65V42.59h7.18v1.67h-2.65V54.8h-1.89V44.26Z" transform="translate(-4.75)"/><path class="cls-4" d="M517.2,44.26h-2.65V42.59h7.18v1.67h-2.65V54.8H517.2V44.26Z" transform="translate(-4.75)"/><path class="cls-4" d="M523,42.59h3.49a3.23,3.23,0,0,1,3.42,3.57,3.25,3.25,0,0,1-3.6,3.57h-1.42V54.8H523V42.59Zm1.89,5.6h1.21c1.3,0,1.91-.67,1.91-2.07a1.7,1.7,0,0,0-1.78-2h-1.33v4Z" transform="translate(-4.75)"/><polyline class="cls-5" points="710.25 61.15 728.25 61.15 728.25 216.15 640.25 216.15"/><polygon class="cls-2" points="631.06 215.87 644 210.58 640.93 215.87 644 221.15 631.06 215.87"/><path class="cls-2" d="M869.27,245.94h1.83v6.4a3.59,3.59,0,0,1,3.34-1.76c2.71,0,4.29,2.22,4.29,5.46,0,3.39-1.43,6.12-4.62,6.12a3.07,3.07,0,0,1-3-1.61A10.31,10.31,0,0,1,871,262h-1.78c0-.62,0-1.78,0-3.17V245.94Zm4.73,6.23c-2.22,0-3,1.43-3,4.07s0.64,4.33,2.95,4.33c2,0,2.93-1.85,2.93-4.47C876.86,253.75,875.92,252.17,874,252.17Z" transform="translate(-4.75)"/><path class="cls-2" d="M881.17,254.59c0-1.78,0-3.23,0-3.78h1.78c0,0.53,0,1.23,0,2.27a3.74,3.74,0,0,1,3.61-2.46v1.89c-2.51.09-3.56,1.56-3.56,4V262h-1.83v-7.37Z" transform="translate(-4.75)"/><path class="cls-2" d="M897.39,256.19c0,3.23-1.41,6-5,6s-4.84-2.84-4.84-5.9,1.61-5.68,5-5.68C895.69,250.58,897.39,253,897.39,256.19Zm-7.94,0c0,2.55,1.06,4.4,3.06,4.4s3-1.8,3-4.42c0-2.44-1-4.12-3-4.12S889.45,253.8,889.45,256.24Z" transform="translate(-4.75)"/><path class="cls-2" d="M900.53,250.8c1.28,4.91,2,7.81,2.31,9.29h0c0.26-1.34.88-3.5,2.46-9.29h1.78c1.5,5.5,2.16,8,2.33,9.2h0c0.24-1.23.88-3.52,2.44-9.2h1.85L910.39,262h-1.91c-1-3.67-2-7.17-2.31-8.87h0c-0.29,1.65-1.3,5.08-2.4,8.87h-2l-3.19-11.16h2Z" transform="translate(-4.75)"/><path class="cls-2" d="M916.48,258.72a2.3,2.3,0,0,0,2.51,2c1.54,0,2.13-.81,2.13-1.76s-0.7-1.54-2.6-2c-2.73-.75-3.43-1.74-3.43-3.23s1-3.1,3.74-3.1,3.74,1.5,3.89,3.21h-1.8a2,2,0,0,0-2.18-1.78c-1.25,0-1.83.59-1.83,1.52s0.42,1.3,2.29,1.78c2.84,0.77,3.74,1.72,3.74,3.5,0,2.07-1.63,3.34-4,3.34s-4-1.1-4.25-3.43h1.8Z" transform="translate(-4.75)"/><path class="cls-2" d="M926.54,256.72c0,2.24.95,3.92,2.9,3.92a2.56,2.56,0,0,0,2.57-1.83h1.78a4.26,4.26,0,0,1-4.44,3.37c-3.48,0-4.67-2.75-4.67-5.83,0-2.75,1.34-5.76,4.78-5.76s4.51,2.73,4.51,5.3v0.84h-7.44Zm5.63-1.32c0-1.91-.81-3.34-2.75-3.34-2.2,0-2.73,2-2.84,3.34h5.59Z" transform="translate(-4.75)"/><path class="cls-2" d="M936.39,254.59c0-1.78,0-3.23,0-3.78h1.78c0,0.53,0,1.23,0,2.27a3.75,3.75,0,0,1,3.61-2.46v1.89c-2.51.09-3.56,1.56-3.56,4V262h-1.83v-7.37Z" transform="translate(-4.75)"/><rect class="cls-6" y="118.08" width="99.29" height="28" rx="5.8" ry="5.8"/><path class="cls-4" d="M18.33,122.59V135.7c0,1.08,0,2.22,0,2.9H16.59c0-.29-0.07-1-0.07-1.65-0.59,1.3-1.5,1.85-3.32,1.85-2.88,0-4.33-2.44-4.33-5.76s1.67-5.81,4.71-5.81c1.8,0,2.64.73,2.95,1.34v-6h1.8Zm-4.64,14.65c2.4,0,2.9-1.83,2.9-4.44,0-3.08-.9-4-2.79-4s-3,1.5-3,4.16S11.92,137.24,13.69,137.24Z" transform="translate(-4.75)"/><path class="cls-4" d="M22.68,133.37c0,2.24.95,3.92,2.9,3.92a2.56,2.56,0,0,0,2.57-1.83h1.78a4.26,4.26,0,0,1-4.44,3.37c-3.48,0-4.67-2.75-4.67-5.83,0-2.75,1.34-5.76,4.77-5.76s4.51,2.73,4.51,5.3v0.84H22.68Zm5.63-1.32c0-1.91-.81-3.34-2.75-3.34-2.2,0-2.73,2-2.84,3.34h5.59Z" transform="translate(-4.75)"/><path class="cls-4" d="M33.22,127.45c1.5,4.73,2.49,7.86,2.84,9.42h0c0.22-1.32,2.16-7,2.95-9.42h1.8L37,138.61H35l-3.72-11.16h2Z" transform="translate(-4.75)"/><path class="cls-4" d="M43.76,133.37c0,2.24.95,3.92,2.9,3.92a2.56,2.56,0,0,0,2.57-1.83H51a4.26,4.26,0,0,1-4.44,3.37c-3.48,0-4.67-2.75-4.67-5.83,0-2.75,1.34-5.76,4.77-5.76s4.51,2.73,4.51,5.3v0.84H43.76Zm5.63-1.32c0-1.91-.81-3.34-2.75-3.34-2.2,0-2.73,2-2.84,3.34h5.59Z" transform="translate(-4.75)"/><path class="cls-4" d="M53.61,138.61v-16h1.83v16H53.61Z" transform="translate(-4.75)"/><path class="cls-4" d="M67.72,132.84c0,3.23-1.41,6-5,6s-4.84-2.84-4.84-5.9,1.61-5.68,5-5.68C66,127.23,67.72,129.63,67.72,132.84Zm-7.94,0c0,2.55,1.06,4.4,3.06,4.4s3-1.8,3-4.42c0-2.44-1-4.12-3-4.12S59.77,130.44,59.77,132.89Z" transform="translate(-4.75)"/><path class="cls-4" d="M70.16,143v-12.3c0-1.52,0-2.6,0-3.28h1.8c0,0.37,0,1.17,0,1.8a3.59,3.59,0,0,1,3.48-2c2.44,0,4.18,1.91,4.18,5.61s-2,5.94-4.62,5.94a3.18,3.18,0,0,1-3-1.52V143h-1.8Zm4.71-14.21c-2.29,0-3,1.56-3,4.25,0,2.46.46,4.16,2.86,4.16,1.87,0,3-1.54,3-4.31S76.65,128.82,74.87,128.82Z" transform="translate(-4.75)"/><path class="cls-4" d="M83.16,133.37c0,2.24.95,3.92,2.9,3.92a2.56,2.56,0,0,0,2.57-1.83h1.78A4.26,4.26,0,0,1,86,138.83c-3.48,0-4.67-2.75-4.67-5.83,0-2.75,1.34-5.76,4.77-5.76s4.51,2.73,4.51,5.3v0.84H83.16Zm5.63-1.32c0-1.91-.81-3.34-2.75-3.34-2.2,0-2.73,2-2.84,3.34h5.59Z" transform="translate(-4.75)"/><path class="cls-4" d="M93,131.24c0-1.78,0-3.23,0-3.78h1.78c0,0.53,0,1.23,0,2.27a3.74,3.74,0,0,1,3.61-2.46v1.89c-2.51.09-3.56,1.56-3.56,4v5.48H93v-7.37Z" transform="translate(-4.75)"/><line class="cls-5" x1="38.25" y1="118.15" x2="38.25" y2="90.15"/><polygon class="cls-2" points="38.25 81.15 43.54 94.09 38.25 91.02 32.97 94.09 38.25 81.15"/><rect class="cls-3" x="519.93" y="198.71" width="106.61" height="28" rx="6.01" ry="6.01"/><path class="cls-2" d="M532.33,223.54v-12.3c0-1.52,0-2.6,0-3.28h1.8c0,0.37,0,1.17,0,1.8a3.59,3.59,0,0,1,3.48-2c2.44,0,4.18,1.91,4.18,5.61s-2,5.94-4.62,5.94a3.18,3.18,0,0,1-3-1.52v5.76h-1.8ZM537,209.33c-2.29,0-3,1.56-3,4.25,0,2.46.46,4.16,2.86,4.16,1.87,0,3-1.54,3-4.31S538.82,209.33,537,209.33Z" transform="translate(-4.75)"/><path class="cls-2" d="M544.23,211.75c0-1.78,0-3.23,0-3.78H546c0,0.53,0,1.23,0,2.27a3.75,3.75,0,0,1,3.61-2.46v1.89c-2.51.09-3.56,1.56-3.56,4v5.48h-1.83v-7.37Z" transform="translate(-4.75)"/><path class="cls-2" d="M560.44,213.36c0,3.23-1.41,6-5,6s-4.84-2.84-4.84-5.9,1.61-5.68,5-5.68C558.75,207.75,560.44,210.14,560.44,213.36Zm-7.94,0c0,2.55,1.06,4.4,3.06,4.4s3-1.8,3-4.42c0-2.44-1-4.12-3-4.12S552.5,211,552.5,213.4Z" transform="translate(-4.75)"/><path class="cls-2" d="M571.55,203.1v13.11c0,1.08,0,2.22,0,2.9h-1.78c0-.29-0.07-1-0.07-1.65-0.59,1.3-1.5,1.85-3.32,1.85-2.88,0-4.33-2.44-4.33-5.76s1.67-5.81,4.71-5.81c1.8,0,2.64.73,2.95,1.34v-6h1.8Zm-4.64,14.65c2.4,0,2.9-1.83,2.9-4.44,0-3.08-.9-4-2.79-4s-3,1.5-3,4.16S565.15,217.76,566.91,217.76Z" transform="translate(-4.75)"/><path class="cls-2" d="M583.15,216c0,1.39,0,2.62,0,3.15h-1.76a11.28,11.28,0,0,1-.09-1.78,3.32,3.32,0,0,1-3.28,2c-1.74,0-3.41-.84-3.41-3.85V208h1.8v7.15c0,1.45.46,2.62,2.16,2.62s2.68-1.08,2.68-3.54V208h1.85v8Z" transform="translate(-4.75)"/><path class="cls-2" d="M594.81,215.56a4.29,4.29,0,0,1-4.49,3.79c-3.12,0-4.71-2.09-4.71-5.81,0-3.23,1.63-5.79,4.82-5.79a4.08,4.08,0,0,1,4.36,3.89H593a2.51,2.51,0,0,0-2.55-2.4c-2,0-2.93,1.78-2.93,4.25,0,2.86,1,4.36,2.9,4.36,1.54,0,2.2-1,2.6-2.29h1.83Z" transform="translate(-4.75)"/><path class="cls-2" d="M596,208h1.78v-3.23h1.83V208h2.24v1.5h-2.24v7c0,0.95.24,1.34,1.19,1.34a4.91,4.91,0,0,0,.86-0.09v1.39a4.85,4.85,0,0,1-1.45.18c-1.63,0-2.42-.62-2.42-2.46v-7.33H596V208Z" transform="translate(-4.75)"/><path class="cls-2" d="M608.47,212.65v1.63h-5.35v-1.63h5.35Z" transform="translate(-4.75)"/><path class="cls-2" d="M612.28,219.12V206.56a10.12,10.12,0,0,1-2.53.86V206a6.54,6.54,0,0,0,3.06-1.63h1.3v14.79h-1.83Z" transform="translate(-4.75)"/><path class="cls-2" d="M616.94,219.32l5.19-15.6h1.5l-5.17,15.6h-1.52Z" transform="translate(-4.75)"/><rect class="cls-3" x="519.93" y="230.63" width="106.61" height="28" rx="6.01" ry="6.01"/><path class="cls-2" d="M532.33,255.47v-12.3c0-1.52,0-2.6,0-3.28h1.8c0,0.37,0,1.17,0,1.8a3.59,3.59,0,0,1,3.48-2c2.44,0,4.18,1.91,4.18,5.61s-2,5.94-4.62,5.94a3.17,3.17,0,0,1-3-1.52v5.77h-1.8ZM537,241.25c-2.29,0-3,1.56-3,4.25,0,2.46.46,4.16,2.86,4.16,1.87,0,3-1.54,3-4.31S538.82,241.25,537,241.25Z" transform="translate(-4.75)"/><path class="cls-2" d="M544.23,243.67c0-1.78,0-3.23,0-3.79H546c0,0.53,0,1.23,0,2.27a3.74,3.74,0,0,1,3.61-2.46v1.89c-2.51.09-3.56,1.56-3.56,4V251h-1.83v-7.37Z" transform="translate(-4.75)"/><path class="cls-2" d="M560.44,245.28c0,3.23-1.41,6-5,6s-4.84-2.84-4.84-5.9,1.61-5.68,5-5.68C558.75,239.67,560.44,242.07,560.44,245.28Zm-7.94,0c0,2.55,1.06,4.4,3.06,4.4s3-1.8,3-4.42c0-2.44-1-4.11-3-4.11S552.5,242.88,552.5,245.32Z" transform="translate(-4.75)"/><path class="cls-2" d="M571.55,235v13.11c0,1.08,0,2.22,0,2.9h-1.78c0-.29-0.07-1-0.07-1.65-0.59,1.3-1.5,1.85-3.32,1.85-2.88,0-4.33-2.44-4.33-5.77s1.67-5.81,4.71-5.81c1.8,0,2.64.73,2.95,1.34v-6h1.8Zm-4.64,14.65c2.4,0,2.9-1.83,2.9-4.44,0-3.08-.9-4-2.79-4s-3,1.5-3,4.16S565.15,249.68,566.91,249.68Z" transform="translate(-4.75)"/><path class="cls-2" d="M583.15,247.9c0,1.39,0,2.62,0,3.15h-1.76a11.44,11.44,0,0,1-.09-1.78,3.32,3.32,0,0,1-3.28,2c-1.74,0-3.41-.84-3.41-3.85v-7.5h1.8V247c0,1.45.46,2.62,2.16,2.62s2.68-1.08,2.68-3.54v-6.23h1.85v8Z" transform="translate(-4.75)"/><path class="cls-2" d="M594.81,247.48a4.29,4.29,0,0,1-4.49,3.78c-3.12,0-4.71-2.09-4.71-5.81,0-3.23,1.63-5.79,4.82-5.79a4.08,4.08,0,0,1,4.36,3.89H593a2.51,2.51,0,0,0-2.55-2.4c-2,0-2.93,1.78-2.93,4.25,0,2.86,1,4.36,2.9,4.36,1.54,0,2.2-1,2.6-2.29h1.83Z" transform="translate(-4.75)"/><path class="cls-2" d="M596,239.89h1.78v-3.23h1.83v3.23h2.25v1.5h-2.25v7c0,0.95.24,1.34,1.19,1.34a4.91,4.91,0,0,0,.86-0.09V251a4.88,4.88,0,0,1-1.45.18c-1.63,0-2.42-.62-2.42-2.46v-7.33H596v-1.5Z" transform="translate(-4.75)"/><path class="cls-2" d="M608.47,244.58v1.63h-5.35v-1.63h5.35Z" transform="translate(-4.75)"/><path class="cls-2" d="M609.7,251v-0.11c0-1.56.84-3.85,4.16-6.56,2.11-1.76,2.95-2.44,2.95-4.16a2.34,2.34,0,0,0-2.46-2.57c-1.8,0-2.55,1.14-2.77,2.9h-1.76c0.15-2.33,1.45-4.42,4.6-4.42,2.91,0,4.29,1.87,4.29,4s-1,3.23-3.61,5.33a9.59,9.59,0,0,0-3.19,4h7.24L618.9,251h-9.2Z" transform="translate(-4.75)"/><path class="cls-2" d="M620.52,251.24l5.19-15.6h1.5L622,251.24h-1.52Z" transform="translate(-4.75)"/><rect class="cls-3" x="519.93" y="278.3" width="106.61" height="28" rx="6.01" ry="6.01"/><path class="cls-2" d="M532.33,303.14v-12.3c0-1.52,0-2.6,0-3.28h1.8c0,0.37,0,1.17,0,1.8a3.59,3.59,0,0,1,3.48-2c2.44,0,4.18,1.91,4.18,5.61s-2,5.94-4.62,5.94a3.17,3.17,0,0,1-3-1.52v5.76h-1.8ZM537,288.93c-2.29,0-3,1.56-3,4.25,0,2.46.46,4.16,2.86,4.16,1.87,0,3-1.54,3-4.31S538.82,288.93,537,288.93Z" transform="translate(-4.75)"/><path class="cls-2" d="M544.23,291.35c0-1.78,0-3.23,0-3.78H546c0,0.53,0,1.23,0,2.27a3.74,3.74,0,0,1,3.61-2.46v1.89c-2.51.09-3.56,1.56-3.56,4v5.48h-1.83v-7.37Z" transform="translate(-4.75)"/><path class="cls-2" d="M560.44,293c0,3.23-1.41,6-5,6s-4.84-2.84-4.84-5.9,1.61-5.68,5-5.68C558.75,287.34,560.44,289.74,560.44,293Zm-7.94,0c0,2.55,1.06,4.4,3.06,4.4s3-1.8,3-4.42c0-2.44-1-4.12-3-4.12S552.5,290.55,552.5,293Z" transform="translate(-4.75)"/><path class="cls-2" d="M571.55,282.7v13.11c0,1.08,0,2.22,0,2.9h-1.78c0-.29-0.07-1-0.07-1.65-0.59,1.3-1.5,1.85-3.32,1.85-2.88,0-4.33-2.44-4.33-5.76s1.67-5.81,4.71-5.81c1.8,0,2.64.73,2.95,1.34v-6h1.8Zm-4.64,14.65c2.4,0,2.9-1.83,2.9-4.44,0-3.08-.9-4-2.79-4s-3,1.5-3,4.16S565.15,297.35,566.91,297.35Z" transform="translate(-4.75)"/><path class="cls-2" d="M583.15,295.57c0,1.39,0,2.62,0,3.15h-1.76a11.43,11.43,0,0,1-.09-1.78,3.32,3.32,0,0,1-3.28,2c-1.74,0-3.41-.84-3.41-3.85v-7.5h1.8v7.15c0,1.45.46,2.62,2.16,2.62s2.68-1.08,2.68-3.54v-6.23h1.85v8Z" transform="translate(-4.75)"/><path class="cls-2" d="M594.81,295.15a4.29,4.29,0,0,1-4.49,3.79c-3.12,0-4.71-2.09-4.71-5.81,0-3.23,1.63-5.79,4.82-5.79a4.08,4.08,0,0,1,4.36,3.89H593a2.51,2.51,0,0,0-2.55-2.4c-2,0-2.93,1.78-2.93,4.25,0,2.86,1,4.36,2.9,4.36,1.54,0,2.2-1,2.6-2.29h1.83Z" transform="translate(-4.75)"/><path class="cls-2" d="M596,287.56h1.78v-3.23h1.83v3.23h2.25v1.5h-2.25v7c0,0.95.24,1.34,1.19,1.34a4.91,4.91,0,0,0,.86-0.09v1.39a4.85,4.85,0,0,1-1.45.18c-1.63,0-2.42-.62-2.42-2.46v-7.33H596v-1.5Z" transform="translate(-4.75)"/><path class="cls-2" d="M608.47,292.25v1.63h-5.35v-1.63h5.35Z" transform="translate(-4.75)"/><path class="cls-2" d="M611.06,291.06c0-2.33,0-3,0-3.5h1.78a13.24,13.24,0,0,1,.07,1.74,3.42,3.42,0,0,1,3.3-2c2.07,0,3.54,1.17,3.54,4.18v7.19h-1.83v-6.91c0-1.63-.55-2.86-2.22-2.86-2,0-2.77,1.47-2.77,3.81v6h-1.83v-7.66Z" transform="translate(-4.75)"/><path class="cls-2" d="M622.24,298.91l5.19-15.6h1.5l-5.17,15.6h-1.52Z" transform="translate(-4.75)"/><rect class="cls-3" x="109.5" y="198.71" width="104.54" height="28" rx="5.95" ry="5.95"/><path class="cls-2" d="M118.89,203.94H124c2.82,0,4.91,1.45,4.91,4.2,0,3-2.09,4.44-5.17,4.44h-2.95v6.54h-1.89V203.94Zm1.89,7.08h2.88c2,0,3.3-.68,3.3-2.86,0-1.83-1.32-2.66-3.28-2.66h-2.9V211Z" transform="translate(-4.75)"/><path class="cls-2" d="M138.63,216.64a21,21,0,0,0,.15,2.49h-1.65a10.16,10.16,0,0,1-.15-1.72,3.32,3.32,0,0,1-3.39,1.92,3.2,3.2,0,0,1-3.54-3.39c0-1.67,1.08-3.54,5.06-3.54h1.72v-1.08c0-1.06-.31-2.16-2.2-2.16a2,2,0,0,0-2.35,2h-1.78c0.15-1.87,1.23-3.39,4.2-3.39,2.33,0,3.94.95,3.94,3.48v5.41Zm-1.76-2.93h-1.76c-2.71,0-3.21,1.1-3.21,2.11a1.89,1.89,0,0,0,2.07,2c2.2,0,2.9-1.5,2.9-3.87v-0.24Z" transform="translate(-4.75)"/><path class="cls-2" d="M150.29,215.56a4.29,4.29,0,0,1-4.49,3.78c-3.12,0-4.71-2.09-4.71-5.81,0-3.23,1.63-5.79,4.82-5.79a4.08,4.08,0,0,1,4.36,3.89h-1.83a2.51,2.51,0,0,0-2.55-2.4c-2,0-2.93,1.78-2.93,4.25,0,2.86,1,4.36,2.9,4.36,1.54,0,2.2-1,2.6-2.29h1.83Z" transform="translate(-4.75)"/><path class="cls-2" d="M154.38,213.18c1-1.14,3.26-3.63,4.6-5.21h2.13c-1.23,1.41-2.6,2.82-3.89,4.25,1.34,2.13,2.95,4.75,4.33,6.91h-2.13c-0.9-1.47-2.44-4-3.43-5.68-0.31.33-1.3,1.32-1.61,1.63v4h-1.83v-16h1.83v10.08Z" transform="translate(-4.75)"/><path class="cls-2" d="M171.05,216.64a21,21,0,0,0,.15,2.49h-1.65a10.16,10.16,0,0,1-.15-1.72,3.32,3.32,0,0,1-3.39,1.92,3.2,3.2,0,0,1-3.54-3.39c0-1.67,1.08-3.54,5.06-3.54h1.72v-1.08c0-1.06-.31-2.16-2.2-2.16a2,2,0,0,0-2.35,2h-1.78c0.15-1.87,1.23-3.39,4.2-3.39,2.33,0,3.94.95,3.94,3.48v5.41Zm-1.76-2.93h-1.76c-2.71,0-3.21,1.1-3.21,2.11a1.89,1.89,0,0,0,2.07,2c2.2,0,2.9-1.5,2.9-3.87v-0.24Z" transform="translate(-4.75)"/><path class="cls-2" d="M182.89,218.26c0,3.5-1.41,5.46-4.8,5.46s-4.25-1.76-4.4-3.34h1.8c0.26,1.25,1.25,1.85,2.68,1.85,2.38,0,2.93-1.56,2.93-4v-0.9c-0.57,1.23-1.54,1.83-3.28,1.83-2.62,0-4.31-2.2-4.31-5.65,0-3.61,2-5.74,4.58-5.74,1.76,0,2.66.73,3,1.58a10.33,10.33,0,0,1,.09-1.36h1.78c0,0.53,0,1.72,0,3.24v7.06Zm-4.62-.7c2.13,0,2.88-1.34,2.88-4.14s-0.62-4.09-2.77-4.09c-1.85,0-3,1.54-3,4.14S176.51,217.56,178.27,217.56Z" transform="translate(-4.75)"/><path class="cls-2" d="M187.18,213.88c0,2.25.95,3.92,2.9,3.92a2.56,2.56,0,0,0,2.57-1.83h1.78a4.26,4.26,0,0,1-4.44,3.37c-3.48,0-4.67-2.75-4.67-5.83,0-2.75,1.34-5.76,4.77-5.76s4.51,2.73,4.51,5.3v0.84h-7.44Zm5.63-1.32c0-1.91-.81-3.34-2.75-3.34-2.2,0-2.73,2-2.84,3.34h5.59Z" transform="translate(-4.75)"/><path class="cls-2" d="M203.85,219.12V206.56a10.12,10.12,0,0,1-2.53.86V206a6.54,6.54,0,0,0,3.06-1.63h1.3v14.79h-1.83Z" transform="translate(-4.75)"/><rect class="cls-6" x="862.4" y="309.08" width="73.48" height="28" rx="4.99" ry="4.99"/><path class="cls-4" d="M875.85,322.24c0-1.78,0-3.23,0-3.78h1.78c0,0.53,0,1.23,0,2.27a3.74,3.74,0,0,1,3.61-2.46v1.89c-2.51.09-3.56,1.56-3.56,4v5.48h-1.83v-7.37Z" transform="translate(-4.75)"/><path class="cls-4" d="M884.1,324.37c0,2.24.95,3.92,2.9,3.92a2.56,2.56,0,0,0,2.57-1.83h1.78a4.26,4.26,0,0,1-4.44,3.37c-3.48,0-4.67-2.75-4.67-5.83,0-2.75,1.34-5.76,4.77-5.76s4.51,2.73,4.51,5.3v0.84H884.1Zm5.63-1.32c0-1.91-.81-3.34-2.75-3.34-2.2,0-2.73,2-2.84,3.34h5.59Z" transform="translate(-4.75)"/><path class="cls-4" d="M901.78,327.12a20.94,20.94,0,0,0,.15,2.49h-1.65a10.15,10.15,0,0,1-.15-1.72,3.32,3.32,0,0,1-3.39,1.91,3.2,3.2,0,0,1-3.54-3.39c0-1.67,1.08-3.54,5.06-3.54H900V321.8c0-1.06-.31-2.16-2.2-2.16a2,2,0,0,0-2.35,2h-1.78c0.15-1.87,1.23-3.39,4.2-3.39,2.33,0,3.94.95,3.94,3.48v5.41ZM900,324.19h-1.76c-2.71,0-3.21,1.1-3.21,2.11a1.89,1.89,0,0,0,2.07,2c2.2,0,2.9-1.5,2.9-3.87v-0.24Z" transform="translate(-4.75)"/><path class="cls-4" d="M913.66,313.59V326.7c0,1.08,0,2.22,0,2.9h-1.78c0-.29-0.07-1-0.07-1.65-0.59,1.3-1.5,1.85-3.32,1.85-2.88,0-4.33-2.44-4.33-5.76s1.67-5.81,4.71-5.81c1.8,0,2.64.73,2.95,1.34v-6h1.8ZM909,328.24c2.4,0,2.9-1.83,2.9-4.44,0-3.08-.9-4-2.79-4s-3,1.5-3,4.16S907.26,328.24,909,328.24Z" transform="translate(-4.75)"/><path class="cls-4" d="M918,324.37c0,2.24.95,3.92,2.9,3.92a2.56,2.56,0,0,0,2.57-1.83h1.78a4.26,4.26,0,0,1-4.44,3.37c-3.48,0-4.67-2.75-4.67-5.83,0-2.75,1.34-5.76,4.78-5.76s4.51,2.73,4.51,5.3v0.84H918Zm5.63-1.32c0-1.91-.81-3.34-2.75-3.34-2.2,0-2.73,2-2.84,3.34h5.59Z" transform="translate(-4.75)"/><path class="cls-4" d="M927.88,322.24c0-1.78,0-3.23,0-3.78h1.78c0,0.53,0,1.23,0,2.27a3.74,3.74,0,0,1,3.61-2.46v1.89c-2.51.09-3.56,1.56-3.56,4v5.48h-1.83v-7.37Z" transform="translate(-4.75)"/><line class="cls-5" x1="899.25" y1="300.15" x2="899.25" y2="269.15"/><polygon class="cls-2" points="899.25 309.08 904.54 296.15 899.25 299.21 893.97 296.15 899.25 309.08"/><polyline class="cls-5" points="457.25 64.15 489.25 64.15 489.25 216.15 505.25 216.15"/><polygon class="cls-2" points="514.25 216.15 501.32 221.44 504.39 216.15 501.32 210.87 514.25 216.15"/><line class="cls-5" x1="721.25" y1="255.15" x2="729.25" y2="255.15"/><polygon class="cls-2" points="738.2 255.15 725.27 260.44 728.34 255.15 725.27 249.87 738.2 255.15"/><polyline class="cls-5" points="710.25 55.15 755.25 55.15 755.25 183.15"/><polygon class="cls-2" points="755.25 192.15 749.97 179.22 755.25 182.29 760.53 179.22 755.25 192.15"/><rect class="cls-2" x="732.77" y="112.11" width="51.44" height="23.09" rx="6.14" ry="6.14"/><path class="cls-4" d="M748.32,117.64h1.89v5h3.29v-5h1.89v12.21h-1.89v-5.62h-3.29v5.62h-1.89V117.64Z" transform="translate(-4.75)"/><path class="cls-4" d="M759.21,119.31h-2.65v-1.67h7.18v1.67H761.1v10.53h-1.89V119.31Z" transform="translate(-4.75)"/><path class="cls-4" d="M767.13,119.31h-2.65v-1.67h7.18v1.67H769v10.53h-1.89V119.31Z" transform="translate(-4.75)"/><path class="cls-4" d="M772.91,117.64h3.49a3.57,3.57,0,0,1-.18,7.13H774.8v5.08h-1.89V117.64Zm1.89,5.6H776c1.3,0,1.91-.67,1.91-2.07a1.7,1.7,0,0,0-1.78-2H774.8v4Z" transform="translate(-4.75)"/></svg>