<svg id="Intrastructure" xmlns="http://www.w3.org/2000/svg" viewBox="0 0 950.29 354.96"><defs><style>.cls-1{fill:#faf5e1;}.cls-2{fill:#34495e;}.cls-3{fill:#d4ecff;}.cls-4{fill:#fff;}.cls-5{fill:none;stroke:#34495e;stroke-miterlimit:10;stroke-width:2px;}</style></defs><title>ltd_arch</title><rect class="cls-1" x="560.09" width="218.5" height="162.51"/><rect class="cls-1" x="101.94" y="192.45" width="369.31" height="162.51"/><rect class="cls-1" x="101.94" width="369.31" height="162.51"/><rect class="cls-1" x="560.09" y="192.45" width="218.5" height="162.51"/><path class="cls-2" d="M137.27,337.81H134a17.39,17.39,0,0,1-.31-1.87c-1.14,1.38-2.73,2.26-6.16,2.26-5.93,0-9.23-4.08-9.23-9.44s3.51-9.65,10.06-9.65c5.88,0,8.4,3.2,8.89,5.85h-4.47c-0.36-.94-1.43-2.5-4.42-2.5-3.77,0-5.38,2.68-5.38,6.08,0,3.59,1.69,6.27,5.43,6.27,3.09,0,4.5-1.61,4.5-3.8v-0.29h-4.45v-3.43h8.76v10.5Z" transform="translate(-4.75 0)"/><path class="cls-2" d="M140.93,321.85v-3.41h4.24v3.41h-4.24Zm0,2.52h4.24v13.44h-4.24V324.37Z" transform="translate(-4.75 0)"/><path class="cls-2" d="M147.69,324.37h2.42v-4h4.26v4h3.12v3.09h-3.12v5.67c0,1.14.23,1.66,1.53,1.66a5.64,5.64,0,0,0,1.14-.08v2.91a10.31,10.31,0,0,1-2.68.29c-3.3,0-4.26-1.43-4.26-4.06v-6.4h-2.42v-3.09Z" transform="translate(-4.75 0)"/><path class="cls-2" d="M160.2,319.51h4.45v6.86h8.42v-6.86h4.45v18.3h-4.45v-7.88h-8.42v7.88H160.2v-18.3Z" transform="translate(-4.75 0)"/><path class="cls-2" d="M194.73,333.91c0,1.27,0,2.6,0,3.9h-4.16c-0.05-.36-0.05-1-0.08-1.56-0.68,1-1.69,1.92-4.52,1.92s-5-1.64-5-5.59v-8.22h4.24v7.51c0,1.79.65,3,2.42,3,2.05,0,2.83-1.22,2.83-4.29v-6.21h4.24v9.54Z" transform="translate(-4.75 0)"/><path class="cls-2" d="M198.31,318.44h4.24v7.38A5.33,5.33,0,0,1,207,324a6.52,6.52,0,0,1,6.55,6.81c0,4.63-3,7.36-6.81,7.36-2.57,0-3.72-.94-4.34-1.87,0,0.34,0,1.2-.05,1.51h-4.06c0-2,0-3,0-4.47v-14.9Zm7.54,8.87c-2.37,0-3.41,1.51-3.41,3.77s1.14,3.74,3.35,3.74,3.38-1.69,3.38-3.8C209.18,329.13,208.2,327.31,205.86,327.31Z" transform="translate(-4.75 0)"/><path class="cls-2" d="M228.66,330.77v7h-4.39v-18.3h10c4.24,0,6.66,2.08,6.66,5.23a4.27,4.27,0,0,1-3.2,4.32c0.75,0.31,2.7,1,2.7,4.32v0.91a16,16,0,0,0,.23,3.54h-4.55a11.53,11.53,0,0,1-.34-3.82v-0.62c0-1.85-.68-2.6-3.35-2.6h-3.72Zm0-3.35h4.58c2.16,0,3.09-.78,3.09-2.31s-1-2.26-3.07-2.26h-4.6v4.58Z" transform="translate(-4.75 0)"/><path class="cls-2" d="M247.33,332.12a3,3,0,0,0,3.3,2.91,2.86,2.86,0,0,0,2.83-1.33h4.26c-0.83,2.39-2.83,4.47-7.15,4.47-5.51,0-7.49-3.64-7.49-7.07,0-3.77,2.55-7.1,7.46-7.1,5.23,0,7.33,3.61,7.33,7.1,0,0.34,0,.6,0,1H247.33Zm6.24-2.6c-0.08-1-.62-2.52-3-2.52-2.21,0-3,1.2-3.15,2.52h6.19Z" transform="translate(-4.75 0)"/><path class="cls-2" d="M260.61,343.48V327.67c0-1.09,0-2.21,0-3.3h4.16a14.11,14.11,0,0,1,.1,1.74C265.6,325,267,324,269.53,324a6.48,6.48,0,0,1,6.32,6.81c0,4.68-3.35,7.36-6.86,7.36a5,5,0,0,1-4.13-1.66v7h-4.24Zm7.54-16.17c-2.47,0-3.41,1.59-3.41,3.8s1.17,3.72,3.35,3.72,3.38-1.51,3.38-3.77C271.48,329.07,270.36,327.31,268.15,327.31Z" transform="translate(-4.75 0)"/><path class="cls-2" d="M293.29,331.08c0,4.13-2.86,7.1-7.85,7.1s-7.57-3.35-7.57-7.1,2.65-7.07,7.72-7.07C290.85,324,293.29,327.75,293.29,331.08Zm-11.1,0c0,2.11,1.17,3.9,3.38,3.9s3.35-1.77,3.35-3.82-1-3.93-3.38-3.93S282.19,329,282.19,331.08Z" transform="translate(-4.75 0)"/><path class="cls-2" d="M299.38,333.68c0.34,1,1.22,1.59,3,1.59s2.31-.55,2.31-1.2-0.57-1.12-3.28-1.48c-5.12-.73-5.82-2.6-5.82-4.24,0-2.05,1.53-4.34,6.21-4.34s6.4,2.24,6.58,4.16h-4.16c-0.21-.62-0.68-1.35-2.57-1.35-1.61,0-1.9.62-1.9,1.09s0.44,0.91,2.94,1.27c5.46,0.83,6.16,2.65,6.16,4.52,0,2.44-1.85,4.47-6.76,4.47-3.67,0-6.55-1.56-7-4.5h4.21Z" transform="translate(-4.75 0)"/><path class="cls-2" d="M311.57,321.85v-3.41h4.24v3.41h-4.24Zm0,2.52h4.24v13.44h-4.24V324.37Z" transform="translate(-4.75 0)"/><path class="cls-2" d="M318.33,324.37h2.42v-4H325v4h3.12v3.09H325v5.67c0,1.14.23,1.66,1.53,1.66a5.64,5.64,0,0,0,1.14-.08v2.91a10.31,10.31,0,0,1-2.68.29c-3.3,0-4.26-1.43-4.26-4.06v-6.4h-2.42v-3.09Z" transform="translate(-4.75 0)"/><path class="cls-2" d="M345.08,331.08c0,4.13-2.86,7.1-7.85,7.1s-7.57-3.35-7.57-7.1,2.65-7.07,7.72-7.07C342.64,324,345.08,327.75,345.08,331.08Zm-11.1,0c0,2.11,1.17,3.9,3.38,3.9s3.35-1.77,3.35-3.82-1-3.93-3.38-3.93S334,329,334,331.08Z" transform="translate(-4.75 0)"/><path class="cls-2" d="M347.92,328c0-1.22,0-2.44,0-3.67H352c0.08,0.49.13,2,.13,2.7a5.07,5.07,0,0,1,5.17-3v3.87c-3-.05-5.17,1.17-5.17,5v4.91h-4.24V328Z" transform="translate(-4.75 0)"/><path class="cls-2" d="M359.59,321.85v-3.41h4.24v3.41h-4.24Zm0,2.52h4.24v13.44h-4.24V324.37Z" transform="translate(-4.75 0)"/><path class="cls-2" d="M370.88,332.12a3,3,0,0,0,3.3,2.91A2.86,2.86,0,0,0,377,333.7h4.26c-0.83,2.39-2.83,4.47-7.15,4.47-5.51,0-7.49-3.64-7.49-7.07,0-3.77,2.55-7.1,7.46-7.1,5.23,0,7.33,3.61,7.33,7.1,0,0.34,0,.6,0,1H370.88Zm6.24-2.6c-0.08-1-.62-2.52-3-2.52-2.21,0-3,1.2-3.15,2.52h6.19Z" transform="translate(-4.75 0)"/><path class="cls-2" d="M387.51,333.68c0.34,1,1.22,1.59,3,1.59s2.31-.55,2.31-1.2-0.57-1.12-3.28-1.48c-5.12-.73-5.82-2.6-5.82-4.24,0-2.05,1.53-4.34,6.21-4.34s6.4,2.24,6.58,4.16H392.4c-0.21-.62-0.68-1.35-2.57-1.35-1.61,0-1.9.62-1.9,1.09s0.44,0.91,2.94,1.27c5.46,0.83,6.16,2.65,6.16,4.52,0,2.44-1.85,4.47-6.76,4.47-3.67,0-6.55-1.56-7-4.5h4.21Z" transform="translate(-4.75 0)"/><path class="cls-2" d="M580.32,333.68l-1.38,4.13h-3.82l6.08-17.91h4.86l6.37,17.91h-4.08l-1.48-4.13h-6.55ZM586,330.5c-1.27-3.8-2.08-6.21-2.52-7.83h0c-0.44,1.77-1.33,4.58-2.34,7.83H586Z" transform="translate(-4.75 0)"/><path class="cls-2" d="M596.23,337.81l-4.58-17.91h4.13c1.69,8.22,2.44,11.88,2.65,13.86h0c0.68-3.3,2.42-9.54,3.46-13.86h3.48c0.94,3.43,2.73,10.37,3.33,13.68h0c0.6-4,2.34-10.89,3-13.68h3.74l-4.84,17.91h-4c-0.94-4-2.52-9.78-3.15-12.84h0c-0.65,3.2-2.26,9.23-3.22,12.84h-4Z" transform="translate(-4.75 0)"/><path class="cls-2" d="M620.7,332.56c0.42,1.79,1.69,2.6,3.77,2.6s3-.83,3-2.13c0-1.48-.86-2.11-3.93-2.81-4.89-1.14-6.08-2.94-6.08-5.36,0-3.12,2.34-5.23,6.58-5.23,4.76,0,6.66,2.55,6.92,5.17H627c-0.21-1.12-.81-2.31-3.12-2.31-1.59,0-2.52.65-2.52,1.92s0.75,1.77,3.67,2.42c5.2,1.25,6.34,3.17,6.34,5.72,0,3.25-2.47,5.51-7.2,5.51-4.55,0-7-2.24-7.38-5.51h3.9Z" transform="translate(-4.75 0)"/><path class="cls-2" d="M643.5,332.56c0.42,1.79,1.69,2.6,3.77,2.6s3-.83,3-2.13c0-1.48-.86-2.11-3.93-2.81-4.89-1.14-6.08-2.94-6.08-5.36,0-3.12,2.34-5.23,6.58-5.23,4.76,0,6.66,2.55,6.92,5.17h-3.9c-0.21-1.12-.81-2.31-3.12-2.31-1.59,0-2.52.65-2.52,1.92s0.75,1.77,3.67,2.42c5.2,1.25,6.34,3.17,6.34,5.72,0,3.25-2.47,5.51-7.2,5.51-4.55,0-7-2.24-7.38-5.51h3.9Z" transform="translate(-4.75 0)"/><path class="cls-2" d="M656.34,325.1c0.23-2.11,1.72-4.71,6-4.71,4,0,5.72,2.24,5.72,4.65a3.63,3.63,0,0,1-2.13,3.48v0.08a4,4,0,0,1,2.78,4.11c0,2.47-1.48,5.41-6.4,5.41-4.6,0-6.16-2.76-6.32-5h3.61a2.57,2.57,0,0,0,2.81,2.16,2.38,2.38,0,0,0,2.57-2.6c0-1.59-.83-2.55-2.81-2.55h-1.56v-2.86H662c1.69,0,2.39-.57,2.39-2a1.9,1.9,0,0,0-2.18-2,2.07,2.07,0,0,0-2.34,1.82h-3.54Z" transform="translate(-4.75 0)"/><path class="cls-2" d="M576.63,29.2V9.83h4.24V29.2h-4.24Z" transform="translate(-4.75 0)"/><path class="cls-2" d="M583.39,15.76h2.42v-4h4.26v4h3.12v3.09h-3.12v5.67c0,1.14.23,1.66,1.53,1.66a5.63,5.63,0,0,0,1.14-.08V29a10.31,10.31,0,0,1-2.68.29c-3.3,0-4.26-1.43-4.26-4.06v-6.4h-2.42V15.76Z" transform="translate(-4.75 0)"/><path class="cls-2" d="M610,9.83v15.6c0,1.25,0,2.52,0,3.77h-4.19c-0.05-.39-0.08-1-0.1-1.56-0.75,1-1.69,1.92-4.47,1.92-3.74,0-6.53-2.78-6.53-7a7,7,0,0,1,6.92-7.2c2.63,0,3.69.88,4.08,1.4v-7H610ZM602.5,26.24c2.18,0,3.33-1.43,3.33-3.74s-0.91-3.8-3.33-3.8-3.41,1.82-3.41,3.8C599.09,24.63,600.32,26.24,602.5,26.24Z" transform="translate(-4.75 0)"/><path class="cls-2" d="M621.79,20.81v3.54h-8.68V20.81h8.68Z" transform="translate(-4.75 0)"/><path class="cls-2" d="M629.15,21.56c1.33-1.4,4.06-4,5.75-5.8h5l-5.67,5.15,6.24,8.29h-5.12l-4.11-5.93-2.11,1.82V29.2h-4.24V9.83h4.24V21.56Z" transform="translate(-4.75 0)"/><path class="cls-2" d="M645,23.51a3,3,0,0,0,3.3,2.91,2.86,2.86,0,0,0,2.83-1.33h4.26c-0.83,2.39-2.83,4.47-7.15,4.47-5.51,0-7.49-3.64-7.49-7.07,0-3.77,2.55-7.1,7.46-7.1,5.23,0,7.33,3.61,7.33,7.1,0,0.34,0,.6,0,1H645Zm6.24-2.6c-0.08-1-.62-2.52-3-2.52-2.21,0-3,1.2-3.15,2.52h6.19Z" transform="translate(-4.75 0)"/><path class="cls-2" d="M661.91,23.51a3,3,0,0,0,3.3,2.91A2.86,2.86,0,0,0,668,25.1h4.26c-0.83,2.39-2.83,4.47-7.15,4.47-5.51,0-7.49-3.64-7.49-7.07,0-3.77,2.55-7.1,7.46-7.1,5.23,0,7.33,3.61,7.33,7.1,0,0.34,0,.6,0,1H661.91Zm6.24-2.6c-0.08-1-.62-2.52-3-2.52-2.21,0-3,1.2-3.15,2.52h6.19Z" transform="translate(-4.75 0)"/><path class="cls-2" d="M675.19,34.87V19.06c0-1.09,0-2.21,0-3.3h4.16a14.22,14.22,0,0,1,.1,1.74c0.75-1.12,2.11-2.11,4.68-2.11a6.48,6.48,0,0,1,6.32,6.81c0,4.68-3.35,7.36-6.86,7.36a5,5,0,0,1-4.13-1.66v7h-4.24Zm7.54-16.17c-2.47,0-3.41,1.59-3.41,3.8s1.17,3.72,3.35,3.72,3.38-1.51,3.38-3.77C686.06,20.47,684.94,18.7,682.73,18.7Z" transform="translate(-4.75 0)"/><path class="cls-2" d="M696.7,23.51a3,3,0,0,0,3.3,2.91,2.86,2.86,0,0,0,2.83-1.33h4.26c-0.83,2.39-2.83,4.47-7.15,4.47-5.51,0-7.49-3.64-7.49-7.07,0-3.77,2.55-7.1,7.46-7.1,5.23,0,7.33,3.61,7.33,7.1,0,0.34,0,.6,0,1H696.7Zm6.24-2.6c-0.08-1-.62-2.52-3-2.52-2.21,0-3,1.2-3.15,2.52h6.19Z" transform="translate(-4.75 0)"/><path class="cls-2" d="M710,19.43c0-1.22,0-2.44,0-3.67h4.13c0.08,0.49.13,2,.13,2.7a5.07,5.07,0,0,1,5.17-3V19.3c-3-.05-5.17,1.17-5.17,5V29.2H710V19.43Z" transform="translate(-4.75 0)"/><path class="cls-2" d="M127.15,22.68c0,5.1-2.29,6.92-6.68,6.92a17.72,17.72,0,0,1-2.65-.18V25.9a14.9,14.9,0,0,0,1.92.13c1.9,0,2.94-.75,2.94-3.12v-12h4.47V22.68Z" transform="translate(-4.75 0)"/><path class="cls-2" d="M134.3,23.51a3,3,0,0,0,3.3,2.91,2.86,2.86,0,0,0,2.83-1.33h4.26c-0.83,2.39-2.83,4.47-7.15,4.47-5.51,0-7.49-3.64-7.49-7.07,0-3.77,2.55-7.1,7.46-7.1,5.23,0,7.33,3.61,7.33,7.1,0,0.34,0,.6,0,1H134.3Zm6.24-2.6c-0.08-1-.62-2.52-3-2.52-2.21,0-3,1.2-3.15,2.52h6.19Z" transform="translate(-4.75 0)"/><path class="cls-2" d="M147.56,19.17c0-1.14,0-2.44,0-3.41h4.13c0.05,0.39.1,1.2,0.13,1.74a4.92,4.92,0,0,1,4.47-2.11c3.3,0,5.25,2.05,5.25,5.51V29.2h-4.29V21.59c0-1.53-.6-2.89-2.5-2.89s-2.91,1.38-2.91,3.8V29.2h-4.26v-10Z" transform="translate(-4.75 0)"/><path class="cls-2" d="M169.35,21.56c1.33-1.4,4.06-4,5.75-5.8h5l-5.67,5.15,6.24,8.29h-5.12l-4.11-5.93-2.11,1.82V29.2h-4.24V9.83h4.24V21.56Z" transform="translate(-4.75 0)"/><path class="cls-2" d="M182.27,13.24V9.83h4.24v3.41h-4.24Zm0,2.52h4.24V29.2h-4.24V15.76Z" transform="translate(-4.75 0)"/><path class="cls-2" d="M190.1,19.17c0-1.14,0-2.44,0-3.41h4.13c0.05,0.39.1,1.2,0.13,1.74a4.92,4.92,0,0,1,4.47-2.11c3.3,0,5.25,2.05,5.25,5.51V29.2h-4.29V21.59c0-1.53-.6-2.89-2.5-2.89s-2.91,1.38-2.91,3.8V29.2H190.1v-10Z" transform="translate(-4.75 0)"/><path class="cls-2" d="M210.61,25.07c0.34,1,1.22,1.59,3,1.59s2.31-.55,2.31-1.2-0.57-1.12-3.28-1.48c-5.12-.73-5.82-2.6-5.82-4.24,0-2.05,1.53-4.34,6.21-4.34s6.4,2.24,6.58,4.16H215.5c-0.21-.62-0.68-1.35-2.57-1.35-1.61,0-1.9.62-1.9,1.09s0.44,0.91,2.94,1.27c5.46,0.83,6.16,2.65,6.16,4.52,0,2.44-1.85,4.47-6.76,4.47-3.67,0-6.55-1.56-7-4.5h4.21Z" transform="translate(-4.75 0)"/><path class="cls-2" d="M230.66,10.9H240.8c4.37,0,6.27,2.13,6.27,4.71a4,4,0,0,1-2.73,3.9,4.43,4.43,0,0,1,3.41,4.24c0,3.46-2.63,5.46-7.12,5.46h-10V10.9Zm9.2,7.15c2,0,2.63-.78,2.63-1.9,0-1.38-1.07-1.92-2.6-1.92H235v3.82h4.84ZM235,25.9h5c1.72,0,3-.49,3-2.31,0-1.46-1-2.21-2.94-2.21H235V25.9Z" transform="translate(-4.75 0)"/><path class="cls-2" d="M264.12,25.3c0,1.27,0,2.6,0,3.9H260c-0.05-.36-0.05-1-0.08-1.56-0.68,1-1.69,1.92-4.52,1.92s-5-1.64-5-5.59V15.76h4.24v7.51c0,1.79.65,3,2.42,3,2.05,0,2.83-1.22,2.83-4.29V15.76h4.24V25.3Z" transform="translate(-4.75 0)"/><path class="cls-2" d="M267.73,13.24V9.83H272v3.41h-4.24Zm0,2.52H272V29.2h-4.24V15.76Z" transform="translate(-4.75 0)"/><path class="cls-2" d="M275.69,29.2V9.83h4.24V29.2h-4.24Z" transform="translate(-4.75 0)"/><path class="cls-2" d="M298,9.83v15.6c0,1.25,0,2.52,0,3.77h-4.19c-0.05-.39-0.08-1-0.1-1.56-0.75,1-1.69,1.92-4.47,1.92-3.74,0-6.53-2.78-6.53-7a7,7,0,0,1,6.92-7.2c2.63,0,3.69.88,4.08,1.4v-7H298Zm-7.49,16.41c2.18,0,3.33-1.43,3.33-3.74s-0.91-3.8-3.33-3.8-3.41,1.82-3.41,3.8C287.1,24.63,288.33,26.24,290.51,26.24Z" transform="translate(-4.75 0)"/><path class="cls-2" d="M300.86,30.53l8.27-19.63h3.74l-8.29,19.63h-3.72Z" transform="translate(-4.75 0)"/><path class="cls-2" d="M334,23.38c-0.83,3.22-3.38,6.21-9.13,6.21-6.55,0-9.7-4.52-9.7-9.52s3.46-9.57,9.93-9.57c5.62,0,8.4,3.12,8.94,6.16h-4.5c-0.39-1-1.38-2.73-4.5-2.73-3.43,0-5.2,2.63-5.2,6s1.61,6.27,5.23,6.27c2.6,0,3.74-1,4.47-2.78H334Z" transform="translate(-4.75 0)"/><path class="cls-2" d="M341.57,10.9V29.2h-4.45V10.9h4.45Z" transform="translate(-4.75 0)"/><rect class="cls-3" x="109.5" y="40.47" width="139.52" height="28" rx="6.87" ry="6.87"/><rect class="cls-3" x="109.5" y="274.04" width="104.54" height="28" rx="5.95" ry="5.95"/><rect class="cls-3" x="109.5" y="235.44" width="104.54" height="28" rx="5.95" ry="5.95"/><rect class="cls-3" x="109.5" y="205.44" width="104.54" height="28" rx="5.95" ry="5.95"/><rect class="cls-3" x="327.47" y="233.96" width="129.81" height="28" rx="6.63" ry="6.63"/><rect class="cls-3" x="866.51" y="241.15" width="83.77" height="28" rx="5.33" ry="5.33"/><rect class="cls-3" x="344.25" y="40.6" width="113.03" height="28" rx="6.19" ry="6.19"/><rect class="cls-2" y="27.67" width="83.38" height="53.58" rx="11.9" ry="11.9"/><path class="cls-2" d="M118.65,45h1.83v6.4a3.58,3.58,0,0,1,3.34-1.76c2.71,0,4.29,2.22,4.29,5.46,0,3.39-1.43,6.12-4.62,6.12a3.07,3.07,0,0,1-3-1.61,10.16,10.16,0,0,1-.07,1.41h-1.78c0-.62,0-1.78,0-3.17V45Zm4.73,6.23c-2.22,0-3,1.43-3,4.07s0.64,4.33,2.95,4.33c2,0,2.93-1.85,2.93-4.47C126.24,52.84,125.29,51.26,123.38,51.26Z" transform="translate(-4.75 0)"/><path class="cls-2" d="M139,57.9c0,1.39,0,2.62,0,3.15h-1.76a11.3,11.3,0,0,1-.09-1.78,3.32,3.32,0,0,1-3.28,2c-1.74,0-3.41-.84-3.41-3.85v-7.5h1.8V57c0,1.45.46,2.62,2.16,2.62s2.68-1.08,2.68-3.54V49.89H139v8Z" transform="translate(-4.75 0)"/><path class="cls-2" d="M142.21,47.39V45H144v2.35h-1.83Zm0,2.51H144V61.05h-1.83V49.89Z" transform="translate(-4.75 0)"/><path class="cls-2" d="M147.25,61.05V45h1.83v16h-1.83Z" transform="translate(-4.75 0)"/><path class="cls-2" d="M161,45V58.15c0,1.08,0,2.22,0,2.9h-1.78c0-.29-0.07-1-0.07-1.65-0.59,1.3-1.5,1.85-3.32,1.85-2.88,0-4.33-2.44-4.33-5.77s1.67-5.81,4.71-5.81c1.8,0,2.64.73,2.95,1.34V45H161Zm-4.64,14.65c2.4,0,2.9-1.83,2.9-4.44,0-3.08-.9-4-2.79-4s-3,1.5-3,4.16S154.55,59.69,156.31,59.69Z" transform="translate(-4.75 0)"/><path class="cls-2" d="M164.21,61.05V45H166v16h-1.83Z" transform="translate(-4.75 0)"/><path class="cls-2" d="M170.06,57.82a2.3,2.3,0,0,0,2.51,2c1.54,0,2.13-.81,2.13-1.76s-0.7-1.54-2.6-2c-2.73-.75-3.43-1.74-3.43-3.23s1-3.1,3.74-3.1,3.74,1.5,3.89,3.21h-1.8a2,2,0,0,0-2.18-1.78c-1.25,0-1.83.59-1.83,1.52s0.42,1.3,2.29,1.78c2.84,0.77,3.74,1.72,3.74,3.5,0,2.07-1.63,3.34-4,3.34s-4-1.1-4.25-3.43h1.8Z" transform="translate(-4.75 0)"/><path class="cls-2" d="M179.88,57.82a2.3,2.3,0,0,0,2.51,2c1.54,0,2.13-.81,2.13-1.76s-0.7-1.54-2.6-2c-2.73-.75-3.43-1.74-3.43-3.23s1-3.1,3.74-3.1,3.74,1.5,3.89,3.21h-1.8a2,2,0,0,0-2.18-1.78c-1.25,0-1.83.59-1.83,1.52s0.42,1.3,2.29,1.78c2.84,0.77,3.74,1.72,3.74,3.5,0,2.07-1.63,3.34-4,3.34s-4-1.1-4.25-3.43h1.8Z" transform="translate(-4.75 0)"/><path class="cls-2" d="M187.31,49.89h1.78V46.66h1.83v3.23h2.24v1.5h-2.24v7c0,0.95.24,1.34,1.19,1.34a4.91,4.91,0,0,0,.86-0.09V61a4.86,4.86,0,0,1-1.45.18c-1.63,0-2.42-.62-2.42-2.46V51.39h-1.78v-1.5Z" transform="translate(-4.75 0)"/><path class="cls-2" d="M196,57.82a2.3,2.3,0,0,0,2.51,2c1.54,0,2.13-.81,2.13-1.76s-0.7-1.54-2.6-2c-2.73-.75-3.43-1.74-3.43-3.23s1-3.1,3.74-3.1,3.74,1.5,3.89,3.21h-1.8a2,2,0,0,0-2.18-1.78c-1.25,0-1.83.59-1.83,1.52s0.42,1.3,2.29,1.78c2.84,0.77,3.74,1.72,3.74,3.5,0,2.07-1.63,3.34-4,3.34s-4-1.1-4.25-3.43H196Z" transform="translate(-4.75 0)"/><path class="cls-2" d="M205.53,49.89c1.28,4.91,2,7.81,2.31,9.29h0c0.26-1.34.88-3.5,2.46-9.29h1.78c1.5,5.5,2.16,8,2.33,9.2h0c0.24-1.23.88-3.52,2.44-9.2h1.85l-3.39,11.16h-1.91c-1-3.67-2-7.17-2.31-8.87h0c-0.29,1.65-1.3,5.08-2.4,8.87h-2l-3.19-11.16h2Z" transform="translate(-4.75 0)"/><path class="cls-2" d="M219.23,61.07V58H221v3h-1.8Z" transform="translate(-4.75 0)"/><path class="cls-2" d="M224.8,57.82a2.3,2.3,0,0,0,2.51,2c1.54,0,2.13-.81,2.13-1.76s-0.7-1.54-2.6-2c-2.73-.75-3.43-1.74-3.43-3.23s1-3.1,3.74-3.1,3.74,1.5,3.89,3.21h-1.8a2,2,0,0,0-2.18-1.78c-1.25,0-1.83.59-1.83,1.52s0.42,1.3,2.29,1.78c2.84,0.77,3.74,1.72,3.74,3.5,0,2.07-1.63,3.34-4,3.34s-4-1.1-4.25-3.43h1.8Z" transform="translate(-4.75 0)"/><path class="cls-2" d="M235.34,45V51.5a3.46,3.46,0,0,1,3.32-1.83c1.63,0,3.5.84,3.5,4v7.37h-1.8V54c0-1.69-.66-2.71-2.29-2.71-1.8,0-2.73,1.19-2.73,3.41v6.36h-1.83V45h1.83Z" transform="translate(-4.75 0)"/><path class="cls-2" d="M364.26,61.05V45h1.83v16h-1.83Z" transform="translate(-4.75 0)"/><path class="cls-2" d="M367.86,49.9h1.78V46.66h1.83V49.9h2.24v1.5h-2.24v7c0,0.95.24,1.34,1.19,1.34a4.91,4.91,0,0,0,.86-0.09V61a4.86,4.86,0,0,1-1.45.18c-1.63,0-2.42-.62-2.42-2.46V51.39h-1.78V49.9Z" transform="translate(-4.75 0)"/><path class="cls-2" d="M384.32,45V58.15c0,1.08,0,2.22,0,2.9h-1.78c0-.29-0.07-1-0.07-1.65-0.59,1.3-1.5,1.85-3.32,1.85-2.88,0-4.33-2.44-4.33-5.77s1.67-5.81,4.71-5.81c1.8,0,2.64.73,2.95,1.34V45h1.8Zm-4.64,14.65c2.4,0,2.9-1.83,2.9-4.44,0-3.08-.9-4-2.79-4s-3,1.5-3,4.16S377.92,59.69,379.68,59.69Z" transform="translate(-4.75 0)"/><path class="cls-2" d="M392.28,54.58v1.63h-5.35V54.58h5.35Z" transform="translate(-4.75 0)"/><path class="cls-2" d="M394.88,53.37c0-2,0-3,0-3.48h1.78c0,0.31.07,1.19,0.07,1.58a3.36,3.36,0,0,1,3.12-1.8,2.73,2.73,0,0,1,2.86,1.91,3.52,3.52,0,0,1,3.3-1.91c1.69,0,3.34.88,3.34,3.81v7.57h-1.8V53.79c0-1.36-.44-2.53-2-2.53-1.74,0-2.46,1.45-2.46,3.23v6.56h-1.8V53.7c0-1.39-.55-2.42-2-2.42s-2.53,1.19-2.53,3.41v6.36h-1.8V53.37Z" transform="translate(-4.75 0)"/><path class="cls-2" d="M420.16,58.56a21,21,0,0,0,.15,2.49h-1.65a10.16,10.16,0,0,1-.15-1.72,3.32,3.32,0,0,1-3.39,1.91,3.2,3.2,0,0,1-3.54-3.39c0-1.67,1.08-3.54,5.06-3.54h1.72V53.24c0-1.06-.31-2.16-2.2-2.16a2,2,0,0,0-2.35,2H412c0.15-1.87,1.23-3.39,4.2-3.39,2.33,0,3.94.95,3.94,3.48v5.41Zm-1.76-2.93h-1.76c-2.71,0-3.21,1.1-3.21,2.11a1.89,1.89,0,0,0,2.07,2c2.2,0,2.9-1.5,2.9-3.87V55.64Z" transform="translate(-4.75 0)"/><path class="cls-2" d="M424,57.82a2.3,2.3,0,0,0,2.51,2c1.54,0,2.13-.81,2.13-1.76s-0.7-1.54-2.6-2c-2.73-.75-3.43-1.74-3.43-3.23s1-3.1,3.74-3.1,3.74,1.5,3.89,3.21h-1.8a2,2,0,0,0-2.18-1.78c-1.25,0-1.83.59-1.83,1.52s0.42,1.3,2.29,1.78c2.84,0.77,3.74,1.72,3.74,3.5,0,2.07-1.63,3.34-4,3.34s-4-1.1-4.25-3.43H424Z" transform="translate(-4.75 0)"/><path class="cls-2" d="M442,55.29c0,3.23-1.41,6-5,6s-4.84-2.84-4.84-5.9,1.61-5.68,5-5.68C440.31,49.68,442,52.07,442,55.29Zm-7.94,0c0,2.55,1.06,4.4,3.06,4.4s3-1.8,3-4.42c0-2.44-1-4.11-3-4.11S434.06,52.89,434.06,55.33Z" transform="translate(-4.75 0)"/><path class="cls-2" d="M444.45,53.39c0-2.33,0-3,0-3.5h1.78a13.32,13.32,0,0,1,.07,1.74,3.42,3.42,0,0,1,3.3-2c2.07,0,3.54,1.17,3.54,4.18v7.19h-1.83V54.14c0-1.63-.55-2.86-2.22-2.86-2,0-2.77,1.47-2.77,3.81v6h-1.83V53.39Z" transform="translate(-4.75 0)"/><path class="cls-2" d="M118.89,209.91H124c2.82,0,4.91,1.45,4.91,4.2,0,3-2.09,4.44-5.17,4.44h-2.95v6.54h-1.89V209.91Zm1.89,7.08h2.88c2,0,3.3-.68,3.3-2.86,0-1.83-1.32-2.66-3.28-2.66h-2.9V217Z" transform="translate(-4.75 0)"/><path class="cls-2" d="M138.63,222.61a21,21,0,0,0,.15,2.49h-1.65a10.16,10.16,0,0,1-.15-1.72,3.32,3.32,0,0,1-3.39,1.92A3.2,3.2,0,0,1,130,221.9c0-1.67,1.08-3.54,5.06-3.54h1.72v-1.08c0-1.06-.31-2.16-2.2-2.16a2,2,0,0,0-2.35,2h-1.78c0.15-1.87,1.23-3.39,4.2-3.39,2.33,0,3.94.95,3.94,3.48v5.41Zm-1.76-2.93h-1.76c-2.71,0-3.21,1.1-3.21,2.11a1.89,1.89,0,0,0,2.07,2c2.2,0,2.9-1.5,2.9-3.87v-0.24Z" transform="translate(-4.75 0)"/><path class="cls-2" d="M150.29,221.53a4.29,4.29,0,0,1-4.49,3.78c-3.12,0-4.71-2.09-4.71-5.81,0-3.23,1.63-5.79,4.82-5.79a4.08,4.08,0,0,1,4.36,3.89h-1.83a2.51,2.51,0,0,0-2.55-2.4c-2,0-2.93,1.78-2.93,4.25,0,2.86,1,4.36,2.9,4.36,1.54,0,2.2-1,2.6-2.29h1.83Z" transform="translate(-4.75 0)"/><path class="cls-2" d="M154.38,219.15c1-1.14,3.26-3.63,4.6-5.21h2.13c-1.23,1.41-2.6,2.82-3.89,4.25,1.34,2.13,2.95,4.75,4.33,6.91h-2.13c-0.9-1.47-2.44-4-3.43-5.68-0.31.33-1.3,1.32-1.61,1.63v4h-1.83v-16h1.83v10.08Z" transform="translate(-4.75 0)"/><path class="cls-2" d="M171.05,222.61a21,21,0,0,0,.15,2.49h-1.65a10.16,10.16,0,0,1-.15-1.72,3.32,3.32,0,0,1-3.39,1.92,3.2,3.2,0,0,1-3.54-3.39c0-1.67,1.08-3.54,5.06-3.54h1.72v-1.08c0-1.06-.31-2.16-2.2-2.16a2,2,0,0,0-2.35,2h-1.78c0.15-1.87,1.23-3.39,4.2-3.39,2.33,0,3.94.95,3.94,3.48v5.41Zm-1.76-2.93h-1.76c-2.71,0-3.21,1.1-3.21,2.11a1.89,1.89,0,0,0,2.07,2c2.2,0,2.9-1.5,2.9-3.87v-0.24Z" transform="translate(-4.75 0)"/><path class="cls-2" d="M182.89,224.24c0,3.5-1.41,5.46-4.8,5.46s-4.25-1.76-4.4-3.34h1.8c0.26,1.25,1.25,1.85,2.68,1.85,2.38,0,2.93-1.56,2.93-4v-0.9c-0.57,1.23-1.54,1.83-3.28,1.83-2.62,0-4.31-2.2-4.31-5.65,0-3.61,2-5.74,4.58-5.74,1.76,0,2.66.73,3,1.58a10.33,10.33,0,0,1,.09-1.36h1.78c0,0.53,0,1.72,0,3.24v7.06Zm-4.62-.7c2.13,0,2.88-1.34,2.88-4.14s-0.62-4.09-2.77-4.09c-1.85,0-3,1.54-3,4.14S176.51,223.53,178.27,223.53Z" transform="translate(-4.75 0)"/><path class="cls-2" d="M187.18,219.86c0,2.25.95,3.92,2.9,3.92a2.56,2.56,0,0,0,2.57-1.83h1.78a4.26,4.26,0,0,1-4.44,3.37c-3.48,0-4.67-2.75-4.67-5.83,0-2.75,1.34-5.76,4.77-5.76s4.51,2.73,4.51,5.3v0.84h-7.44Zm5.63-1.32c0-1.91-.81-3.34-2.75-3.34-2.2,0-2.73,2-2.84,3.34h5.59Z" transform="translate(-4.75 0)"/><path class="cls-2" d="M203.85,225.1V212.53a10.12,10.12,0,0,1-2.53.86v-1.45a6.54,6.54,0,0,0,3.06-1.63h1.3V225.1h-1.83Z" transform="translate(-4.75 0)"/><path class="cls-2" d="M342.37,240.33h5.1c2.82,0,4.91,1.45,4.91,4.2,0,3-2.09,4.44-5.17,4.44h-2.95v6.54h-1.89V240.33Zm1.89,7.08h2.88c2,0,3.3-.68,3.3-2.86,0-1.83-1.32-2.66-3.28-2.66h-2.9v5.52Z" transform="translate(-4.75 0)"/><path class="cls-2" d="M354.44,248.14c0-1.78,0-3.23,0-3.78h1.78c0,0.53,0,1.23,0,2.27a3.74,3.74,0,0,1,3.61-2.46v1.89c-2.51.09-3.56,1.56-3.56,4v5.48h-1.83v-7.37Z" transform="translate(-4.75 0)"/><path class="cls-2" d="M370.66,249.75c0,3.23-1.41,6-5,6s-4.84-2.84-4.84-5.9,1.61-5.68,5-5.68C369,244.14,370.66,246.53,370.66,249.75Zm-7.94,0c0,2.55,1.06,4.4,3.06,4.4s3-1.8,3-4.42c0-2.44-1-4.12-3-4.12S362.72,247.35,362.72,249.79Z" transform="translate(-4.75 0)"/><path class="cls-2" d="M381.77,239.49v13.11c0,1.08,0,2.22,0,2.9H380c0-.29-0.07-1-0.07-1.65-0.59,1.3-1.5,1.85-3.32,1.85-2.88,0-4.33-2.44-4.33-5.76s1.67-5.81,4.71-5.81c1.8,0,2.64.73,2.95,1.34v-6h1.8Zm-4.64,14.65c2.4,0,2.9-1.83,2.9-4.44,0-3.08-.9-4-2.79-4s-3,1.5-3,4.16S375.37,254.15,377.13,254.15Z" transform="translate(-4.75 0)"/><path class="cls-2" d="M393.36,252.37c0,1.39,0,2.62,0,3.15h-1.76a11.35,11.35,0,0,1-.09-1.78,3.32,3.32,0,0,1-3.28,2c-1.74,0-3.41-.84-3.41-3.85v-7.5h1.8v7.15c0,1.45.46,2.62,2.16,2.62s2.68-1.08,2.68-3.54v-6.23h1.85v8Z" transform="translate(-4.75 0)"/><path class="cls-2" d="M405,251.95a4.29,4.29,0,0,1-4.49,3.79c-3.12,0-4.71-2.09-4.71-5.81,0-3.23,1.63-5.79,4.82-5.79A4.08,4.08,0,0,1,405,248h-1.83a2.51,2.51,0,0,0-2.55-2.4c-2,0-2.93,1.78-2.93,4.25,0,2.86,1,4.36,2.9,4.36,1.54,0,2.2-1,2.6-2.29H405Z" transform="translate(-4.75 0)"/><path class="cls-2" d="M406.19,244.36H408v-3.23h1.83v3.23H412v1.5H409.8v7c0,0.95.24,1.34,1.19,1.34a4.91,4.91,0,0,0,.86-0.09v1.39a4.85,4.85,0,0,1-1.45.18c-1.63,0-2.42-.62-2.42-2.46v-7.33h-1.78v-1.5Z" transform="translate(-4.75 0)"/><path class="cls-2" d="M419.61,240.33h5c3.85,0,6.78,2.44,6.78,7.22,0,5-2.57,8-7,8h-4.71V240.33ZM421.5,254h2.73c3.48,0,5.15-2.35,5.15-6.34,0-3.7-2-5.72-5.13-5.72H421.5V254Z" transform="translate(-4.75 0)"/><path class="cls-2" d="M443.15,249.75c0,3.23-1.41,6-5,6s-4.84-2.84-4.84-5.9,1.61-5.68,5-5.68C441.45,244.14,443.15,246.53,443.15,249.75Zm-7.94,0c0,2.55,1.06,4.4,3.06,4.4s3-1.8,3-4.42c0-2.44-1-4.12-3-4.12S435.21,247.35,435.21,249.79Z" transform="translate(-4.75 0)"/><path class="cls-2" d="M454,251.95a4.29,4.29,0,0,1-4.49,3.79c-3.12,0-4.71-2.09-4.71-5.81,0-3.23,1.63-5.79,4.82-5.79A4.08,4.08,0,0,1,454,248h-1.83a2.51,2.51,0,0,0-2.55-2.4c-2,0-2.93,1.78-2.93,4.25,0,2.86,1,4.36,2.9,4.36,1.54,0,2.2-1,2.6-2.29H454Z" transform="translate(-4.75 0)"/><path class="cls-4" d="M11.06,37.48h1.85V42A2.15,2.15,0,0,1,15,40.86c1.85,0,2.7,1.6,2.7,4.56s-0.74,5-3,5a1.89,1.89,0,0,1-1.91-1.12c0,0.23,0,.65,0,1H11c0-.58,0-1.58,0-2.57V37.48Zm3.35,5c-1.17,0-1.55.94-1.55,3.22s0.32,3.15,1.46,3.15,1.53-1,1.53-3.4C15.85,43.47,15.49,42.46,14.41,42.46Z" transform="translate(-4.75 0)"/><path class="cls-4" d="M19.25,44.16c0-1.49,0-2.47,0-3.13H21a15.53,15.53,0,0,1,.05,1.57,2.39,2.39,0,0,1,2.43-1.71V43c-1.53,0-2.38.63-2.38,2.36v5H19.25V44.16Z" transform="translate(-4.75 0)"/><path class="cls-4" d="M30.3,48.39c0,0.5.05,1.51,0.07,1.89H28.68a6.32,6.32,0,0,1-.09-0.92,2.2,2.2,0,0,1-2.12,1.08A2.45,2.45,0,0,1,24,47.72c0-1.84,1.26-3,3.64-3a5.57,5.57,0,0,1,.83,0v-1.1a1.08,1.08,0,0,0-1.13-1.31,1.14,1.14,0,0,0-1.21,1.31H24.38c0-1.35.67-2.77,3-2.77,1.91,0,2.88.9,2.88,2.65v4.88ZM28.52,46.1a4.71,4.71,0,0,0-.77,0c-1.35,0-1.87.65-1.87,1.49a1.19,1.19,0,0,0,1.19,1.35c1.17,0,1.46-.86,1.46-2.43V46.1Z" transform="translate(-4.75 0)"/><path class="cls-4" d="M32.32,43.9c0-1.91,0-2.41,0-2.88h1.8a7.82,7.82,0,0,1,.05,1,2.17,2.17,0,0,1,2.11-1.21c1.44,0,2.38.88,2.38,2.81v6.61H36.77V44.08c0-1-.25-1.62-1.17-1.62s-1.4.58-1.4,2.16v5.65H32.32V43.9Z" transform="translate(-4.75 0)"/><path class="cls-4" d="M46.58,47.25a3,3,0,0,1-3.15,3.19c-2.58,0-3.24-2.12-3.24-4.86,0-2.5.83-4.72,3.35-4.72a2.89,2.89,0,0,1,3,3.08H44.69c0-.36-0.09-1.53-1.17-1.53s-1.44,1.19-1.44,3.19,0.38,3.28,1.4,3.28,1.22-1.12,1.28-1.62h1.82Z" transform="translate(-4.75 0)"/><path class="cls-4" d="M49.83,37.48V42A2.18,2.18,0,0,1,52,40.86c1.48,0,2.32.94,2.32,2.86v6.55H52.41V44.1c0-1-.22-1.64-1.21-1.64s-1.37.83-1.37,2.2v5.62H48V37.48h1.85Z" transform="translate(-4.75 0)"/><path class="cls-4" d="M60.15,37.4A13.2,13.2,0,0,0,57.84,45a13.9,13.9,0,0,0,2.3,7.76H58.42A13.77,13.77,0,0,1,56.17,45a13.5,13.5,0,0,1,2.25-7.56h1.73Z" transform="translate(-4.75 0)"/><path class="cls-4" d="M62.43,46.1c0,1.39.2,2.79,1.48,2.79a1.38,1.38,0,0,0,1.39-1.37h1.8a3.09,3.09,0,0,1-3.22,2.94c-2.9,0-3.31-2.52-3.31-4.84,0-2.93,1.08-4.75,3.37-4.75,2.61,0,3.24,2,3.24,4.39,0,0.27,0,.67,0,0.85h-4.7Zm2.88-1.37c0-1.13-.18-2.32-1.39-2.32-1.39,0-1.46,1.66-1.48,2.32h2.86Z" transform="translate(-4.75 0)"/><path class="cls-4" d="M70,47.52A1.34,1.34,0,0,0,71.36,49a1.06,1.06,0,0,0,1.19-1.15c0-.76-0.36-1.13-1.49-1.57-2.09-.77-2.63-1.51-2.63-2.85a2.54,2.54,0,0,1,2.88-2.57,2.61,2.61,0,0,1,2.9,2.79H72.4a1.17,1.17,0,0,0-1.15-1.35,0.93,0.93,0,0,0-1,1c0,0.63.32,0.94,1.49,1.37,1.91,0.72,2.66,1.44,2.66,3,0,1.78-1.12,2.81-3.13,2.81a2.78,2.78,0,0,1-3.1-2.92H70Z" transform="translate(-4.75 0)"/><path class="cls-4" d="M75.07,52.75a13.32,13.32,0,0,0,2.29-7.56,14.14,14.14,0,0,0-2.29-7.78h1.71A13.88,13.88,0,0,1,79,45.2a13.48,13.48,0,0,1-2.25,7.54H75.07Z" transform="translate(-4.75 0)"/><rect class="cls-3" x="564.04" y="40.6" width="146.01" height="28" rx="7.03" ry="7.03"/><path class="cls-4" d="M11,72V62.11c0-1.26,0-2.11,0-2.68h1.8a8.76,8.76,0,0,1,.05,1.1A2.1,2.1,0,0,1,15,59.26c1.73,0,2.7,1.51,2.7,4.65,0,3.51-1.19,5-3,5a1.87,1.87,0,0,1-1.82-1V72H11Zm3.28-11.18c-1.19,0-1.48,1.13-1.48,3.08,0,2.14.14,3.31,1.44,3.31,1,0,1.53-1.15,1.53-3.26S15.33,60.87,14.32,60.87Z" transform="translate(-4.75 0)"/><path class="cls-4" d="M19.27,62.56c0-1.49,0-2.47,0-3.13H21A15.53,15.53,0,0,1,21.09,61a2.39,2.39,0,0,1,2.43-1.71v2.07c-1.53,0-2.38.63-2.38,2.36v5H19.27V62.56Z" transform="translate(-4.75 0)"/><path class="cls-4" d="M31,64c0,3.33-1.19,4.9-3.4,4.9S24.27,67.35,24.27,64s1.35-4.74,3.46-4.74S31,60.87,31,64Zm-4.88,0c0,2.16.43,3.28,1.51,3.28s1.48-1.12,1.48-3.26-0.43-3.17-1.48-3.17S26.16,61.84,26.16,64Z" transform="translate(-4.75 0)"/><path class="cls-4" d="M38.87,55.88v10.3c0,1,0,2,0,2.5h-1.8c0-.23-0.05-0.76-0.05-1.08a2,2,0,0,1-2.11,1.24c-1.93,0-2.72-1.71-2.72-4.88,0-2.86,1-4.7,3.06-4.7a1.71,1.71,0,0,1,1.73.81v-4.2h1.87ZM35.54,67.24c1.22,0,1.51-1,1.51-3.31s-0.23-3.06-1.4-3.06c-1,0-1.55.77-1.55,3.13S34.57,67.24,35.54,67.24Z" transform="translate(-4.75 0)"/><path class="cls-4" d="M47.1,66c0,1.3,0,2.2,0,2.66H45.33a8.38,8.38,0,0,1-.09-1.08,2.06,2.06,0,0,1-2.11,1.24c-1.22,0-2.3-.58-2.3-2.77V59.43H42.7v6.21c0,1,.23,1.6,1.1,1.6s1.42-.5,1.42-2.16V59.43H47.1V66Z" transform="translate(-4.75 0)"/><path class="cls-4" d="M55,65.66a3,3,0,0,1-3.15,3.19c-2.57,0-3.24-2.12-3.24-4.86,0-2.5.83-4.72,3.35-4.72a2.89,2.89,0,0,1,3,3.08H53.13c0-.36-0.09-1.53-1.17-1.53S50.52,62,50.52,64s0.38,3.28,1.4,3.28,1.22-1.12,1.28-1.62H55Z" transform="translate(-4.75 0)"/><path class="cls-4" d="M55.75,59.43H57V57.07h1.85v2.36h1.49V61H58.85v5.4c0,0.58.11,0.9,0.79,0.9a2.63,2.63,0,0,0,.56,0v1.39a3.31,3.31,0,0,1-1.22.18c-1.35,0-2-.5-2-2.11V61H55.75V59.43Z" transform="translate(-4.75 0)"/><path class="cls-4" d="M65.42,55.81a13.2,13.2,0,0,0-2.3,7.58,13.9,13.9,0,0,0,2.3,7.76H63.69a13.77,13.77,0,0,1-2.25-7.78,13.5,13.5,0,0,1,2.25-7.56h1.73Z" transform="translate(-4.75 0)"/><path class="cls-4" d="M67.6,65.93a1.34,1.34,0,0,0,1.35,1.48,1.06,1.06,0,0,0,1.19-1.15c0-.76-0.36-1.13-1.49-1.57C66.55,63.91,66,63.17,66,61.84a2.54,2.54,0,0,1,2.88-2.57,2.61,2.61,0,0,1,2.9,2.79H70a1.17,1.17,0,0,0-1.15-1.35,0.93,0.93,0,0,0-1,1c0,0.63.32,0.94,1.49,1.37C71.23,63.8,72,64.52,72,66c0,1.78-1.12,2.81-3.13,2.81a2.77,2.77,0,0,1-3.1-2.92H67.6Z" transform="translate(-4.75 0)"/><path class="cls-4" d="M72.65,71.15a13.32,13.32,0,0,0,2.29-7.56,14.14,14.14,0,0,0-2.29-7.78h1.71a13.88,13.88,0,0,1,2.25,7.8,13.48,13.48,0,0,1-2.25,7.54H72.65Z" transform="translate(-4.75 0)"/><rect class="cls-3" x="564.04" y="122.61" width="146.01" height="28" rx="7.03" ry="7.03"/><rect class="cls-3" x="564.37" y="241.15" width="209.03" height="28" rx="8.41" ry="8.41"/><rect class="cls-3" x="564.82" y="276.55" width="209.03" height="28" rx="8.41" ry="8.41"/><path class="cls-2" d="M576.44,142.75v-16h1.83v16h-1.83Z" transform="translate(-4.75 0)"/><path class="cls-2" d="M580,131.59h1.78v-3.23h1.83v3.23h2.25v1.5h-2.25v7c0,0.95.24,1.34,1.19,1.34a4.91,4.91,0,0,0,.86-0.09v1.39a4.88,4.88,0,0,1-1.45.18c-1.63,0-2.42-.62-2.42-2.46v-7.33H580v-1.5Z" transform="translate(-4.75 0)"/><path class="cls-2" d="M596.51,126.73v13.11c0,1.08,0,2.22,0,2.9h-1.78c0-.29-0.07-1-0.07-1.65-0.59,1.3-1.5,1.85-3.32,1.85-2.88,0-4.33-2.44-4.33-5.77s1.67-5.81,4.71-5.81c1.8,0,2.64.73,2.95,1.34v-6h1.8Zm-4.64,14.65c2.4,0,2.9-1.83,2.9-4.44,0-3.08-.9-4-2.79-4s-3,1.5-3,4.16S590.1,141.39,591.86,141.39Z" transform="translate(-4.75 0)"/><path class="cls-2" d="M604.47,136.28v1.63h-5.35v-1.63h5.35Z" transform="translate(-4.75 0)"/><path class="cls-2" d="M608.89,136.81c1-1.14,3.26-3.63,4.6-5.21h2.13c-1.23,1.41-2.6,2.82-3.89,4.25,1.34,2.13,2.95,4.75,4.33,6.91h-2.13c-0.9-1.47-2.44-4-3.43-5.68-0.31.33-1.3,1.32-1.61,1.63v4h-1.83v-16h1.83v10.08Z" transform="translate(-4.75 0)"/><path class="cls-2" d="M618.46,137.51c0,2.25.95,3.92,2.9,3.92a2.56,2.56,0,0,0,2.57-1.83h1.78a4.26,4.26,0,0,1-4.44,3.37c-3.48,0-4.67-2.75-4.67-5.83,0-2.75,1.34-5.76,4.77-5.76s4.51,2.73,4.51,5.3v0.84h-7.44Zm5.63-1.32c0-1.91-.81-3.34-2.75-3.34-2.2,0-2.73,2-2.84,3.34h5.59Z" transform="translate(-4.75 0)"/><path class="cls-2" d="M629.53,137.51c0,2.25.95,3.92,2.9,3.92A2.56,2.56,0,0,0,635,139.6h1.78a4.26,4.26,0,0,1-4.44,3.37c-3.48,0-4.67-2.75-4.67-5.83,0-2.75,1.34-5.76,4.77-5.76s4.51,2.73,4.51,5.3v0.84h-7.44Zm5.63-1.32c0-1.91-.81-3.34-2.75-3.34-2.2,0-2.73,2-2.84,3.34h5.59Z" transform="translate(-4.75 0)"/><path class="cls-2" d="M639.38,147.17v-12.3c0-1.52,0-2.6,0-3.28h1.8c0,0.37,0,1.17,0,1.8a3.59,3.59,0,0,1,3.48-2c2.44,0,4.18,1.91,4.18,5.61s-2,5.94-4.62,5.94a3.17,3.17,0,0,1-3-1.52v5.77h-1.8ZM644.09,133c-2.29,0-3,1.56-3,4.25,0,2.46.46,4.16,2.86,4.16,1.87,0,3-1.54,3-4.31S645.87,133,644.09,133Z" transform="translate(-4.75 0)"/><path class="cls-2" d="M652.38,137.51c0,2.25.95,3.92,2.9,3.92a2.56,2.56,0,0,0,2.57-1.83h1.78A4.26,4.26,0,0,1,655.2,143c-3.48,0-4.67-2.75-4.67-5.83,0-2.75,1.34-5.76,4.77-5.76s4.51,2.73,4.51,5.3v0.84h-7.44Zm5.63-1.32c0-1.91-.81-3.34-2.75-3.34-2.2,0-2.73,2-2.84,3.34H658Z" transform="translate(-4.75 0)"/><path class="cls-2" d="M662.24,135.38c0-1.78,0-3.23,0-3.79H664c0,0.53,0,1.23,0,2.27a3.74,3.74,0,0,1,3.61-2.46v1.89c-2.51.09-3.56,1.56-3.56,4v5.48h-1.83v-7.37Z" transform="translate(-4.75 0)"/><path class="cls-2" d="M674.08,136.28v1.63h-5.35v-1.63h5.35Z" transform="translate(-4.75 0)"/><path class="cls-2" d="M685.78,126.73v13.11c0,1.08,0,2.22,0,2.9H684c0-.29-0.07-1-0.07-1.65-0.59,1.3-1.5,1.85-3.32,1.85-2.88,0-4.33-2.44-4.33-5.77s1.67-5.81,4.71-5.81c1.8,0,2.64.73,2.95,1.34v-6h1.8Zm-4.64,14.65c2.4,0,2.9-1.83,2.9-4.44,0-3.08-.9-4-2.79-4s-3,1.5-3,4.16S679.38,141.39,681.14,141.39Z" transform="translate(-4.75 0)"/><path class="cls-2" d="M689,126.73h1.83v6.4a3.59,3.59,0,0,1,3.34-1.76c2.71,0,4.29,2.22,4.29,5.46,0,3.39-1.43,6.12-4.62,6.12a3.07,3.07,0,0,1-3-1.61,10.31,10.31,0,0,1-.07,1.41H689c0-.62,0-1.78,0-3.17V126.73Zm4.73,6.23c-2.22,0-3,1.43-3,4.07s0.64,4.33,2.95,4.33c2,0,2.93-1.85,2.93-4.47C696.6,134.54,695.66,133,693.74,133Z" transform="translate(-4.75 0)"/><path class="cls-2" d="M576.44,61.05V45h1.83v16h-1.83Z" transform="translate(-4.75 0)"/><path class="cls-2" d="M580,49.9h1.78V46.66h1.83V49.9h2.24v1.5h-2.24v7c0,0.95.24,1.34,1.19,1.34a4.91,4.91,0,0,0,.86-0.09V61a4.86,4.86,0,0,1-1.45.18c-1.63,0-2.42-.62-2.42-2.46V51.39H580V49.9Z" transform="translate(-4.75 0)"/><path class="cls-2" d="M596.51,45V58.15c0,1.08,0,2.22,0,2.9h-1.78c0-.29-0.07-1-0.07-1.65-0.59,1.3-1.5,1.85-3.32,1.85-2.88,0-4.33-2.44-4.33-5.77s1.67-5.81,4.71-5.81c1.8,0,2.64.73,2.95,1.34V45h1.8Zm-4.64,14.65c2.4,0,2.9-1.83,2.9-4.44,0-3.08-.9-4-2.79-4s-3,1.5-3,4.16S590.1,59.69,591.86,59.69Z" transform="translate(-4.75 0)"/><path class="cls-2" d="M604.47,54.58v1.63h-5.35V54.58h5.35Z" transform="translate(-4.75 0)"/><path class="cls-2" d="M608.89,55.11c1-1.14,3.26-3.63,4.6-5.21h2.13c-1.23,1.41-2.6,2.82-3.89,4.25,1.34,2.13,2.95,4.75,4.33,6.91h-2.13c-0.9-1.47-2.44-4-3.43-5.68-0.31.33-1.3,1.32-1.61,1.63v4h-1.83V45h1.83V55.11Z" transform="translate(-4.75 0)"/><path class="cls-2" d="M618.46,55.81c0,2.24.95,3.92,2.9,3.92a2.56,2.56,0,0,0,2.57-1.83h1.78a4.26,4.26,0,0,1-4.44,3.37c-3.48,0-4.67-2.75-4.67-5.83,0-2.75,1.34-5.76,4.78-5.76s4.51,2.73,4.51,5.3v0.84h-7.44Zm5.63-1.32c0-1.91-.81-3.34-2.75-3.34-2.2,0-2.73,2-2.84,3.34h5.59Z" transform="translate(-4.75 0)"/><path class="cls-2" d="M629.53,55.81c0,2.24.95,3.92,2.9,3.92A2.56,2.56,0,0,0,635,57.9h1.78a4.26,4.26,0,0,1-4.44,3.37c-3.48,0-4.67-2.75-4.67-5.83,0-2.75,1.34-5.76,4.78-5.76S637,52.4,637,55v0.84h-7.44Zm5.63-1.32c0-1.91-.81-3.34-2.75-3.34-2.2,0-2.73,2-2.84,3.34h5.59Z" transform="translate(-4.75 0)"/><path class="cls-2" d="M639.38,65.47V53.17c0-1.52,0-2.6,0-3.28h1.8c0,0.37,0,1.17,0,1.8a3.59,3.59,0,0,1,3.48-2c2.44,0,4.18,1.91,4.18,5.61s-2,5.94-4.62,5.94a3.18,3.18,0,0,1-3-1.52v5.77h-1.8Zm4.71-14.21c-2.29,0-3,1.56-3,4.25,0,2.46.46,4.16,2.86,4.16,1.87,0,3-1.54,3-4.31S645.87,51.26,644.09,51.26Z" transform="translate(-4.75 0)"/><path class="cls-2" d="M652.38,55.81c0,2.24.95,3.92,2.9,3.92a2.56,2.56,0,0,0,2.57-1.83h1.78a4.26,4.26,0,0,1-4.44,3.37c-3.48,0-4.67-2.75-4.67-5.83,0-2.75,1.34-5.76,4.78-5.76s4.51,2.73,4.51,5.3v0.84h-7.44ZM658,54.49c0-1.91-.81-3.34-2.75-3.34-2.2,0-2.73,2-2.84,3.34H658Z" transform="translate(-4.75 0)"/><path class="cls-2" d="M662.24,53.68c0-1.78,0-3.23,0-3.78H664c0,0.53,0,1.23,0,2.27a3.74,3.74,0,0,1,3.61-2.46v1.89c-2.51.09-3.56,1.56-3.56,4v5.48h-1.83V53.68Z" transform="translate(-4.75 0)"/><path class="cls-2" d="M674.08,54.58v1.63h-5.35V54.58h5.35Z" transform="translate(-4.75 0)"/><path class="cls-2" d="M684.59,58.56a21,21,0,0,0,.15,2.49H683.1a10.16,10.16,0,0,1-.15-1.72,3.32,3.32,0,0,1-3.39,1.91A3.2,3.2,0,0,1,676,57.86c0-1.67,1.08-3.54,5.06-3.54h1.72V53.24c0-1.06-.31-2.16-2.2-2.16a2,2,0,0,0-2.35,2h-1.78c0.15-1.87,1.23-3.39,4.2-3.39,2.33,0,3.94.95,3.94,3.48v5.41Zm-1.76-2.93h-1.76c-2.71,0-3.21,1.1-3.21,2.11a1.89,1.89,0,0,0,2.07,2c2.2,0,2.9-1.5,2.9-3.87V55.64Z" transform="translate(-4.75 0)"/><path class="cls-2" d="M687.8,65.47V53.17c0-1.52,0-2.6,0-3.28h1.8c0,0.37,0,1.17,0,1.8a3.59,3.59,0,0,1,3.48-2c2.44,0,4.18,1.91,4.18,5.61s-2,5.94-4.62,5.94a3.18,3.18,0,0,1-3-1.52v5.77h-1.8Zm4.71-14.21c-2.29,0-3,1.56-3,4.25,0,2.46.46,4.16,2.86,4.16,1.87,0,3-1.54,3-4.31S694.29,51.26,692.51,51.26Z" transform="translate(-4.75 0)"/><path class="cls-2" d="M699.7,65.47V53.17c0-1.52,0-2.6,0-3.28h1.8c0,0.37,0,1.17,0,1.8a3.59,3.59,0,0,1,3.48-2c2.44,0,4.18,1.91,4.18,5.61s-2,5.94-4.62,5.94a3.17,3.17,0,0,1-3-1.52v5.77h-1.8Zm4.71-14.21c-2.29,0-3,1.56-3,4.25,0,2.46.46,4.16,2.86,4.16,1.87,0,3-1.54,3-4.31S706.2,51.26,704.41,51.26Z" transform="translate(-4.75 0)"/><path class="cls-2" d="M576.42,245.94h1.83v6.4a3.58,3.58,0,0,1,3.34-1.76c2.71,0,4.29,2.22,4.29,5.46,0,3.39-1.43,6.12-4.62,6.12a3.07,3.07,0,0,1-3-1.61,10,10,0,0,1-.07,1.41h-1.78c0-.62,0-1.78,0-3.17V245.94Zm4.73,6.23c-2.22,0-3,1.43-3,4.07s0.64,4.33,2.95,4.33c2,0,2.93-1.85,2.93-4.47C584,253.75,583.06,252.17,581.15,252.17Z" transform="translate(-4.75 0)"/><path class="cls-2" d="M596.77,258.81c0,1.39,0,2.62,0,3.15h-1.76a11.28,11.28,0,0,1-.09-1.78,3.32,3.32,0,0,1-3.28,2c-1.74,0-3.41-.84-3.41-3.85v-7.5h1.8V258c0,1.45.46,2.62,2.16,2.62s2.68-1.08,2.68-3.54V250.8h1.85v8Z" transform="translate(-4.75 0)"/><path class="cls-2" d="M608.43,258.39a4.29,4.29,0,0,1-4.49,3.79c-3.12,0-4.71-2.09-4.71-5.81,0-3.23,1.63-5.79,4.82-5.79a4.08,4.08,0,0,1,4.36,3.89h-1.83a2.51,2.51,0,0,0-2.55-2.4c-2,0-2.93,1.78-2.93,4.25,0,2.86,1,4.36,2.9,4.36,1.54,0,2.2-1,2.6-2.29h1.83Z" transform="translate(-4.75 0)"/><path class="cls-2" d="M612.52,256c1-1.14,3.26-3.63,4.6-5.21h2.13c-1.23,1.41-2.6,2.82-3.89,4.25,1.34,2.13,2.95,4.75,4.33,6.91h-2.13c-0.9-1.47-2.44-4-3.43-5.68-0.31.33-1.3,1.32-1.61,1.63v4H610.7v-16h1.83V256Z" transform="translate(-4.75 0)"/><path class="cls-2" d="M622.09,256.72c0,2.24.95,3.92,2.9,3.92a2.56,2.56,0,0,0,2.57-1.83h1.78a4.26,4.26,0,0,1-4.44,3.37c-3.48,0-4.67-2.75-4.67-5.83,0-2.75,1.34-5.76,4.78-5.76s4.51,2.73,4.51,5.3v0.84h-7.44Zm5.63-1.32c0-1.91-.81-3.34-2.75-3.34-2.2,0-2.73,2-2.84,3.34h5.59Z" transform="translate(-4.75 0)"/><path class="cls-2" d="M630.63,250.8h1.78v-3.23h1.83v3.23h2.25v1.5h-2.25v7c0,0.95.24,1.34,1.19,1.34a4.91,4.91,0,0,0,.86-0.09v1.39a4.85,4.85,0,0,1-1.45.18c-1.63,0-2.42-.62-2.42-2.46V252.3h-1.78v-1.5Z" transform="translate(-4.75 0)"/><path class="cls-2" d="M644,265.59V245.94h4.42v1.39h-2.88v16.9h2.88v1.36H644Z" transform="translate(-4.75 0)"/><path class="cls-2" d="M650.63,266.38v-12.3c0-1.52,0-2.6,0-3.28h1.8c0,0.37,0,1.17,0,1.8a3.59,3.59,0,0,1,3.48-2c2.44,0,4.18,1.91,4.18,5.61s-2,5.94-4.62,5.94a3.18,3.18,0,0,1-3-1.52v5.76h-1.8Zm4.71-14.21c-2.29,0-3,1.56-3,4.25,0,2.46.46,4.16,2.86,4.16,1.87,0,3-1.54,3-4.31S657.12,252.17,655.33,252.17Z" transform="translate(-4.75 0)"/><path class="cls-2" d="M662.53,254.59c0-1.78,0-3.23,0-3.78h1.78c0,0.53,0,1.23,0,2.27a3.74,3.74,0,0,1,3.61-2.46v1.89c-2.51.09-3.56,1.56-3.56,4V262h-1.83v-7.37Z" transform="translate(-4.75 0)"/><path class="cls-2" d="M678.74,256.19c0,3.23-1.41,6-5,6s-4.84-2.84-4.84-5.9,1.61-5.68,5-5.68C677,250.58,678.74,253,678.74,256.19Zm-7.94,0c0,2.55,1.06,4.4,3.06,4.4s3-1.8,3-4.42c0-2.44-1-4.12-3-4.12S670.8,253.8,670.8,256.24Z" transform="translate(-4.75 0)"/><path class="cls-2" d="M689.85,245.94v13.11c0,1.08,0,2.22,0,2.9h-1.78c0-.29-0.07-1-0.07-1.65-0.59,1.3-1.5,1.85-3.32,1.85-2.88,0-4.33-2.44-4.33-5.76s1.67-5.81,4.71-5.81c1.8,0,2.64.73,2.95,1.34v-6h1.8Zm-4.64,14.65c2.4,0,2.9-1.83,2.9-4.44,0-3.08-.9-4-2.79-4s-3,1.5-3,4.16S683.45,260.59,685.21,260.59Z" transform="translate(-4.75 0)"/><path class="cls-2" d="M697.81,255.49v1.63h-5.35v-1.63h5.35Z" transform="translate(-4.75 0)"/><path class="cls-2" d="M700.78,250.8c1.45,2.44,2.16,3.59,2.51,4.22h0c0.44-.75,1.36-2.18,2.62-4.22h2l-3.56,5.35,3.59,5.81h-2.09c-1.28-2.16-2.2-3.67-2.62-4.4h0c-0.33.62-1.3,2.29-2.6,4.4h-2l3.54-5.54-3.43-5.61h2.07Z" transform="translate(-4.75 0)"/><path class="cls-2" d="M709,264.56a15,15,0,0,0,1.39-5.66h1.78a12.12,12.12,0,0,1-1.65,5.66H709Z" transform="translate(-4.75 0)"/><path class="cls-2" d="M720.52,250.8c1.5,4.73,2.49,7.86,2.84,9.42h0c0.22-1.32,2.16-7,2.95-9.42h1.8L724.28,262h-2l-3.72-11.16h2Z" transform="translate(-4.75 0)"/><path class="cls-2" d="M731.05,256.72c0,2.24.95,3.92,2.9,3.92a2.56,2.56,0,0,0,2.57-1.83h1.78a4.26,4.26,0,0,1-4.44,3.37c-3.48,0-4.67-2.75-4.67-5.83,0-2.75,1.34-5.76,4.78-5.76s4.51,2.73,4.51,5.3v0.84h-7.44Zm5.63-1.32c0-1.91-.81-3.34-2.75-3.34-2.2,0-2.73,2-2.84,3.34h5.59Z" transform="translate(-4.75 0)"/><path class="cls-2" d="M740.91,254.59c0-1.78,0-3.23,0-3.78h1.78c0,0.53,0,1.23,0,2.27a3.75,3.75,0,0,1,3.61-2.46v1.89c-2.51.09-3.56,1.56-3.56,4V262h-1.83v-7.37Z" transform="translate(-4.75 0)"/><path class="cls-2" d="M749.14,258.72a2.3,2.3,0,0,0,2.51,2c1.54,0,2.13-.81,2.13-1.76s-0.7-1.54-2.6-2c-2.73-.75-3.43-1.74-3.43-3.24s1-3.1,3.74-3.1,3.74,1.5,3.89,3.21h-1.8A2,2,0,0,0,751.4,252c-1.25,0-1.83.59-1.83,1.52s0.42,1.3,2.29,1.78c2.84,0.77,3.74,1.72,3.74,3.5,0,2.07-1.63,3.34-4,3.34s-4-1.1-4.25-3.43h1.8Z" transform="translate(-4.75 0)"/><path class="cls-2" d="M762.82,255.49v1.63h-5.35v-1.63h5.35Z" transform="translate(-4.75 0)"/><path class="cls-2" d="M765.42,248.29v-2.35h1.83v2.35h-1.83Zm0,2.51h1.83V262h-1.83V250.8Z" transform="translate(-4.75 0)"/><path class="cls-2" d="M774.19,245.94v19.65h-4.42v-1.36h2.88V247.35h-2.88v-1.41h4.42Z" transform="translate(-4.75 0)"/><path class="cls-2" d="M576.42,280.86h1.83v6.4a3.59,3.59,0,0,1,3.34-1.76c2.71,0,4.29,2.22,4.29,5.46,0,3.39-1.43,6.12-4.62,6.12a3.07,3.07,0,0,1-3-1.61,10.31,10.31,0,0,1-.07,1.41h-1.78c0-.62,0-1.78,0-3.17V280.86Zm4.73,6.23c-2.22,0-3,1.43-3,4.07s0.64,4.33,2.95,4.33c2,0,2.93-1.85,2.93-4.47C584,288.67,583.06,287.09,581.15,287.09Z" transform="translate(-4.75 0)"/><path class="cls-2" d="M596.77,293.73c0,1.39,0,2.62,0,3.15h-1.76a11.32,11.32,0,0,1-.09-1.78,3.32,3.32,0,0,1-3.28,2c-1.74,0-3.41-.84-3.41-3.85v-7.5h1.8v7.15c0,1.45.46,2.62,2.16,2.62s2.68-1.08,2.68-3.54v-6.23h1.85v8Z" transform="translate(-4.75 0)"/><path class="cls-2" d="M608.43,293.32a4.29,4.29,0,0,1-4.49,3.78c-3.12,0-4.71-2.09-4.71-5.81,0-3.23,1.63-5.79,4.82-5.79a4.08,4.08,0,0,1,4.36,3.89h-1.83A2.51,2.51,0,0,0,604,287c-2,0-2.93,1.78-2.93,4.25,0,2.86,1,4.36,2.9,4.36,1.54,0,2.2-1,2.6-2.29h1.83Z" transform="translate(-4.75 0)"/><path class="cls-2" d="M612.52,290.94c1-1.14,3.26-3.63,4.6-5.21h2.13c-1.23,1.41-2.6,2.82-3.89,4.25,1.34,2.13,2.95,4.75,4.33,6.91h-2.13c-0.9-1.47-2.44-4-3.43-5.68-0.31.33-1.3,1.32-1.61,1.63v4H610.7v-16h1.83v10.08Z" transform="translate(-4.75 0)"/><path class="cls-2" d="M622.09,291.64c0,2.25.95,3.92,2.9,3.92a2.56,2.56,0,0,0,2.57-1.83h1.78a4.26,4.26,0,0,1-4.44,3.37c-3.48,0-4.67-2.75-4.67-5.83,0-2.75,1.34-5.76,4.77-5.76s4.51,2.73,4.51,5.3v0.84h-7.44Zm5.63-1.32c0-1.91-.81-3.34-2.75-3.34-2.2,0-2.73,2-2.84,3.34h5.59Z" transform="translate(-4.75 0)"/><path class="cls-2" d="M630.63,285.72h1.78v-3.23h1.83v3.23h2.24v1.5h-2.24v7c0,0.95.24,1.34,1.19,1.34a4.91,4.91,0,0,0,.86-0.09v1.39a4.88,4.88,0,0,1-1.45.18c-1.63,0-2.42-.62-2.42-2.46v-7.33h-1.78v-1.5Z" transform="translate(-4.75 0)"/><path class="cls-2" d="M644,300.51V280.86h4.42v1.39h-2.88v16.9h2.88v1.36H644Z" transform="translate(-4.75 0)"/><path class="cls-2" d="M650.62,301.3V289c0-1.52,0-2.6,0-3.28h1.8c0,0.37,0,1.17,0,1.8a3.59,3.59,0,0,1,3.48-2c2.44,0,4.18,1.91,4.18,5.61s-2,5.94-4.62,5.94a3.17,3.17,0,0,1-3-1.52v5.77h-1.8Zm4.71-14.21c-2.29,0-3,1.56-3,4.25,0,2.46.46,4.16,2.86,4.16,1.87,0,3-1.54,3-4.31S657.12,287.09,655.33,287.09Z" transform="translate(-4.75 0)"/><path class="cls-2" d="M662.53,289.51c0-1.78,0-3.23,0-3.79h1.78c0,0.53,0,1.23,0,2.27a3.74,3.74,0,0,1,3.61-2.46v1.89c-2.51.09-3.56,1.56-3.56,4v5.48h-1.83v-7.37Z" transform="translate(-4.75 0)"/><path class="cls-2" d="M678.74,291.11c0,3.23-1.41,6-5,6s-4.84-2.84-4.84-5.9,1.61-5.68,5-5.68C677,285.5,678.74,287.9,678.74,291.11Zm-7.94,0c0,2.55,1.06,4.4,3.06,4.4s3-1.8,3-4.42c0-2.44-1-4.11-3-4.11S670.8,288.72,670.8,291.16Z" transform="translate(-4.75 0)"/><path class="cls-2" d="M689.85,280.86V294c0,1.08,0,2.22,0,2.9h-1.78c0-.29-0.07-1-0.07-1.65-0.59,1.3-1.5,1.85-3.32,1.85-2.88,0-4.33-2.44-4.33-5.77s1.67-5.81,4.71-5.81c1.8,0,2.64.73,2.95,1.34v-6h1.8Zm-4.64,14.65c2.4,0,2.9-1.83,2.9-4.44,0-3.08-.9-4-2.79-4s-3,1.5-3,4.16S683.45,295.52,685.21,295.52Z" transform="translate(-4.75 0)"/><path class="cls-2" d="M697.81,290.41V292h-5.35v-1.63h5.35Z" transform="translate(-4.75 0)"/><path class="cls-2" d="M700.8,285.72c1.74,5.41,2.64,8.12,2.93,9.46h0c0.33-1.23,1.32-4.64,2.84-9.46h1.89l-3.92,11.66c-1.12,3.39-2,4.09-4,4.09a5,5,0,0,1-1-.09v-1.56a6.92,6.92,0,0,0,1,.07c1.34,0,1.76-1.08,2.29-2.66l-4-11.51h2Z" transform="translate(-4.75 0)"/><path class="cls-2" d="M707.65,299.48a15,15,0,0,0,1.39-5.65h1.78a12.11,12.11,0,0,1-1.65,5.65h-1.52Z" transform="translate(-4.75 0)"/><path class="cls-2" d="M719.15,285.72c1.5,4.73,2.49,7.86,2.84,9.42h0c0.22-1.32,2.16-7,2.95-9.42h1.8l-3.85,11.16h-2l-3.72-11.16h2Z" transform="translate(-4.75 0)"/><path class="cls-2" d="M729.69,291.64c0,2.25.95,3.92,2.9,3.92a2.56,2.56,0,0,0,2.57-1.83H737a4.26,4.26,0,0,1-4.44,3.37c-3.48,0-4.67-2.75-4.67-5.83,0-2.75,1.34-5.76,4.77-5.76s4.51,2.73,4.51,5.3v0.84h-7.44Zm5.63-1.32c0-1.91-.81-3.34-2.75-3.34-2.2,0-2.73,2-2.84,3.34h5.59Z" transform="translate(-4.75 0)"/><path class="cls-2" d="M739.55,289.51c0-1.78,0-3.23,0-3.79h1.78c0,0.53,0,1.23,0,2.27a3.74,3.74,0,0,1,3.61-2.46v1.89c-2.51.09-3.56,1.56-3.56,4v5.48h-1.83v-7.37Z" transform="translate(-4.75 0)"/><path class="cls-2" d="M747.77,293.65a2.3,2.3,0,0,0,2.51,2c1.54,0,2.13-.81,2.13-1.76s-0.7-1.54-2.6-2c-2.73-.75-3.43-1.74-3.43-3.23s1-3.1,3.74-3.1,3.74,1.5,3.89,3.21h-1.8a2,2,0,0,0-2.18-1.78c-1.25,0-1.83.59-1.83,1.52s0.42,1.3,2.29,1.78c2.84,0.77,3.74,1.72,3.74,3.5,0,2.07-1.63,3.34-4,3.34s-4-1.1-4.25-3.43h1.8Z" transform="translate(-4.75 0)"/><path class="cls-2" d="M761.46,290.41V292h-5.35v-1.63h5.35Z" transform="translate(-4.75 0)"/><path class="cls-2" d="M765.88,285.72v11.44c0,2.49-.29,4.31-2.91,4.31a5.22,5.22,0,0,1-.7,0v-1.58a5.69,5.69,0,0,0,.57,0c1.17,0,1.21-.95,1.21-2.27V285.72h1.83Zm-1.83-2.51v-2.35h1.83v2.35h-1.83Z" transform="translate(-4.75 0)"/><path class="cls-2" d="M772.83,280.86v19.65h-4.42v-1.36h2.88V282.27h-2.88v-1.41h4.42Z" transform="translate(-4.75 0)"/><path class="cls-2" d="M118.89,240.33H124c2.82,0,4.91,1.45,4.91,4.2,0,3-2.09,4.44-5.17,4.44h-2.95v6.54h-1.89V240.33Zm1.89,7.08h2.88c2,0,3.3-.68,3.3-2.86,0-1.83-1.32-2.66-3.28-2.66h-2.9v5.52Z" transform="translate(-4.75 0)"/><path class="cls-2" d="M138.63,253a21,21,0,0,0,.15,2.49h-1.65a10.16,10.16,0,0,1-.15-1.72,3.32,3.32,0,0,1-3.39,1.92,3.2,3.2,0,0,1-3.54-3.39c0-1.67,1.08-3.54,5.06-3.54h1.72V247.7c0-1.06-.31-2.16-2.2-2.16a2,2,0,0,0-2.35,2h-1.78c0.15-1.87,1.23-3.39,4.2-3.39,2.33,0,3.94.95,3.94,3.48V253Zm-1.76-2.93h-1.76c-2.71,0-3.21,1.1-3.21,2.11a1.89,1.89,0,0,0,2.07,2c2.2,0,2.9-1.5,2.9-3.87V250.1Z" transform="translate(-4.75 0)"/><path class="cls-2" d="M150.29,251.95a4.29,4.29,0,0,1-4.49,3.78c-3.12,0-4.71-2.09-4.71-5.81,0-3.23,1.63-5.79,4.82-5.79a4.08,4.08,0,0,1,4.36,3.89h-1.83a2.51,2.51,0,0,0-2.55-2.4c-2,0-2.93,1.78-2.93,4.25,0,2.86,1,4.36,2.9,4.36,1.54,0,2.2-1,2.6-2.29h1.83Z" transform="translate(-4.75 0)"/><path class="cls-2" d="M154.38,249.57c1-1.14,3.26-3.63,4.6-5.21h2.13c-1.23,1.41-2.6,2.82-3.89,4.25,1.34,2.13,2.95,4.75,4.33,6.91h-2.13c-0.9-1.47-2.44-4-3.43-5.68-0.31.33-1.3,1.32-1.61,1.63v4h-1.83v-16h1.83v10.08Z" transform="translate(-4.75 0)"/><path class="cls-2" d="M171.05,253a21,21,0,0,0,.15,2.49h-1.65a10.16,10.16,0,0,1-.15-1.72,3.32,3.32,0,0,1-3.39,1.92,3.2,3.2,0,0,1-3.54-3.39c0-1.67,1.08-3.54,5.06-3.54h1.72V247.7c0-1.06-.31-2.16-2.2-2.16a2,2,0,0,0-2.35,2h-1.78c0.15-1.87,1.23-3.39,4.2-3.39,2.33,0,3.94.95,3.94,3.48V253Zm-1.76-2.93h-1.76c-2.71,0-3.21,1.1-3.21,2.11a1.89,1.89,0,0,0,2.07,2c2.2,0,2.9-1.5,2.9-3.87V250.1Z" transform="translate(-4.75 0)"/><path class="cls-2" d="M182.89,254.65c0,3.5-1.41,5.46-4.8,5.46s-4.25-1.76-4.4-3.34h1.8c0.26,1.25,1.25,1.85,2.68,1.85,2.38,0,2.93-1.56,2.93-4v-0.9c-0.57,1.23-1.54,1.83-3.28,1.83-2.62,0-4.31-2.2-4.31-5.65,0-3.61,2-5.74,4.58-5.74,1.76,0,2.66.73,3,1.58a10.33,10.33,0,0,1,.09-1.36h1.78c0,0.53,0,1.72,0,3.24v7.06Zm-4.62-.7c2.13,0,2.88-1.34,2.88-4.14s-0.62-4.09-2.77-4.09c-1.85,0-3,1.54-3,4.14S176.51,253.95,178.27,253.95Z" transform="translate(-4.75 0)"/><path class="cls-2" d="M187.18,250.27c0,2.25.95,3.92,2.9,3.92a2.56,2.56,0,0,0,2.57-1.83h1.78a4.26,4.26,0,0,1-4.44,3.37c-3.48,0-4.67-2.75-4.67-5.83,0-2.75,1.34-5.76,4.77-5.76s4.51,2.73,4.51,5.3v0.84h-7.44Zm5.63-1.32c0-1.91-.81-3.34-2.75-3.34-2.2,0-2.73,2-2.84,3.34h5.59Z" transform="translate(-4.75 0)"/><path class="cls-2" d="M201.54,255.51V255.4c0-1.56.84-3.85,4.16-6.56,2.11-1.76,2.95-2.44,2.95-4.16a2.34,2.34,0,0,0-2.46-2.57c-1.8,0-2.55,1.14-2.77,2.9h-1.76c0.15-2.33,1.45-4.42,4.6-4.42,2.9,0,4.29,1.87,4.29,4s-1,3.23-3.61,5.33a9.59,9.59,0,0,0-3.19,4H211l-0.24,1.58h-9.2Z" transform="translate(-4.75 0)"/><path class="cls-2" d="M118.89,279.37H124c2.82,0,4.91,1.45,4.91,4.2,0,3-2.09,4.44-5.17,4.44h-2.95v6.54h-1.89V279.37Zm1.89,7.08h2.88c2,0,3.3-.68,3.3-2.86,0-1.83-1.32-2.66-3.28-2.66h-2.9v5.52Z" transform="translate(-4.75 0)"/><path class="cls-2" d="M138.63,292.07a20.93,20.93,0,0,0,.15,2.49h-1.65a10.15,10.15,0,0,1-.15-1.72,3.31,3.31,0,0,1-3.39,1.91,3.2,3.2,0,0,1-3.54-3.39c0-1.67,1.08-3.54,5.06-3.54h1.72v-1.08c0-1.06-.31-2.16-2.2-2.16a2,2,0,0,0-2.35,2h-1.78c0.15-1.87,1.23-3.39,4.2-3.39,2.33,0,3.94.95,3.94,3.48v5.41Zm-1.76-2.93h-1.76c-2.71,0-3.21,1.1-3.21,2.11a1.89,1.89,0,0,0,2.07,2c2.2,0,2.9-1.5,2.9-3.87v-0.24Z" transform="translate(-4.75 0)"/><path class="cls-2" d="M150.29,291a4.29,4.29,0,0,1-4.49,3.79c-3.12,0-4.71-2.09-4.71-5.81,0-3.23,1.63-5.79,4.82-5.79a4.08,4.08,0,0,1,4.36,3.89h-1.83a2.51,2.51,0,0,0-2.55-2.4c-2,0-2.93,1.78-2.93,4.25,0,2.86,1,4.36,2.9,4.36,1.54,0,2.2-1,2.6-2.29h1.83Z" transform="translate(-4.75 0)"/><path class="cls-2" d="M154.38,288.61c1-1.14,3.26-3.63,4.6-5.21h2.13c-1.23,1.41-2.6,2.82-3.89,4.25,1.34,2.13,2.95,4.75,4.33,6.91h-2.13c-0.9-1.47-2.44-4-3.43-5.68-0.31.33-1.3,1.32-1.61,1.63v4h-1.83v-16h1.83v10.08Z" transform="translate(-4.75 0)"/><path class="cls-2" d="M171.05,292.07a20.93,20.93,0,0,0,.15,2.49h-1.65a10.15,10.15,0,0,1-.15-1.72,3.31,3.31,0,0,1-3.39,1.91,3.2,3.2,0,0,1-3.54-3.39c0-1.67,1.08-3.54,5.06-3.54h1.72v-1.08c0-1.06-.31-2.16-2.2-2.16a2,2,0,0,0-2.35,2h-1.78c0.15-1.87,1.23-3.39,4.2-3.39,2.33,0,3.94.95,3.94,3.48v5.41Zm-1.76-2.93h-1.76c-2.71,0-3.21,1.1-3.21,2.11a1.89,1.89,0,0,0,2.07,2c2.2,0,2.9-1.5,2.9-3.87v-0.24Z" transform="translate(-4.75 0)"/><path class="cls-2" d="M182.89,293.69c0,3.5-1.41,5.46-4.8,5.46s-4.25-1.76-4.4-3.34h1.8c0.26,1.25,1.25,1.85,2.68,1.85,2.38,0,2.93-1.56,2.93-4v-0.9c-0.57,1.23-1.54,1.83-3.28,1.83-2.62,0-4.31-2.2-4.31-5.66,0-3.61,2-5.74,4.58-5.74,1.76,0,2.66.73,3,1.58a10.31,10.31,0,0,1,.09-1.36h1.78c0,0.53,0,1.72,0,3.23v7.06Zm-4.62-.7c2.13,0,2.88-1.34,2.88-4.14s-0.62-4.09-2.77-4.09c-1.85,0-3,1.54-3,4.14S176.51,293,178.27,293Z" transform="translate(-4.75 0)"/><path class="cls-2" d="M187.18,289.32c0,2.24.95,3.92,2.9,3.92a2.56,2.56,0,0,0,2.57-1.83h1.78a4.26,4.26,0,0,1-4.44,3.37c-3.48,0-4.67-2.75-4.67-5.83,0-2.75,1.34-5.76,4.77-5.76s4.51,2.73,4.51,5.3v0.84h-7.44Zm5.63-1.32c0-1.91-.81-3.34-2.75-3.34-2.2,0-2.73,2-2.84,3.34h5.59Z" transform="translate(-4.75 0)"/><path class="cls-2" d="M202.45,286.9c0-2.33,0-3,0-3.5h1.78a13.21,13.21,0,0,1,.07,1.74,3.42,3.42,0,0,1,3.3-2c2.07,0,3.54,1.17,3.54,4.18v7.19h-1.83v-6.91c0-1.63-.55-2.86-2.22-2.86-2,0-2.77,1.47-2.77,3.81v6h-1.83V286.9Z" transform="translate(-4.75 0)"/><line class="cls-5" x1="249.25" y1="55.15" x2="335.25" y2="55.15"/><polygon class="cls-2" points="344.25 54.65 331.32 59.94 334.39 54.65 331.32 49.37 344.25 54.65"/><rect class="cls-2" x="273.16" y="43.06" width="51.44" height="23.09" rx="6.14" ry="6.14"/><path class="cls-4" d="M289.26,60.8V56.37a0.76,0.76,0,0,0-.07-0.36l-3.08-7.42h2.11c0.74,2,1.69,4.5,2.05,5.76,0.45-1.39,1.4-3.89,2.07-5.76h2L291.22,56a0.93,0.93,0,0,0-.05.38V60.8h-1.91Z" transform="translate(-4.75 0)"/><path class="cls-4" d="M295.9,57.45l-0.7,3.35h-1.89l2.86-12.21h2.45l2.92,12.21h-2l-0.72-3.35H295.9Zm2.59-1.66c-0.54-2.56-.94-4.34-1.12-5.44h-0.05c-0.14,1.12-.58,3.06-1.08,5.44h2.25Z" transform="translate(-4.75 0)"/><path class="cls-4" d="M310.14,56c0-2.14,0-4.48.07-5.83h-0.05c-0.43,2.23-1.24,6.68-2.11,10.61h-1.73c-0.65-3.57-1.51-8.32-1.91-10.64h-0.07c0.07,1.42.13,4,.13,6.12V60.8h-1.75V48.59h2.83c0.76,3.53,1.46,7.36,1.73,9.09h0c0.23-1.55,1.13-5.71,1.89-9.09H312V60.8h-1.82V56Z" transform="translate(-4.75 0)"/><path class="cls-4" d="M314.17,48.59h1.89V59.18h4.23l-0.2,1.62h-5.92V48.59Z" transform="translate(-4.75 0)"/><line class="cls-5" x1="83.25" y1="55.15" x2="100.25" y2="55.15"/><polygon class="cls-2" points="109.25 55.15 96.32 60.44 99.39 55.15 96.32 49.87 109.25 55.15"/><line class="cls-5" x1="782.25" y1="257.15" x2="867.25" y2="257.15"/><polygon class="cls-2" points="773.25 257.15 786.18 262.44 783.12 257.15 786.18 251.87 773.25 257.15"/><rect class="cls-2" x="793.16" y="244.08" width="51.44" height="23.09" rx="6.14" ry="6.14"/><path class="cls-4" d="M807.39,249.62h1.89v5h3.29v-5h1.89v12.21h-1.89v-5.62h-3.29v5.62h-1.89V249.62Z" transform="translate(-4.75 0)"/><path class="cls-4" d="M818.28,251.29h-2.65v-1.67h7.18v1.67h-2.65v10.53h-1.89V251.29Z" transform="translate(-4.75 0)"/><path class="cls-4" d="M826.2,251.29h-2.65v-1.67h7.18v1.67h-2.65v10.53H826.2V251.29Z" transform="translate(-4.75 0)"/><path class="cls-4" d="M832,249.62h3.49a3.57,3.57,0,0,1-.18,7.13h-1.42v5.08H832V249.62Zm1.89,5.6h1.21c1.3,0,1.91-.67,1.91-2.07a1.7,1.7,0,0,0-1.78-2h-1.33v4Z" transform="translate(-4.75 0)"/><polyline class="cls-5" points="719.25 49.15 899.25 49.15 899.25 241.15"/><polygon class="cls-2" points="710.25 49.15 723.18 54.44 720.12 49.15 723.18 43.87 710.25 49.15"/><rect class="cls-2" x="873.42" y="150.97" width="51.44" height="23.09" rx="6.14" ry="6.14"/><path class="cls-4" d="M890.85,163.36v5.35H889V156.5h3.55a3,3,0,0,1,3.35,3.28,2.74,2.74,0,0,1-1.6,2.81c1,0.43,1.42,1.3,1.42,3.06v0.49a14.51,14.51,0,0,0,.16,2.58H894a10.31,10.31,0,0,1-.2-2.59v-0.43c0-1.67-.36-2.32-1.84-2.32h-1.13Zm0-1.55h1.22a1.67,1.67,0,0,0,1.89-2,1.56,1.56,0,0,0-1.71-1.78h-1.4v3.75Z" transform="translate(-4.75 0)"/><path class="cls-4" d="M903.46,163.14h-4v3.92h4.43l-0.23,1.64h-6.07V156.5h6v1.67H899.5v3.31h4v1.66Z" transform="translate(-4.75 0)"/><path class="cls-4" d="M906.77,165.36c0.11,1.1.58,2,1.76,2a1.52,1.52,0,0,0,1.64-1.76c0-1.1-.5-1.71-2.09-2.48-2-1-2.86-1.82-2.86-3.62a3.06,3.06,0,0,1,3.33-3.21c2.61,0,3.28,1.8,3.31,3.33H910c-0.07-.65-0.25-1.82-1.5-1.82a1.34,1.34,0,0,0-1.4,1.53c0,1,.43,1.44,1.91,2.13,2.16,1,3.08,2,3.08,4a3.26,3.26,0,0,1-3.62,3.44c-2.68,0-3.51-1.73-3.6-3.55h1.89Z" transform="translate(-4.75 0)"/><path class="cls-4" d="M915.34,158.17H912.7V156.5h7.18v1.67h-2.65v10.53h-1.89V158.17Z" transform="translate(-4.75 0)"/><line class="cls-5" x1="160.25" y1="201.15" x2="160.25" y2="136.15"/><polygon class="cls-2" points="160.25 127.15 165.54 140.09 160.25 137.02 154.97 140.09 160.25 127.15"/><line class="cls-5" x1="395.25" y1="225.15" x2="395.25" y2="129.15"/><polygon class="cls-2" points="395.25 120.15 400.54 133.09 395.25 130.02 389.97 133.09 395.25 120.15"/><line class="cls-5" x1="637.25" y1="75.15" x2="637.25" y2="109.15"/><polygon class="cls-2" points="637.37 118.08 632.49 106.14 637.37 108.97 642.25 106.14 637.37 118.08"/><polyline class="cls-5" points="457.25 64.15 513.25 64.15 513.25 255.15 554.25 255.15"/><polygon class="cls-2" points="563.25 255.15 550.32 260.44 553.39 255.15 550.32 249.87 563.25 255.15"/><line class="cls-5" x1="457.25" y1="50.15" x2="553.25" y2="50.15"/><polygon class="cls-2" points="562.25 50.15 549.32 55.44 552.39 50.15 549.32 44.87 562.25 50.15"/><rect class="cls-2" x="483.16" y="37.06" width="51.44" height="23.09" rx="6.14" ry="6.14"/><path class="cls-4" d="M499.26,49.45V54.8h-1.87V42.59h3.55a3,3,0,0,1,3.35,3.28,2.74,2.74,0,0,1-1.6,2.81c1,0.43,1.42,1.3,1.42,3.06v0.49a14.51,14.51,0,0,0,.16,2.58h-1.84a10.31,10.31,0,0,1-.2-2.59V51.77c0-1.67-.36-2.32-1.84-2.32h-1.13Zm0-1.55h1.22a1.67,1.67,0,0,0,1.89-2,1.56,1.56,0,0,0-1.71-1.78h-1.4V47.9Z" transform="translate(-4.75 0)"/><path class="cls-4" d="M511.88,49.23h-4v3.92h4.43l-0.23,1.64H506V42.59h6v1.67h-4.16v3.31h4v1.66Z" transform="translate(-4.75 0)"/><path class="cls-4" d="M515.19,51.45c0.11,1.1.58,2,1.76,2a1.52,1.52,0,0,0,1.64-1.76c0-1.1-.5-1.71-2.09-2.48-2-1-2.86-1.82-2.86-3.62A3.06,3.06,0,0,1,517,42.41c2.61,0,3.28,1.8,3.31,3.33h-1.85c-0.07-.65-0.25-1.82-1.5-1.82a1.34,1.34,0,0,0-1.4,1.53c0,1,.43,1.44,1.91,2.13,2.16,1,3.08,2,3.08,4A3.26,3.26,0,0,1,516.9,55c-2.68,0-3.51-1.73-3.6-3.55h1.89Z" transform="translate(-4.75 0)"/><path class="cls-4" d="M523.76,44.26h-2.65V42.59h7.18v1.67h-2.65V54.8h-1.89V44.26Z" transform="translate(-4.75 0)"/><polyline class="cls-5" points="710.25 61.15 738.25 61.15 738.25 231.15"/><polygon class="cls-2" points="738.25 239.87 732.97 226.93 738.25 230 743.53 226.93 738.25 239.87"/><path class="cls-2" d="M878.42,245.94h1.83v6.4a3.59,3.59,0,0,1,3.34-1.76c2.71,0,4.29,2.22,4.29,5.46,0,3.39-1.43,6.12-4.62,6.12a3.07,3.07,0,0,1-3-1.61,10.31,10.31,0,0,1-.07,1.41h-1.78c0-.62,0-1.78,0-3.17V245.94Zm4.73,6.23c-2.22,0-3,1.43-3,4.07s0.64,4.33,2.95,4.33c2,0,2.93-1.85,2.93-4.47C886,253.75,885.06,252.17,883.15,252.17Z" transform="translate(-4.75 0)"/><path class="cls-2" d="M890.32,254.59c0-1.78,0-3.23,0-3.78h1.78c0,0.53,0,1.23,0,2.27a3.74,3.74,0,0,1,3.61-2.46v1.89c-2.51.09-3.56,1.56-3.56,4V262h-1.83v-7.37Z" transform="translate(-4.75 0)"/><path class="cls-2" d="M906.54,256.19c0,3.23-1.41,6-5,6s-4.84-2.84-4.84-5.9,1.61-5.68,5-5.68C904.84,250.58,906.54,253,906.54,256.19Zm-7.94,0c0,2.55,1.06,4.4,3.06,4.4s3-1.8,3-4.42c0-2.44-1-4.12-3-4.12S898.59,253.8,898.59,256.24Z" transform="translate(-4.75 0)"/><path class="cls-2" d="M909.68,250.8c1.28,4.91,2,7.81,2.31,9.29h0c0.26-1.34.88-3.5,2.46-9.29h1.78c1.5,5.5,2.16,8,2.33,9.2h0c0.24-1.23.88-3.52,2.44-9.2h1.85L919.54,262h-1.91c-1-3.67-2-7.17-2.31-8.87h0c-0.29,1.65-1.3,5.08-2.4,8.87h-2l-3.19-11.16h2Z" transform="translate(-4.75 0)"/><path class="cls-2" d="M925.63,258.72a2.3,2.3,0,0,0,2.51,2c1.54,0,2.13-.81,2.13-1.76s-0.7-1.54-2.6-2c-2.73-.75-3.43-1.74-3.43-3.23s1-3.1,3.74-3.1,3.74,1.5,3.89,3.21h-1.8A2,2,0,0,0,927.9,252c-1.25,0-1.83.59-1.83,1.52s0.42,1.3,2.29,1.78c2.84,0.77,3.74,1.72,3.74,3.5,0,2.07-1.63,3.34-4,3.34s-4-1.1-4.25-3.43h1.8Z" transform="translate(-4.75 0)"/><path class="cls-2" d="M935.68,256.72c0,2.24.95,3.92,2.9,3.92a2.56,2.56,0,0,0,2.57-1.83h1.78a4.26,4.26,0,0,1-4.44,3.37c-3.48,0-4.67-2.75-4.67-5.83,0-2.75,1.34-5.76,4.78-5.76s4.51,2.73,4.51,5.3v0.84h-7.44Zm5.63-1.32c0-1.91-.81-3.34-2.75-3.34-2.2,0-2.73,2-2.84,3.34h5.59Z" transform="translate(-4.75 0)"/><path class="cls-2" d="M945.54,254.59c0-1.78,0-3.23,0-3.78h1.78c0,0.53,0,1.23,0,2.27a3.75,3.75,0,0,1,3.61-2.46v1.89c-2.51.09-3.56,1.56-3.56,4V262h-1.83v-7.37Z" transform="translate(-4.75 0)"/></svg>